{"canvas_config":{"height":1013,"ratio":"original","width":1920},"color_space":0,"config":{"adjust_max_index":1,"attachment_info":[],"combination_max_index":5,"export_range":null,"extract_audio_last_index":1,"lyrics_recognition_id":"","lyrics_sync":true,"lyrics_taskinfo":[],"maintrack_adsorb":true,"material_save_mode":1,"multi_language_current":"none","multi_language_list":[],"multi_language_main":"none","multi_language_mode":"none","original_sound_last_index":5,"record_audio_last_index":1,"sticker_max_index":1,"subtitle_keywords_config":null,"subtitle_recognition_id":"","subtitle_sync":true,"subtitle_taskinfo":[],"system_font_list":[],"video_mute":false,"zoom_info_params":{"offset_x":0.0,"offset_y":0.0,"zoom_ratio":1.0}},"cover":null,"create_time":0,"duration":290233333,"extra_info":null,"fps":30.0,"free_render_index_mode_on":false,"group_container":null,"id":"BE8FFF5D-E50D-4692-98C1-719DC528B5F9","keyframe_graph_list":[],"keyframes":{"adjusts":[],"audios":[],"effects":[],"filters":[],"handwrites":[],"stickers":[],"texts":[],"videos":[]},"last_modified_platform":{"app_id":359289,"app_source":"cc","app_version":"3.8.0","device_id":"a3a1eb5a9df8bcf1788471e662eed371","hard_disk_id":"","mac_address":"d62f78d4d45d9e3a2f2e2172eecce606","os":"windows","os_version":"10.0.19045"},"materials":{"ai_translates":[],"audio_balances":[],"audio_effects":[],"audio_fades":[{"fade_in_duration":0,"fade_out_duration":0,"fade_type":0,"id":"580FF622-8CBC-4baf-97EB-159DFD6DC9D8","type":"audio_fade"},{"fade_in_duration":0,"fade_out_duration":99999,"fade_type":0,"id":"ECAD9AA5-7269-4506-967A-5177BCEE6A53","type":"audio_fade"},{"fade_in_duration":0,"fade_out_duration":0,"fade_type":0,"id":"B4227D61-6179-4e84-B593-2FEF991792EA","type":"audio_fade"},{"fade_in_duration":0,"fade_out_duration":0,"fade_type":0,"id":"E999BDBE-43E2-4826-A118-923E8DC1C8D3","type":"audio_fade"}],"audio_track_indexes":[],"audios":[{"app_id":0,"category_id":"","category_name":"local","check_flag":1,"copyright_limit_type":"none","duration":23600000,"effect_id":"","formula_id":"","id":"7CC9745B-FFFF-42d8-99C0-83C1DF14D3D0","intensifies_path":"","is_ai_clone_tone":false,"is_text_edit_overdub":false,"is_ugc":false,"local_material_id":"c7d75e63-1ff4-438e-837e-17b6bdfea54a","music_id":"b0139b85-f75e-4516-9b17-08e9d1bc09ce","name":"ElevenLabs_2024-04-27T17_05_44_Brian_pre_s50_sb75_se0_b_m2.mp3","path":"##_draftpath_placeholder_0E685133-18CE-45ED-8CB8-2904A212EC80_##/Resources/local/54a33dc3c089d886abab08bfd5129141.mp3","query":"","request_id":"","resource_id":"","search_id":"","source_from":"","source_platform":0,"team_id":"","text_id":"","tone_category_id":"","tone_category_name":"","tone_effect_id":"","tone_effect_name":"","tone_platform":"","tone_second_category_id":"","tone_second_category_name":"","tone_speaker":"","tone_type":"","type":"extract_music","video_id":"","wave_points":[]},{"app_id":0,"category_id":"","category_name":"local","check_flag":1,"copyright_limit_type":"none","duration":23600000,"effect_id":"","formula_id":"","id":"2EFF2B31-0831-4236-AF73-41B8E7F7A928","intensifies_path":"","is_ai_clone_tone":false,"is_text_edit_overdub":false,"is_ugc":false,"local_material_id":"c7d75e63-1ff4-438e-837e-17b6bdfea54a","music_id":"b0139b85-f75e-4516-9b17-08e9d1bc09ce","name":"ElevenLabs_2024-04-27T17_05_44_Brian_pre_s50_sb75_se0_b_m2.mp3","path":"##_draftpath_placeholder_0E685133-18CE-45ED-8CB8-2904A212EC80_##/Resources/local/54a33dc3c089d886abab08bfd5129141.mp3","query":"","request_id":"","resource_id":"","search_id":"","source_from":"","source_platform":0,"team_id":"","text_id":"","tone_category_id":"","tone_category_name":"","tone_effect_id":"","tone_effect_name":"","tone_platform":"","tone_second_category_id":"","tone_second_category_name":"","tone_speaker":"","tone_type":"","type":"extract_music","video_id":"","wave_points":[]},{"app_id":0,"category_id":"","category_name":"local","check_flag":1,"copyright_limit_type":"none","duration":23600000,"effect_id":"","formula_id":"","id":"39BA3CE4-D43B-4c6c-A1A4-82FA12743B2B","intensifies_path":"","is_ai_clone_tone":false,"is_text_edit_overdub":false,"is_ugc":false,"local_material_id":"c7d75e63-1ff4-438e-837e-17b6bdfea54a","music_id":"b0139b85-f75e-4516-9b17-08e9d1bc09ce","name":"ElevenLabs_2024-04-27T17_05_44_Brian_pre_s50_sb75_se0_b_m2.mp3","path":"##_draftpath_placeholder_0E685133-18CE-45ED-8CB8-2904A212EC80_##/Resources/local/54a33dc3c089d886abab08bfd5129141.mp3","query":"","request_id":"","resource_id":"","search_id":"","source_from":"","source_platform":0,"team_id":"","text_id":"","tone_category_id":"","tone_category_name":"","tone_effect_id":"","tone_effect_name":"","tone_platform":"","tone_second_category_id":"","tone_second_category_name":"","tone_speaker":"","tone_type":"","type":"extract_music","video_id":"","wave_points":[]},{"app_id":0,"category_id":"","category_name":"local","check_flag":1,"copyright_limit_type":"none","duration":23600000,"effect_id":"","formula_id":"","id":"D0766BA6-F08F-4c8a-9C04-9E6B41DFC382","intensifies_path":"","is_ai_clone_tone":false,"is_text_edit_overdub":false,"is_ugc":false,"local_material_id":"c7d75e63-1ff4-438e-837e-17b6bdfea54a","music_id":"b0139b85-f75e-4516-9b17-08e9d1bc09ce","name":"ElevenLabs_2024-04-27T17_05_44_Brian_pre_s50_sb75_se0_b_m2.mp3","path":"##_draftpath_placeholder_0E685133-18CE-45ED-8CB8-2904A212EC80_##/Resources/local/54a33dc3c089d886abab08bfd5129141.mp3","query":"","request_id":"","resource_id":"","search_id":"","source_from":"","source_platform":0,"team_id":"","text_id":"","tone_category_id":"","tone_category_name":"","tone_effect_id":"","tone_effect_name":"","tone_platform":"","tone_second_category_id":"","tone_second_category_name":"","tone_speaker":"","tone_type":"","type":"extract_music","video_id":"","wave_points":[]},{"app_id":0,"category_id":"","category_name":"local","check_flag":1,"copyright_limit_type":"none","duration":23600000,"effect_id":"","formula_id":"","id":"714DED05-33A5-4937-AAA0-629081B5CA19","intensifies_path":"","is_ai_clone_tone":false,"is_text_edit_overdub":false,"is_ugc":false,"local_material_id":"c7d75e63-1ff4-438e-837e-17b6bdfea54a","music_id":"b0139b85-f75e-4516-9b17-08e9d1bc09ce","name":"ElevenLabs_2024-04-27T17_05_44_Brian_pre_s50_sb75_se0_b_m2.mp3","path":"##_draftpath_placeholder_0E685133-18CE-45ED-8CB8-2904A212EC80_##/Resources/local/54a33dc3c089d886abab08bfd5129141.mp3","query":"","request_id":"","resource_id":"","search_id":"","source_from":"","source_platform":0,"team_id":"","text_id":"","tone_category_id":"","tone_category_name":"","tone_effect_id":"","tone_effect_name":"","tone_platform":"","tone_second_category_id":"","tone_second_category_name":"","tone_speaker":"","tone_type":"","type":"extract_music","video_id":"","wave_points":[]},{"app_id":0,"category_id":"","category_name":"local","check_flag":1,"copyright_limit_type":"none","duration":23600000,"effect_id":"","formula_id":"","id":"6588DB6E-4FC1-421c-BE9E-611E9A00DFD7","intensifies_path":"","is_ai_clone_tone":false,"is_text_edit_overdub":false,"is_ugc":false,"local_material_id":"c7d75e63-1ff4-438e-837e-17b6bdfea54a","music_id":"b0139b85-f75e-4516-9b17-08e9d1bc09ce","name":"ElevenLabs_2024-04-27T17_05_44_Brian_pre_s50_sb75_se0_b_m2.mp3","path":"##_draftpath_placeholder_0E685133-18CE-45ED-8CB8-2904A212EC80_##/Resources/local/54a33dc3c089d886abab08bfd5129141.mp3","query":"","request_id":"","resource_id":"","search_id":"","source_from":"","source_platform":0,"team_id":"","text_id":"","tone_category_id":"","tone_category_name":"","tone_effect_id":"","tone_effect_name":"","tone_platform":"","tone_second_category_id":"","tone_second_category_name":"","tone_speaker":"","tone_type":"","type":"extract_music","video_id":"","wave_points":[]},{"app_id":0,"category_id":"","category_name":"local","check_flag":1,"copyright_limit_type":"none","duration":23600000,"effect_id":"","formula_id":"","id":"51B052C3-DC53-43f6-AF0A-3904416DF135","intensifies_path":"","is_ai_clone_tone":false,"is_text_edit_overdub":false,"is_ugc":false,"local_material_id":"c7d75e63-1ff4-438e-837e-17b6bdfea54a","music_id":"b0139b85-f75e-4516-9b17-08e9d1bc09ce","name":"ElevenLabs_2024-04-27T17_05_44_Brian_pre_s50_sb75_se0_b_m2.mp3","path":"##_draftpath_placeholder_0E685133-18CE-45ED-8CB8-2904A212EC80_##/Resources/local/54a33dc3c089d886abab08bfd5129141.mp3","query":"","request_id":"","resource_id":"","search_id":"","source_from":"","source_platform":0,"team_id":"","text_id":"","tone_category_id":"","tone_category_name":"","tone_effect_id":"","tone_effect_name":"","tone_platform":"","tone_second_category_id":"","tone_second_category_name":"","tone_speaker":"","tone_type":"","type":"extract_music","video_id":"","wave_points":[]},{"app_id":0,"category_id":"","category_name":"local","check_flag":1,"copyright_limit_type":"none","duration":23600000,"effect_id":"","formula_id":"","id":"550F4718-5BCB-49ce-9F9D-E3772844EB64","intensifies_path":"","is_ai_clone_tone":false,"is_text_edit_overdub":false,"is_ugc":false,"local_material_id":"c7d75e63-1ff4-438e-837e-17b6bdfea54a","music_id":"b0139b85-f75e-4516-9b17-08e9d1bc09ce","name":"ElevenLabs_2024-04-27T17_05_44_Brian_pre_s50_sb75_se0_b_m2.mp3","path":"##_draftpath_placeholder_0E685133-18CE-45ED-8CB8-2904A212EC80_##/Resources/local/54a33dc3c089d886abab08bfd5129141.mp3","query":"","request_id":"","resource_id":"","search_id":"","source_from":"","source_platform":0,"team_id":"","text_id":"","tone_category_id":"","tone_category_name":"","tone_effect_id":"","tone_effect_name":"","tone_platform":"","tone_second_category_id":"","tone_second_category_name":"","tone_speaker":"","tone_type":"","type":"extract_music","video_id":"","wave_points":[]},{"app_id":0,"category_id":"","category_name":"local","check_flag":1,"copyright_limit_type":"none","duration":23600000,"effect_id":"","formula_id":"","id":"4D335965-EE22-4587-9AA1-A0BA7223C8D7","intensifies_path":"","is_ai_clone_tone":false,"is_text_edit_overdub":false,"is_ugc":false,"local_material_id":"c7d75e63-1ff4-438e-837e-17b6bdfea54a","music_id":"b0139b85-f75e-4516-9b17-08e9d1bc09ce","name":"ElevenLabs_2024-04-27T17_05_44_Brian_pre_s50_sb75_se0_b_m2.mp3","path":"##_draftpath_placeholder_0E685133-18CE-45ED-8CB8-2904A212EC80_##/Resources/local/54a33dc3c089d886abab08bfd5129141.mp3","query":"","request_id":"","resource_id":"","search_id":"","source_from":"","source_platform":0,"team_id":"","text_id":"","tone_category_id":"","tone_category_name":"","tone_effect_id":"","tone_effect_name":"","tone_platform":"","tone_second_category_id":"","tone_second_category_name":"","tone_speaker":"","tone_type":"","type":"extract_music","video_id":"","wave_points":[]},{"app_id":0,"category_id":"","category_name":"local","check_flag":1,"copyright_limit_type":"none","duration":23600000,"effect_id":"","formula_id":"","id":"E38AC0FF-AB02-49a0-B6B7-EC9C5BE8ADAE","intensifies_path":"","is_ai_clone_tone":false,"is_text_edit_overdub":false,"is_ugc":false,"local_material_id":"c7d75e63-1ff4-438e-837e-17b6bdfea54a","music_id":"b0139b85-f75e-4516-9b17-08e9d1bc09ce","name":"ElevenLabs_2024-04-27T17_05_44_Brian_pre_s50_sb75_se0_b_m2.mp3","path":"##_draftpath_placeholder_0E685133-18CE-45ED-8CB8-2904A212EC80_##/Resources/local/54a33dc3c089d886abab08bfd5129141.mp3","query":"","request_id":"","resource_id":"","search_id":"","source_from":"","source_platform":0,"team_id":"","text_id":"","tone_category_id":"","tone_category_name":"","tone_effect_id":"","tone_effect_name":"","tone_platform":"","tone_second_category_id":"","tone_second_category_name":"","tone_speaker":"","tone_type":"","type":"extract_music","video_id":"","wave_points":[]},{"app_id":0,"category_id":"","category_name":"local","check_flag":1,"copyright_limit_type":"none","duration":9300000,"effect_id":"","formula_id":"","id":"BB46542D-DFBB-491a-92BD-6D89AF3B4ADB","intensifies_path":"","is_ai_clone_tone":false,"is_text_edit_overdub":false,"is_ugc":false,"local_material_id":"7efacb18-a888-4ce7-be5f-ea0385fd1754","music_id":"6fbaa562-7d1a-4ca5-83ac-7511d7a5de32","name":"ElevenLabs_2024-04-27T19_16_27_Brian_pre_s50_sb75_se0_b_m2.mp3","path":"##_draftpath_placeholder_0E685133-18CE-45ED-8CB8-2904A212EC80_##/Resources/local/4df388802792964ab6ac22f009b230e6.mp3","query":"","request_id":"","resource_id":"","search_id":"","source_from":"","source_platform":0,"team_id":"","text_id":"","tone_category_id":"","tone_category_name":"","tone_effect_id":"","tone_effect_name":"","tone_platform":"","tone_second_category_id":"","tone_second_category_name":"","tone_speaker":"","tone_type":"","type":"extract_music","video_id":"","wave_points":[]},{"app_id":0,"category_id":"","category_name":"local","check_flag":1,"copyright_limit_type":"none","duration":9300000,"effect_id":"","formula_id":"","id":"F84517DE-3779-4bdc-85A8-E6DBB441FDF7","intensifies_path":"","is_ai_clone_tone":false,"is_text_edit_overdub":false,"is_ugc":false,"local_material_id":"7efacb18-a888-4ce7-be5f-ea0385fd1754","music_id":"6fbaa562-7d1a-4ca5-83ac-7511d7a5de32","name":"ElevenLabs_2024-04-27T19_16_27_Brian_pre_s50_sb75_se0_b_m2.mp3","path":"##_draftpath_placeholder_0E685133-18CE-45ED-8CB8-2904A212EC80_##/Resources/local/4df388802792964ab6ac22f009b230e6.mp3","query":"","request_id":"","resource_id":"","search_id":"","source_from":"","source_platform":0,"team_id":"","text_id":"","tone_category_id":"","tone_category_name":"","tone_effect_id":"","tone_effect_name":"","tone_platform":"","tone_second_category_id":"","tone_second_category_name":"","tone_speaker":"","tone_type":"","type":"extract_music","video_id":"","wave_points":[]},{"app_id":0,"category_id":"","category_name":"local","check_flag":1,"copyright_limit_type":"none","duration":7733333,"effect_id":"","formula_id":"","id":"1B919EE2-C2C8-4bac-AAAE-ADC8308B8C43","intensifies_path":"","is_ai_clone_tone":false,"is_text_edit_overdub":false,"is_ugc":false,"local_material_id":"9d951988-c4f0-4afb-8d87-70428b011a98","music_id":"3815e659-2266-42f4-985d-7272310c1ca8","name":"ElevenLabs_2024-04-27T19_07_51_Brian_pre_s50_sb75_se0_b_m2.mp3","path":"##_draftpath_placeholder_0E685133-18CE-45ED-8CB8-2904A212EC80_##/Resources/local/b6c08b0cab0dd110d820846ceaec0968.mp3","query":"","request_id":"","resource_id":"","search_id":"","source_from":"","source_platform":0,"team_id":"","text_id":"","tone_category_id":"","tone_category_name":"","tone_effect_id":"","tone_effect_name":"","tone_platform":"","tone_second_category_id":"","tone_second_category_name":"","tone_speaker":"","tone_type":"","type":"extract_music","video_id":"","wave_points":[]},{"app_id":0,"category_id":"","category_name":"local","check_flag":1,"copyright_limit_type":"none","duration":7733333,"effect_id":"","formula_id":"","id":"FEE3C82E-9D1A-4086-8466-3CFCD7FCBFEE","intensifies_path":"","is_ai_clone_tone":false,"is_text_edit_overdub":false,"is_ugc":false,"local_material_id":"9d951988-c4f0-4afb-8d87-70428b011a98","music_id":"3815e659-2266-42f4-985d-7272310c1ca8","name":"ElevenLabs_2024-04-27T19_07_51_Brian_pre_s50_sb75_se0_b_m2.mp3","path":"##_draftpath_placeholder_0E685133-18CE-45ED-8CB8-2904A212EC80_##/Resources/local/b6c08b0cab0dd110d820846ceaec0968.mp3","query":"","request_id":"","resource_id":"","search_id":"","source_from":"","source_platform":0,"team_id":"","text_id":"","tone_category_id":"","tone_category_name":"","tone_effect_id":"","tone_effect_name":"","tone_platform":"","tone_second_category_id":"","tone_second_category_name":"","tone_speaker":"","tone_type":"","type":"extract_music","video_id":"","wave_points":[]},{"app_id":0,"category_id":"","category_name":"local","check_flag":1,"copyright_limit_type":"none","duration":6733333,"effect_id":"","formula_id":"","id":"D63266A8-0889-4f32-9E1F-E668C3A97448","intensifies_path":"","is_ai_clone_tone":false,"is_text_edit_overdub":false,"is_ugc":false,"local_material_id":"0e0290ab-8c86-4428-87c3-b703822ea16d","music_id":"2b03884d-9c15-4130-8c22-f85556205f74","name":"ElevenLabs_2024-04-27T19_22_55_Brian_pre_s50_sb75_se0_b_m2.mp3","path":"##_draftpath_placeholder_0E685133-18CE-45ED-8CB8-2904A212EC80_##/Resources/local/b78a7319a7804a3b7c165055d28efe3e.mp3","query":"","request_id":"","resource_id":"","search_id":"","source_from":"","source_platform":0,"team_id":"","text_id":"","tone_category_id":"","tone_category_name":"","tone_effect_id":"","tone_effect_name":"","tone_platform":"","tone_second_category_id":"","tone_second_category_name":"","tone_speaker":"","tone_type":"","type":"extract_music","video_id":"","wave_points":[]},{"app_id":0,"category_id":"","category_name":"local","check_flag":1,"copyright_limit_type":"none","duration":4866666,"effect_id":"","formula_id":"","id":"FFCACDCA-2E24-4349-88EA-CE7F420D0EBB","intensifies_path":"","is_ai_clone_tone":false,"is_text_edit_overdub":false,"is_ugc":false,"local_material_id":"c5ea2217-6212-47fa-b73f-de90bb9bbeae","music_id":"569407dd-cfca-4c45-be49-fceb602a25c8","name":"ElevenLabs_2024-04-27T20_24_47_Brian_pre_s50_sb75_se0_b_m2.mp3","path":"##_draftpath_placeholder_0E685133-18CE-45ED-8CB8-2904A212EC80_##/Resources/local/67f22a0f969178ad0b469f30510d34a3.mp3","query":"","request_id":"","resource_id":"","search_id":"","source_from":"","source_platform":0,"team_id":"","text_id":"","tone_category_id":"","tone_category_name":"","tone_effect_id":"","tone_effect_name":"","tone_platform":"","tone_second_category_id":"","tone_second_category_name":"","tone_speaker":"","tone_type":"","type":"extract_music","video_id":"","wave_points":[]},{"app_id":0,"category_id":"","category_name":"local","check_flag":1,"copyright_limit_type":"none","duration":2200000,"effect_id":"","formula_id":"","id":"71953997-3EE4-4932-AE63-B410D1EBC925","intensifies_path":"","is_ai_clone_tone":false,"is_text_edit_overdub":false,"is_ugc":false,"local_material_id":"5d65e15b-5948-473b-91c6-1931b029f268","music_id":"6b6027bc-ca57-47ea-8752-2dff14f2d9fd","name":"ElevenLabs_2024-04-27T20_33_49_Brian_pre_s50_sb75_se0_b_m2.mp3","path":"##_draftpath_placeholder_0E685133-18CE-45ED-8CB8-2904A212EC80_##/Resources/local/0dd63ced0502444335ff3e4151f7f531.mp3","query":"","request_id":"","resource_id":"","search_id":"","source_from":"","source_platform":0,"team_id":"","text_id":"","tone_category_id":"","tone_category_name":"","tone_effect_id":"","tone_effect_name":"","tone_platform":"","tone_second_category_id":"","tone_second_category_name":"","tone_speaker":"","tone_type":"","type":"extract_music","video_id":"","wave_points":[]},{"app_id":0,"category_id":"","category_name":"local","check_flag":1,"copyright_limit_type":"none","duration":5866666,"effect_id":"","formula_id":"","id":"77C2363D-6A85-4543-A80D-0474A92189C0","intensifies_path":"","is_ai_clone_tone":false,"is_text_edit_overdub":false,"is_ugc":false,"local_material_id":"9706b3f4-5f2d-4d6a-8d3c-1f48b8d6cb6a","music_id":"aaccba3c-ab5b-4b15-8739-78ed2f180602","name":"ElevenLabs_2024-04-27T20_28_10_Brian_pre_s50_sb75_se0_b_m2.mp3","path":"##_draftpath_placeholder_0E685133-18CE-45ED-8CB8-2904A212EC80_##/Resources/local/859a25cae890b31db4689a837f1b35ce.mp3","query":"","request_id":"","resource_id":"","search_id":"","source_from":"","source_platform":0,"team_id":"","text_id":"","tone_category_id":"","tone_category_name":"","tone_effect_id":"","tone_effect_name":"","tone_platform":"","tone_second_category_id":"","tone_second_category_name":"","tone_speaker":"","tone_type":"","type":"extract_music","video_id":"","wave_points":[]},{"app_id":0,"category_id":"","category_name":"local","check_flag":1,"copyright_limit_type":"none","duration":6000000,"effect_id":"","formula_id":"","id":"B02B3911-EEB7-4a9e-9D78-B68621BF959B","intensifies_path":"","is_ai_clone_tone":false,"is_text_edit_overdub":false,"is_ugc":false,"local_material_id":"1864b08f-ca27-430f-9e32-d6d9dbec69c7","music_id":"8942e75b-da52-40be-bfe2-15e503f0b952","name":"ElevenLabs_2024-04-27T20_29_14_Brian_pre_s50_sb75_se0_b_m2.mp3","path":"##_draftpath_placeholder_0E685133-18CE-45ED-8CB8-2904A212EC80_##/Resources/local/e5547e7b07b86c55dc9378de3db1a032.mp3","query":"","request_id":"","resource_id":"","search_id":"","source_from":"","source_platform":0,"team_id":"","text_id":"","tone_category_id":"","tone_category_name":"","tone_effect_id":"","tone_effect_name":"","tone_platform":"","tone_second_category_id":"","tone_second_category_name":"","tone_speaker":"","tone_type":"","type":"extract_music","video_id":"","wave_points":[]},{"app_id":0,"category_id":"","category_name":"local","check_flag":1,"copyright_limit_type":"none","duration":9400000,"effect_id":"","formula_id":"","id":"11E2DA89-357F-4be3-A17D-45A8F69882F3","intensifies_path":"","is_ai_clone_tone":false,"is_text_edit_overdub":false,"is_ugc":false,"local_material_id":"3e63228d-9b9c-451a-b58f-5cd62c0fb584","music_id":"7f05fe4f-6300-4b1e-b888-6da355c4fa7a","name":"ElevenLabs_2024-04-27T20_37_49_Brian_pre_s50_sb75_se0_b_m2.mp3","path":"##_draftpath_placeholder_0E685133-18CE-45ED-8CB8-2904A212EC80_##/Resources/local/5080c59a8d7e18b37b3af3b3e2a0ba8c.mp3","query":"","request_id":"","resource_id":"","search_id":"","source_from":"","source_platform":0,"team_id":"","text_id":"","tone_category_id":"","tone_category_name":"","tone_effect_id":"","tone_effect_name":"","tone_platform":"","tone_second_category_id":"","tone_second_category_name":"","tone_speaker":"","tone_type":"","type":"extract_music","video_id":"","wave_points":[]},{"app_id":0,"category_id":"","category_name":"local","check_flag":1,"copyright_limit_type":"none","duration":9400000,"effect_id":"","formula_id":"","id":"B331FAA0-C2F6-4224-B95B-997D2829B84F","intensifies_path":"","is_ai_clone_tone":false,"is_text_edit_overdub":false,"is_ugc":false,"local_material_id":"3e63228d-9b9c-451a-b58f-5cd62c0fb584","music_id":"7f05fe4f-6300-4b1e-b888-6da355c4fa7a","name":"ElevenLabs_2024-04-27T20_37_49_Brian_pre_s50_sb75_se0_b_m2.mp3","path":"##_draftpath_placeholder_0E685133-18CE-45ED-8CB8-2904A212EC80_##/Resources/local/5080c59a8d7e18b37b3af3b3e2a0ba8c.mp3","query":"","request_id":"","resource_id":"","search_id":"","source_from":"","source_platform":0,"team_id":"","text_id":"","tone_category_id":"","tone_category_name":"","tone_effect_id":"","tone_effect_name":"","tone_platform":"","tone_second_category_id":"","tone_second_category_name":"","tone_speaker":"","tone_type":"","type":"extract_music","video_id":"","wave_points":[]},{"app_id":0,"category_id":"","category_name":"local","check_flag":1,"copyright_limit_type":"none","duration":9400000,"effect_id":"","formula_id":"","id":"8657B718-5D90-4d51-AC3D-1B6B5501FF87","intensifies_path":"","is_ai_clone_tone":false,"is_text_edit_overdub":false,"is_ugc":false,"local_material_id":"3e63228d-9b9c-451a-b58f-5cd62c0fb584","music_id":"7f05fe4f-6300-4b1e-b888-6da355c4fa7a","name":"ElevenLabs_2024-04-27T20_37_49_Brian_pre_s50_sb75_se0_b_m2.mp3","path":"##_draftpath_placeholder_0E685133-18CE-45ED-8CB8-2904A212EC80_##/Resources/local/5080c59a8d7e18b37b3af3b3e2a0ba8c.mp3","query":"","request_id":"","resource_id":"","search_id":"","source_from":"","source_platform":0,"team_id":"","text_id":"","tone_category_id":"","tone_category_name":"","tone_effect_id":"","tone_effect_name":"","tone_platform":"","tone_second_category_id":"","tone_second_category_name":"","tone_speaker":"","tone_type":"","type":"extract_music","video_id":"","wave_points":[]},{"app_id":0,"category_id":"","category_name":"local","check_flag":1,"copyright_limit_type":"none","duration":9400000,"effect_id":"","formula_id":"","id":"5815BDDE-C6AE-447c-8E4E-4231EADBB82B","intensifies_path":"","is_ai_clone_tone":false,"is_text_edit_overdub":false,"is_ugc":false,"local_material_id":"3e63228d-9b9c-451a-b58f-5cd62c0fb584","music_id":"7f05fe4f-6300-4b1e-b888-6da355c4fa7a","name":"ElevenLabs_2024-04-27T20_37_49_Brian_pre_s50_sb75_se0_b_m2.mp3","path":"##_draftpath_placeholder_0E685133-18CE-45ED-8CB8-2904A212EC80_##/Resources/local/5080c59a8d7e18b37b3af3b3e2a0ba8c.mp3","query":"","request_id":"","resource_id":"","search_id":"","source_from":"","source_platform":0,"team_id":"","text_id":"","tone_category_id":"","tone_category_name":"","tone_effect_id":"","tone_effect_name":"","tone_platform":"","tone_second_category_id":"","tone_second_category_name":"","tone_speaker":"","tone_type":"","type":"extract_music","video_id":"","wave_points":[]},{"app_id":0,"category_id":"","category_name":"local","check_flag":1,"copyright_limit_type":"none","duration":16166666,"effect_id":"","formula_id":"","id":"375606E8-8F44-432d-BE69-871236A68C09","intensifies_path":"","is_ai_clone_tone":false,"is_text_edit_overdub":false,"is_ugc":false,"local_material_id":"88b2e78f-1403-4c34-adc0-28d4d0e4bf14","music_id":"a4a254ca-bba2-4554-8e1c-8affca6101df","name":"ElevenLabs_2024-04-27T20_48_47_Brian_pre_s50_sb75_se0_b_m2.mp3","path":"##_draftpath_placeholder_0E685133-18CE-45ED-8CB8-2904A212EC80_##/Resources/local/60107c71c1df2e3152c34de5cd0652ea.mp3","query":"","request_id":"","resource_id":"","search_id":"","source_from":"","source_platform":0,"team_id":"","text_id":"","tone_category_id":"","tone_category_name":"","tone_effect_id":"","tone_effect_name":"","tone_platform":"","tone_second_category_id":"","tone_second_category_name":"","tone_speaker":"","tone_type":"","type":"extract_music","video_id":"","wave_points":[]},{"app_id":0,"category_id":"","category_name":"local","check_flag":1,"copyright_limit_type":"none","duration":16166666,"effect_id":"","formula_id":"","id":"9FDC9BB0-6E3D-4ad6-BB9D-AE1887C7EDF0","intensifies_path":"","is_ai_clone_tone":false,"is_text_edit_overdub":false,"is_ugc":false,"local_material_id":"88b2e78f-1403-4c34-adc0-28d4d0e4bf14","music_id":"a4a254ca-bba2-4554-8e1c-8affca6101df","name":"ElevenLabs_2024-04-27T20_48_47_Brian_pre_s50_sb75_se0_b_m2.mp3","path":"##_draftpath_placeholder_0E685133-18CE-45ED-8CB8-2904A212EC80_##/Resources/local/60107c71c1df2e3152c34de5cd0652ea.mp3","query":"","request_id":"","resource_id":"","search_id":"","source_from":"","source_platform":0,"team_id":"","text_id":"","tone_category_id":"","tone_category_name":"","tone_effect_id":"","tone_effect_name":"","tone_platform":"","tone_second_category_id":"","tone_second_category_name":"","tone_speaker":"","tone_type":"","type":"extract_music","video_id":"","wave_points":[]},{"app_id":0,"category_id":"","category_name":"local","check_flag":1,"copyright_limit_type":"none","duration":16166666,"effect_id":"","formula_id":"","id":"AC1F1246-A78F-457e-A88B-094D91F2EB5C","intensifies_path":"","is_ai_clone_tone":false,"is_text_edit_overdub":false,"is_ugc":false,"local_material_id":"88b2e78f-1403-4c34-adc0-28d4d0e4bf14","music_id":"a4a254ca-bba2-4554-8e1c-8affca6101df","name":"ElevenLabs_2024-04-27T20_48_47_Brian_pre_s50_sb75_se0_b_m2.mp3","path":"##_draftpath_placeholder_0E685133-18CE-45ED-8CB8-2904A212EC80_##/Resources/local/60107c71c1df2e3152c34de5cd0652ea.mp3","query":"","request_id":"","resource_id":"","search_id":"","source_from":"","source_platform":0,"team_id":"","text_id":"","tone_category_id":"","tone_category_name":"","tone_effect_id":"","tone_effect_name":"","tone_platform":"","tone_second_category_id":"","tone_second_category_name":"","tone_speaker":"","tone_type":"","type":"extract_music","video_id":"","wave_points":[]},{"app_id":0,"category_id":"","category_name":"local","check_flag":1,"copyright_limit_type":"none","duration":21466666,"effect_id":"","formula_id":"","id":"941E8698-1CB4-4d48-883C-51A29648CE98","intensifies_path":"","is_ai_clone_tone":false,"is_text_edit_overdub":false,"is_ugc":false,"local_material_id":"09aea328-baa0-44ed-bb46-a0f4a760948e","music_id":"c426a7e1-67f6-4ec5-850b-41943d1d7acd","name":"ElevenLabs_2024-04-27T20_54_11_Brian_pre_s50_sb75_se0_b_m2.mp3","path":"##_draftpath_placeholder_0E685133-18CE-45ED-8CB8-2904A212EC80_##/Resources/local/23a1b246527dca18d9a2fe09406e0eee.mp3","query":"","request_id":"","resource_id":"","search_id":"","source_from":"","source_platform":0,"team_id":"","text_id":"","tone_category_id":"","tone_category_name":"","tone_effect_id":"","tone_effect_name":"","tone_platform":"","tone_second_category_id":"","tone_second_category_name":"","tone_speaker":"","tone_type":"","type":"extract_music","video_id":"","wave_points":[]},{"app_id":0,"category_id":"","category_name":"local","check_flag":1,"copyright_limit_type":"none","duration":21466666,"effect_id":"","formula_id":"","id":"E6137712-678F-46be-A19D-6E8E5379E5B0","intensifies_path":"","is_ai_clone_tone":false,"is_text_edit_overdub":false,"is_ugc":false,"local_material_id":"09aea328-baa0-44ed-bb46-a0f4a760948e","music_id":"c426a7e1-67f6-4ec5-850b-41943d1d7acd","name":"ElevenLabs_2024-04-27T20_54_11_Brian_pre_s50_sb75_se0_b_m2.mp3","path":"##_draftpath_placeholder_0E685133-18CE-45ED-8CB8-2904A212EC80_##/Resources/local/23a1b246527dca18d9a2fe09406e0eee.mp3","query":"","request_id":"","resource_id":"","search_id":"","source_from":"","source_platform":0,"team_id":"","text_id":"","tone_category_id":"","tone_category_name":"","tone_effect_id":"","tone_effect_name":"","tone_platform":"","tone_second_category_id":"","tone_second_category_name":"","tone_speaker":"","tone_type":"","type":"extract_music","video_id":"","wave_points":[]},{"app_id":0,"category_id":"","category_name":"local","check_flag":1,"copyright_limit_type":"none","duration":21466666,"effect_id":"","formula_id":"","id":"2339A407-1273-46b2-A19D-F2256AAD7ECC","intensifies_path":"","is_ai_clone_tone":false,"is_text_edit_overdub":false,"is_ugc":false,"local_material_id":"09aea328-baa0-44ed-bb46-a0f4a760948e","music_id":"c426a7e1-67f6-4ec5-850b-41943d1d7acd","name":"ElevenLabs_2024-04-27T20_54_11_Brian_pre_s50_sb75_se0_b_m2.mp3","path":"##_draftpath_placeholder_0E685133-18CE-45ED-8CB8-2904A212EC80_##/Resources/local/23a1b246527dca18d9a2fe09406e0eee.mp3","query":"","request_id":"","resource_id":"","search_id":"","source_from":"","source_platform":0,"team_id":"","text_id":"","tone_category_id":"","tone_category_name":"","tone_effect_id":"","tone_effect_name":"","tone_platform":"","tone_second_category_id":"","tone_second_category_name":"","tone_speaker":"","tone_type":"","type":"extract_music","video_id":"","wave_points":[]},{"app_id":0,"category_id":"","category_name":"local","check_flag":1,"copyright_limit_type":"none","duration":21466666,"effect_id":"","formula_id":"","id":"1F829E4B-0C8C-425a-96A1-CF7CA05AE56D","intensifies_path":"","is_ai_clone_tone":false,"is_text_edit_overdub":false,"is_ugc":false,"local_material_id":"09aea328-baa0-44ed-bb46-a0f4a760948e","music_id":"c426a7e1-67f6-4ec5-850b-41943d1d7acd","name":"ElevenLabs_2024-04-27T20_54_11_Brian_pre_s50_sb75_se0_b_m2.mp3","path":"##_draftpath_placeholder_0E685133-18CE-45ED-8CB8-2904A212EC80_##/Resources/local/23a1b246527dca18d9a2fe09406e0eee.mp3","query":"","request_id":"","resource_id":"","search_id":"","source_from":"","source_platform":0,"team_id":"","text_id":"","tone_category_id":"","tone_category_name":"","tone_effect_id":"","tone_effect_name":"","tone_platform":"","tone_second_category_id":"","tone_second_category_name":"","tone_speaker":"","tone_type":"","type":"extract_music","video_id":"","wave_points":[]},{"app_id":0,"category_id":"","category_name":"local","check_flag":1,"copyright_limit_type":"none","duration":21466666,"effect_id":"","formula_id":"","id":"4BDF84ED-AB4F-46ac-80B1-A80E2872A5BA","intensifies_path":"","is_ai_clone_tone":false,"is_text_edit_overdub":false,"is_ugc":false,"local_material_id":"09aea328-baa0-44ed-bb46-a0f4a760948e","music_id":"c426a7e1-67f6-4ec5-850b-41943d1d7acd","name":"ElevenLabs_2024-04-27T20_54_11_Brian_pre_s50_sb75_se0_b_m2.mp3","path":"##_draftpath_placeholder_0E685133-18CE-45ED-8CB8-2904A212EC80_##/Resources/local/23a1b246527dca18d9a2fe09406e0eee.mp3","query":"","request_id":"","resource_id":"","search_id":"","source_from":"","source_platform":0,"team_id":"","text_id":"","tone_category_id":"","tone_category_name":"","tone_effect_id":"","tone_effect_name":"","tone_platform":"","tone_second_category_id":"","tone_second_category_name":"","tone_speaker":"","tone_type":"","type":"extract_music","video_id":"","wave_points":[]},{"app_id":0,"category_id":"","category_name":"local","check_flag":1,"copyright_limit_type":"none","duration":21466666,"effect_id":"","formula_id":"","id":"C189EC1B-18A1-407c-AB41-2E0B2FDF9A81","intensifies_path":"","is_ai_clone_tone":false,"is_text_edit_overdub":false,"is_ugc":false,"local_material_id":"09aea328-baa0-44ed-bb46-a0f4a760948e","music_id":"c426a7e1-67f6-4ec5-850b-41943d1d7acd","name":"ElevenLabs_2024-04-27T20_54_11_Brian_pre_s50_sb75_se0_b_m2.mp3","path":"##_draftpath_placeholder_0E685133-18CE-45ED-8CB8-2904A212EC80_##/Resources/local/23a1b246527dca18d9a2fe09406e0eee.mp3","query":"","request_id":"","resource_id":"","search_id":"","source_from":"","source_platform":0,"team_id":"","text_id":"","tone_category_id":"","tone_category_name":"","tone_effect_id":"","tone_effect_name":"","tone_platform":"","tone_second_category_id":"","tone_second_category_name":"","tone_speaker":"","tone_type":"","type":"extract_music","video_id":"","wave_points":[]},{"app_id":0,"category_id":"","category_name":"local","check_flag":1,"copyright_limit_type":"none","duration":21466666,"effect_id":"","formula_id":"","id":"F27AEC6C-CA74-467d-AC6D-5387D30F2950","intensifies_path":"","is_ai_clone_tone":false,"is_text_edit_overdub":false,"is_ugc":false,"local_material_id":"09aea328-baa0-44ed-bb46-a0f4a760948e","music_id":"c426a7e1-67f6-4ec5-850b-41943d1d7acd","name":"ElevenLabs_2024-04-27T20_54_11_Brian_pre_s50_sb75_se0_b_m2.mp3","path":"##_draftpath_placeholder_0E685133-18CE-45ED-8CB8-2904A212EC80_##/Resources/local/23a1b246527dca18d9a2fe09406e0eee.mp3","query":"","request_id":"","resource_id":"","search_id":"","source_from":"","source_platform":0,"team_id":"","text_id":"","tone_category_id":"","tone_category_name":"","tone_effect_id":"","tone_effect_name":"","tone_platform":"","tone_second_category_id":"","tone_second_category_name":"","tone_speaker":"","tone_type":"","type":"extract_music","video_id":"","wave_points":[]},{"app_id":0,"category_id":"","category_name":"local","check_flag":1,"copyright_limit_type":"none","duration":16133333,"effect_id":"","formula_id":"","id":"23F3A53E-EF98-45bc-A78D-CD34429CFBA2","intensifies_path":"","is_ai_clone_tone":false,"is_text_edit_overdub":false,"is_ugc":false,"local_material_id":"9d4bceee-5ce8-40e0-9a9e-329e6bd9c5d0","music_id":"15ad8575-2c48-4e47-acfb-aab36fd126db","name":"ElevenLabs_2024-04-27T21_02_20_Brian_pre_s50_sb75_se0_b_m2.mp3","path":"##_draftpath_placeholder_0E685133-18CE-45ED-8CB8-2904A212EC80_##/Resources/local/29b8245567bb09dc8cbd8440ee15193a.mp3","query":"","request_id":"","resource_id":"","search_id":"","source_from":"","source_platform":0,"team_id":"","text_id":"","tone_category_id":"","tone_category_name":"","tone_effect_id":"","tone_effect_name":"","tone_platform":"","tone_second_category_id":"","tone_second_category_name":"","tone_speaker":"","tone_type":"","type":"extract_music","video_id":"","wave_points":[]},{"app_id":0,"category_id":"","category_name":"local","check_flag":1,"copyright_limit_type":"none","duration":11666666,"effect_id":"","formula_id":"","id":"9A392D64-8B61-4838-8C4F-2E428F175124","intensifies_path":"","is_ai_clone_tone":false,"is_text_edit_overdub":false,"is_ugc":false,"local_material_id":"2935310c-8ddf-402e-a88a-71543924246f","music_id":"c0ac9386-f345-4bd4-8e91-d08e7cffd9f9","name":"ElevenLabs_2024-04-27T21_03_54_Brian_pre_s50_sb75_se0_b_m2.mp3","path":"##_draftpath_placeholder_0E685133-18CE-45ED-8CB8-2904A212EC80_##/Resources/local/bc711d26bcbdae3aeef353d17ea3e8de.mp3","query":"","request_id":"","resource_id":"","search_id":"","source_from":"","source_platform":0,"team_id":"","text_id":"","tone_category_id":"","tone_category_name":"","tone_effect_id":"","tone_effect_name":"","tone_platform":"","tone_second_category_id":"","tone_second_category_name":"","tone_speaker":"","tone_type":"","type":"extract_music","video_id":"","wave_points":[]},{"app_id":0,"category_id":"","category_name":"local","check_flag":1,"copyright_limit_type":"none","duration":14366666,"effect_id":"","formula_id":"","id":"EB5614EC-0C38-4450-90AB-40E6678E65A6","intensifies_path":"","is_ai_clone_tone":false,"is_text_edit_overdub":false,"is_ugc":false,"local_material_id":"6b7c52b3-6f14-4fbb-945d-0e86d7b60958","music_id":"eb8dad23-56c1-4b84-aa90-ec15418b35f3","name":"ElevenLabs_2024-04-27T21_05_07_Brian_pre_s50_sb75_se0_b_m2.mp3","path":"##_draftpath_placeholder_0E685133-18CE-45ED-8CB8-2904A212EC80_##/Resources/local/8f5923a997a74a6d715e0bc8bb59b3a0.mp3","query":"","request_id":"","resource_id":"","search_id":"","source_from":"","source_platform":0,"team_id":"","text_id":"","tone_category_id":"","tone_category_name":"","tone_effect_id":"","tone_effect_name":"","tone_platform":"","tone_second_category_id":"","tone_second_category_name":"","tone_speaker":"","tone_type":"","type":"extract_music","video_id":"","wave_points":[]},{"app_id":0,"category_id":"","category_name":"local","check_flag":1,"copyright_limit_type":"none","duration":6766666,"effect_id":"","formula_id":"","id":"92539381-CA37-47ba-AA45-7EC6D77C53F1","intensifies_path":"","is_ai_clone_tone":false,"is_text_edit_overdub":false,"is_ugc":false,"local_material_id":"339e91dd-e4a0-471f-afcb-eea876e8b627","music_id":"26bf2c69-7351-46e6-9704-be0af1885856","name":"ElevenLabs_2024-04-27T21_09_03_Brian_pre_s50_sb75_se0_b_m2.mp3","path":"##_draftpath_placeholder_0E685133-18CE-45ED-8CB8-2904A212EC80_##/Resources/local/a7bfc184a6e6804bedaa2fd9ee5c07f1.mp3","query":"","request_id":"","resource_id":"","search_id":"","source_from":"","source_platform":0,"team_id":"","text_id":"","tone_category_id":"","tone_category_name":"","tone_effect_id":"","tone_effect_name":"","tone_platform":"","tone_second_category_id":"","tone_second_category_name":"","tone_speaker":"","tone_type":"","type":"extract_music","video_id":"","wave_points":[]},{"app_id":0,"category_id":"","category_name":"local","check_flag":1,"copyright_limit_type":"none","duration":8233333,"effect_id":"","formula_id":"","id":"7772B960-7CE8-44b9-B2C4-4A593FB95FB3","intensifies_path":"","is_ai_clone_tone":false,"is_text_edit_overdub":false,"is_ugc":false,"local_material_id":"149b9922-44ec-4dbb-b118-6169a3fa7bc1","music_id":"5d92a3eb-a417-412c-9fe5-5832f020f330","name":"ElevenLabs_2024-04-27T21_10_10_Brian_pre_s50_sb75_se0_b_m2.mp3","path":"##_draftpath_placeholder_0E685133-18CE-45ED-8CB8-2904A212EC80_##/Resources/local/366ae61b576165f09a5e7c23e80bf097.mp3","query":"","request_id":"","resource_id":"","search_id":"","source_from":"","source_platform":0,"team_id":"","text_id":"","tone_category_id":"","tone_category_name":"","tone_effect_id":"","tone_effect_name":"","tone_platform":"","tone_second_category_id":"","tone_second_category_name":"","tone_speaker":"","tone_type":"","type":"extract_music","video_id":"","wave_points":[]},{"app_id":0,"category_id":"","category_name":"local","check_flag":1,"copyright_limit_type":"none","duration":6966666,"effect_id":"","formula_id":"","id":"4A851502-4424-496b-A233-C5EA68BEEED0","intensifies_path":"","is_ai_clone_tone":false,"is_text_edit_overdub":false,"is_ugc":false,"local_material_id":"209d57f5-5417-4dcc-b1f5-5483abbed087","music_id":"1610d3f2-5dc6-4596-80ff-61c2bc3bd78e","name":"ElevenLabs_2024-04-27T21_11_27_Brian_pre_s50_sb75_se0_b_m2.mp3","path":"##_draftpath_placeholder_0E685133-18CE-45ED-8CB8-2904A212EC80_##/Resources/local/0e11b201237ae28c1d0ca8ad1fbc4a41.mp3","query":"","request_id":"","resource_id":"","search_id":"","source_from":"","source_platform":0,"team_id":"","text_id":"","tone_category_id":"","tone_category_name":"","tone_effect_id":"","tone_effect_name":"","tone_platform":"","tone_second_category_id":"","tone_second_category_name":"","tone_speaker":"","tone_type":"","type":"extract_music","video_id":"","wave_points":[]},{"app_id":0,"category_id":"","category_name":"local","check_flag":1,"copyright_limit_type":"none","duration":8600000,"effect_id":"","formula_id":"","id":"AD1B9046-083D-40a3-99B2-85D54A8C8E73","intensifies_path":"","is_ai_clone_tone":false,"is_text_edit_overdub":false,"is_ugc":false,"local_material_id":"f2e16fe5-b5d4-411e-a13c-b0b044d41b99","music_id":"97ba6cf9-f865-4ba0-99fe-4250ab118283","name":"ElevenLabs_2024-04-27T21_12_30_Brian_pre_s50_sb75_se0_b_m2.mp3","path":"##_draftpath_placeholder_0E685133-18CE-45ED-8CB8-2904A212EC80_##/Resources/local/fb0a4baec13ad80b18b15fe63d1d071b.mp3","query":"","request_id":"","resource_id":"","search_id":"","source_from":"","source_platform":0,"team_id":"","text_id":"","tone_category_id":"","tone_category_name":"","tone_effect_id":"","tone_effect_name":"","tone_platform":"","tone_second_category_id":"","tone_second_category_name":"","tone_speaker":"","tone_type":"","type":"extract_music","video_id":"","wave_points":[]},{"app_id":0,"category_id":"","category_name":"local","check_flag":1,"copyright_limit_type":"none","duration":8933333,"effect_id":"","formula_id":"","id":"4568F8DB-AE3B-4687-AD2C-41B9A0FF3E14","intensifies_path":"","is_ai_clone_tone":false,"is_text_edit_overdub":false,"is_ugc":false,"local_material_id":"d2c3945e-c5bd-4534-a0e2-fbc90216e2a4","music_id":"386ab42f-92bb-4d72-a272-7e625cc58ad4","name":"ElevenLabs_2024-04-27T23_49_56_Brian_pre_s50_sb75_se0_b_m2.mp3","path":"##_draftpath_placeholder_0E685133-18CE-45ED-8CB8-2904A212EC80_##/Resources/local/4aae9db6698717f03502798dd2baf185.mp3","query":"","request_id":"","resource_id":"","search_id":"","source_from":"","source_platform":0,"team_id":"","text_id":"","tone_category_id":"","tone_category_name":"","tone_effect_id":"","tone_effect_name":"","tone_platform":"","tone_second_category_id":"","tone_second_category_name":"","tone_speaker":"","tone_type":"","type":"extract_music","video_id":"","wave_points":[]},{"app_id":0,"category_id":"","category_name":"local","check_flag":1,"copyright_limit_type":"none","duration":11233333,"effect_id":"","formula_id":"","id":"8228280A-7082-4f0f-B28F-49C08F114205","intensifies_path":"","is_ai_clone_tone":false,"is_text_edit_overdub":false,"is_ugc":false,"local_material_id":"859e5519-4c10-4e46-81c7-989d386e738d","music_id":"7548aa0d-efd0-43a3-a0f1-adf1beb74ca6","name":"ElevenLabs_2024-04-27T23_52_07_Brian_pre_s50_sb75_se0_b_m2.mp3","path":"##_draftpath_placeholder_0E685133-18CE-45ED-8CB8-2904A212EC80_##/Resources/local/5368655c478d56b2854d936484bafb8e.mp3","query":"","request_id":"","resource_id":"","search_id":"","source_from":"","source_platform":0,"team_id":"","text_id":"","tone_category_id":"","tone_category_name":"","tone_effect_id":"","tone_effect_name":"","tone_platform":"","tone_second_category_id":"","tone_second_category_name":"","tone_speaker":"","tone_type":"","type":"extract_music","video_id":"","wave_points":[]},{"app_id":0,"category_id":"","category_name":"local","check_flag":1,"copyright_limit_type":"none","duration":6300000,"effect_id":"","formula_id":"","id":"4E97D9E0-50E0-4ede-9101-F0EA4915D589","intensifies_path":"","is_ai_clone_tone":false,"is_text_edit_overdub":false,"is_ugc":false,"local_material_id":"b0d095d8-56c5-4722-9f0d-47cba091ac4f","music_id":"c8091cca-9723-4743-be0b-0b066d5acd84","name":"ElevenLabs_2024-04-27T23_53_41_Brian_pre_s50_sb75_se0_b_m2.mp3","path":"##_draftpath_placeholder_0E685133-18CE-45ED-8CB8-2904A212EC80_##/Resources/local/82acefb3e4d60834cf3254c546f2bb43.mp3","query":"","request_id":"","resource_id":"","search_id":"","source_from":"","source_platform":0,"team_id":"","text_id":"","tone_category_id":"","tone_category_name":"","tone_effect_id":"","tone_effect_name":"","tone_platform":"","tone_second_category_id":"","tone_second_category_name":"","tone_speaker":"","tone_type":"","type":"extract_music","video_id":"","wave_points":[]},{"app_id":0,"category_id":"","category_name":"local","check_flag":1,"copyright_limit_type":"none","duration":21233333,"effect_id":"","formula_id":"","id":"A5B8FC67-4257-4dc8-A3F2-ABE412DE2BE6","intensifies_path":"","is_ai_clone_tone":false,"is_text_edit_overdub":false,"is_ugc":false,"local_material_id":"8142b757-61ed-44ea-8aed-e2995e53a564","music_id":"462a4178-676c-4479-b9f8-e62077a9425c","name":"ElevenLabs_2024-04-27T23_57_32_Brian_pre_s50_sb75_se0_b_m2.mp3","path":"##_draftpath_placeholder_0E685133-18CE-45ED-8CB8-2904A212EC80_##/Resources/local/52c7f16697ee47171786148de4140b13.mp3","query":"","request_id":"","resource_id":"","search_id":"","source_from":"","source_platform":0,"team_id":"","text_id":"","tone_category_id":"","tone_category_name":"","tone_effect_id":"","tone_effect_name":"","tone_platform":"","tone_second_category_id":"","tone_second_category_name":"","tone_speaker":"","tone_type":"","type":"extract_music","video_id":"","wave_points":[]},{"app_id":0,"category_id":"","category_name":"local","check_flag":1,"copyright_limit_type":"none","duration":3200000,"effect_id":"","formula_id":"","id":"FDA3C57D-DCD1-4d7d-B711-708E7F2F60AA","intensifies_path":"","is_ai_clone_tone":false,"is_text_edit_overdub":false,"is_ugc":false,"local_material_id":"269fadf5-d2d4-45e8-adfe-066ffa08d2cd","music_id":"c89c91f4-3f65-4c3c-8c47-ba0761644019","name":"ElevenLabs_2024-04-28T00_01_18_Brian_pre_s50_sb75_se0_b_m2.mp3","path":"##_draftpath_placeholder_0E685133-18CE-45ED-8CB8-2904A212EC80_##/Resources/local/a9cca45a35fc47ccf69aadd6cac7ca8d.mp3","query":"","request_id":"","resource_id":"","search_id":"","source_from":"","source_platform":0,"team_id":"","text_id":"","tone_category_id":"","tone_category_name":"","tone_effect_id":"","tone_effect_name":"","tone_platform":"","tone_second_category_id":"","tone_second_category_name":"","tone_speaker":"","tone_type":"","type":"extract_music","video_id":"","wave_points":[]},{"app_id":0,"category_id":"","category_name":"local","check_flag":1,"copyright_limit_type":"none","duration":17166666,"effect_id":"","formula_id":"","id":"1138D097-6F3F-402b-931D-CF66AC8D57AA","intensifies_path":"","is_ai_clone_tone":false,"is_text_edit_overdub":false,"is_ugc":false,"local_material_id":"6a912c16-934a-4802-a383-71dcda44d9a5","music_id":"6ed4558f-4077-42bb-a460-f114e75ec009","name":"ElevenLabs_2024-04-28T00_04_02_Brian_pre_s50_sb75_se0_b_m2.mp3","path":"##_draftpath_placeholder_0E685133-18CE-45ED-8CB8-2904A212EC80_##/Resources/local/ddfc018ff214166e0351aaaec07e4059.mp3","query":"","request_id":"","resource_id":"","search_id":"","source_from":"","source_platform":0,"team_id":"","text_id":"","tone_category_id":"","tone_category_name":"","tone_effect_id":"","tone_effect_name":"","tone_platform":"","tone_second_category_id":"","tone_second_category_name":"","tone_speaker":"","tone_type":"","type":"extract_music","video_id":"","wave_points":[]},{"app_id":0,"category_id":"","category_name":"local","check_flag":1,"copyright_limit_type":"none","duration":5333333,"effect_id":"","formula_id":"","id":"703CBDF4-10E0-438e-BF97-31F93117EA40","intensifies_path":"","is_ai_clone_tone":false,"is_text_edit_overdub":false,"is_ugc":false,"local_material_id":"eaabe358-09e4-4b59-af23-b21f573ee421","music_id":"af9beffc-cd82-4997-bcf1-7f417ca0efde","name":"ElevenLabs_2024-04-28T00_07_18_Brian_pre_s50_sb75_se0_b_m2.mp3","path":"##_draftpath_placeholder_0E685133-18CE-45ED-8CB8-2904A212EC80_##/Resources/local/3a4906b6177c70b6b9143cdff7dcdc12.mp3","query":"","request_id":"","resource_id":"","search_id":"","source_from":"","source_platform":0,"team_id":"","text_id":"","tone_category_id":"","tone_category_name":"","tone_effect_id":"","tone_effect_name":"","tone_platform":"","tone_second_category_id":"","tone_second_category_name":"","tone_speaker":"","tone_type":"","type":"extract_music","video_id":"","wave_points":[]},{"app_id":0,"category_id":"","category_name":"local","check_flag":1,"copyright_limit_type":"none","duration":16800000,"effect_id":"","formula_id":"","id":"78090A6E-CED1-45ae-8215-344D52E9C1D9","intensifies_path":"","is_ai_clone_tone":false,"is_text_edit_overdub":false,"is_ugc":false,"local_material_id":"49ef7570-a94e-4e3d-9987-4e005ac017c6","music_id":"51d459fb-82ba-48b2-ae3d-18603901ac7e","name":"ElevenLabs_2024-04-28T00_14_25_Brian_pre_s50_sb75_se0_b_m2.mp3","path":"##_draftpath_placeholder_0E685133-18CE-45ED-8CB8-2904A212EC80_##/Resources/local/b7e65e374f9a8d23209660f595aa2fef.mp3","query":"","request_id":"","resource_id":"","search_id":"","source_from":"","source_platform":0,"team_id":"","text_id":"","tone_category_id":"","tone_category_name":"","tone_effect_id":"","tone_effect_name":"","tone_platform":"","tone_second_category_id":"","tone_second_category_name":"","tone_speaker":"","tone_type":"","type":"extract_music","video_id":"","wave_points":[]},{"app_id":0,"category_id":"","category_name":"local","check_flag":1,"copyright_limit_type":"none","duration":16433333,"effect_id":"","formula_id":"","id":"BEFE7B2B-CEA0-4b49-A18C-56B1A274B27C","intensifies_path":"","is_ai_clone_tone":false,"is_text_edit_overdub":false,"is_ugc":false,"local_material_id":"a295240a-f9cd-4179-8d2c-155868d378a3","music_id":"1cf27002-00f7-4e9b-8946-21435837aee6","name":"ElevenLabs_2024-04-28T00_18_04_Brian_pre_s50_sb75_se0_b_m2.mp3","path":"##_draftpath_placeholder_0E685133-18CE-45ED-8CB8-2904A212EC80_##/Resources/local/3f06a6db7ce2e2a1bc666ad556a44d2a.mp3","query":"","request_id":"","resource_id":"","search_id":"","source_from":"","source_platform":0,"team_id":"","text_id":"","tone_category_id":"","tone_category_name":"","tone_effect_id":"","tone_effect_name":"","tone_platform":"","tone_second_category_id":"","tone_second_category_name":"","tone_speaker":"","tone_type":"","type":"extract_music","video_id":"","wave_points":[]},{"app_id":0,"category_id":"","category_name":"local","check_flag":1,"copyright_limit_type":"none","duration":10500000,"effect_id":"","formula_id":"","id":"057E6FC0-3CD3-4d15-9FA8-B4B74E4E5064","intensifies_path":"","is_ai_clone_tone":false,"is_text_edit_overdub":false,"is_ugc":false,"local_material_id":"6078618c-420c-4f65-8472-c822a0d92429","music_id":"9cb6eae1-0037-444c-baca-080986f5f35f","name":"ElevenLabs_2024-04-28T00_19_43_Brian_pre_s50_sb75_se0_b_m2.mp3","path":"##_draftpath_placeholder_0E685133-18CE-45ED-8CB8-2904A212EC80_##/Resources/local/14f675a4d7b953d1e645c8d3b547c97c.mp3","query":"","request_id":"","resource_id":"","search_id":"","source_from":"","source_platform":0,"team_id":"","text_id":"","tone_category_id":"","tone_category_name":"","tone_effect_id":"","tone_effect_name":"","tone_platform":"","tone_second_category_id":"","tone_second_category_name":"","tone_speaker":"","tone_type":"","type":"extract_music","video_id":"","wave_points":[]}],"beats":[{"ai_beats":{"beat_speed_infos":[],"beats_path":"","beats_url":"","melody_path":"","melody_percents":[0.0],"melody_url":""},"enable_ai_beats":false,"gear":404,"gear_count":0,"id":"ED9688C1-C8BA-4112-9701-96F61BA52F3E","mode":404,"type":"beats","user_beats":[],"user_delete_ai_beats":null},{"ai_beats":{"beat_speed_infos":[],"beats_path":"","beats_url":"","melody_path":"","melody_percents":[0.0],"melody_url":""},"enable_ai_beats":false,"gear":404,"gear_count":0,"id":"F179FACA-A18F-4c77-A976-82BAF89D39D1","mode":404,"type":"beats","user_beats":[],"user_delete_ai_beats":null},{"ai_beats":{"beat_speed_infos":[],"beats_path":"","beats_url":"","melody_path":"","melody_percents":[0.0],"melody_url":""},"enable_ai_beats":false,"gear":404,"gear_count":0,"id":"361BF979-25D5-4d00-AC5C-F09D8524208E","mode":404,"type":"beats","user_beats":[],"user_delete_ai_beats":null},{"ai_beats":{"beat_speed_infos":[],"beats_path":"","beats_url":"","melody_path":"","melody_percents":[0.0],"melody_url":""},"enable_ai_beats":false,"gear":404,"gear_count":0,"id":"E795F5EA-1644-458b-A4ED-D27F78B17BA7","mode":404,"type":"beats","user_beats":[],"user_delete_ai_beats":null},{"ai_beats":{"beat_speed_infos":[],"beats_path":"","beats_url":"","melody_path":"","melody_percents":[0.0],"melody_url":""},"enable_ai_beats":false,"gear":404,"gear_count":0,"id":"AC702E30-B828-4f4e-B067-242716034B2B","mode":404,"type":"beats","user_beats":[],"user_delete_ai_beats":null},{"ai_beats":{"beat_speed_infos":[],"beats_path":"","beats_url":"","melody_path":"","melody_percents":[0.0],"melody_url":""},"enable_ai_beats":false,"gear":404,"gear_count":0,"id":"4A9D8CD7-BF96-454f-A339-5CEA6311CE69","mode":404,"type":"beats","user_beats":[],"user_delete_ai_beats":null},{"ai_beats":{"beat_speed_infos":[],"beats_path":"","beats_url":"","melody_path":"","melody_percents":[0.0],"melody_url":""},"enable_ai_beats":false,"gear":404,"gear_count":0,"id":"8602C4F6-C85A-4014-A0DA-ACF92B96B4F7","mode":404,"type":"beats","user_beats":[],"user_delete_ai_beats":null},{"ai_beats":{"beat_speed_infos":[],"beats_path":"","beats_url":"","melody_path":"","melody_percents":[0.0],"melody_url":""},"enable_ai_beats":false,"gear":404,"gear_count":0,"id":"EAD5B5B4-3069-4852-9ABB-053130070700","mode":404,"type":"beats","user_beats":[],"user_delete_ai_beats":null},{"ai_beats":{"beat_speed_infos":[],"beats_path":"","beats_url":"","melody_path":"","melody_percents":[0.0],"melody_url":""},"enable_ai_beats":false,"gear":404,"gear_count":0,"id":"67013C74-25AF-434c-BFA6-DB11A8EF9B90","mode":404,"type":"beats","user_beats":[],"user_delete_ai_beats":null},{"ai_beats":{"beat_speed_infos":[],"beats_path":"","beats_url":"","melody_path":"","melody_percents":[0.0],"melody_url":""},"enable_ai_beats":false,"gear":404,"gear_count":0,"id":"03095728-5E94-4459-973E-4F8E287A8D34","mode":404,"type":"beats","user_beats":[],"user_delete_ai_beats":null},{"ai_beats":{"beat_speed_infos":[],"beats_path":"","beats_url":"","melody_path":"","melody_percents":[0.0],"melody_url":""},"enable_ai_beats":false,"gear":404,"gear_count":0,"id":"14BC79C3-24DE-4b1a-A268-E93EF7C5A284","mode":404,"type":"beats","user_beats":[],"user_delete_ai_beats":null},{"ai_beats":{"beat_speed_infos":[],"beats_path":"","beats_url":"","melody_path":"","melody_percents":[0.0],"melody_url":""},"enable_ai_beats":false,"gear":404,"gear_count":0,"id":"C474EF82-2DFC-4e01-A8CB-DC676480CD2F","mode":404,"type":"beats","user_beats":[],"user_delete_ai_beats":null},{"ai_beats":{"beat_speed_infos":[],"beats_path":"","beats_url":"","melody_path":"","melody_percents":[0.0],"melody_url":""},"enable_ai_beats":false,"gear":404,"gear_count":0,"id":"D14425DB-6B42-4666-854D-A3A5D6E09B48","mode":404,"type":"beats","user_beats":[],"user_delete_ai_beats":null},{"ai_beats":{"beat_speed_infos":[],"beats_path":"","beats_url":"","melody_path":"","melody_percents":[0.0],"melody_url":""},"enable_ai_beats":false,"gear":404,"gear_count":0,"id":"CEC2576B-6C2A-477c-B7BB-9009B7933014","mode":404,"type":"beats","user_beats":[],"user_delete_ai_beats":null},{"ai_beats":{"beat_speed_infos":[],"beats_path":"","beats_url":"","melody_path":"","melody_percents":[0.0],"melody_url":""},"enable_ai_beats":false,"gear":404,"gear_count":0,"id":"648E1976-F99F-4d89-B74A-168EB48531F7","mode":404,"type":"beats","user_beats":[],"user_delete_ai_beats":null},{"ai_beats":{"beat_speed_infos":[],"beats_path":"","beats_url":"","melody_path":"","melody_percents":[0.0],"melody_url":""},"enable_ai_beats":false,"gear":404,"gear_count":0,"id":"3AC32900-64D8-43f0-910F-44057ED9AF86","mode":404,"type":"beats","user_beats":[],"user_delete_ai_beats":null},{"ai_beats":{"beat_speed_infos":[],"beats_path":"","beats_url":"","melody_path":"","melody_percents":[0.0],"melody_url":""},"enable_ai_beats":false,"gear":404,"gear_count":0,"id":"DCE003A8-8BC2-46ff-B643-F9DD28EC24F6","mode":404,"type":"beats","user_beats":[],"user_delete_ai_beats":null},{"ai_beats":{"beat_speed_infos":[],"beats_path":"","beats_url":"","melody_path":"","melody_percents":[0.0],"melody_url":""},"enable_ai_beats":false,"gear":404,"gear_count":0,"id":"575D39DF-2804-46b6-A8F1-F6072611384F","mode":404,"type":"beats","user_beats":[],"user_delete_ai_beats":null},{"ai_beats":{"beat_speed_infos":[],"beats_path":"","beats_url":"","melody_path":"","melody_percents":[0.0],"melody_url":""},"enable_ai_beats":false,"gear":404,"gear_count":0,"id":"F3D66099-871E-45f5-8B5B-CA14F49370C9","mode":404,"type":"beats","user_beats":[],"user_delete_ai_beats":null},{"ai_beats":{"beat_speed_infos":[],"beats_path":"","beats_url":"","melody_path":"","melody_percents":[0.0],"melody_url":""},"enable_ai_beats":false,"gear":404,"gear_count":0,"id":"AA68AEF7-303E-4195-9E0E-6E9422D7A04E","mode":404,"type":"beats","user_beats":[],"user_delete_ai_beats":null},{"ai_beats":{"beat_speed_infos":[],"beats_path":"","beats_url":"","melody_path":"","melody_percents":[0.0],"melody_url":""},"enable_ai_beats":false,"gear":404,"gear_count":0,"id":"42007A04-67F8-4615-9C13-F36F87DEA0D0","mode":404,"type":"beats","user_beats":[],"user_delete_ai_beats":null},{"ai_beats":{"beat_speed_infos":[],"beats_path":"","beats_url":"","melody_path":"","melody_percents":[0.0],"melody_url":""},"enable_ai_beats":false,"gear":404,"gear_count":0,"id":"1097266C-7FA5-43e6-8465-55320BDB49E3","mode":404,"type":"beats","user_beats":[],"user_delete_ai_beats":null},{"ai_beats":{"beat_speed_infos":[],"beats_path":"","beats_url":"","melody_path":"","melody_percents":[0.0],"melody_url":""},"enable_ai_beats":false,"gear":404,"gear_count":0,"id":"0ADFAE94-C2C3-4c6a-A294-652671AC45AD","mode":404,"type":"beats","user_beats":[],"user_delete_ai_beats":null},{"ai_beats":{"beat_speed_infos":[],"beats_path":"","beats_url":"","melody_path":"","melody_percents":[0.0],"melody_url":""},"enable_ai_beats":false,"gear":404,"gear_count":0,"id":"0147191B-A1F7-4bc9-ACC5-06BD24E441E7","mode":404,"type":"beats","user_beats":[],"user_delete_ai_beats":null},{"ai_beats":{"beat_speed_infos":[],"beats_path":"","beats_url":"","melody_path":"","melody_percents":[0.0],"melody_url":""},"enable_ai_beats":false,"gear":404,"gear_count":0,"id":"F959C137-30A3-4308-8B4B-B41D794BBC39","mode":404,"type":"beats","user_beats":[],"user_delete_ai_beats":null},{"ai_beats":{"beat_speed_infos":[],"beats_path":"","beats_url":"","melody_path":"","melody_percents":[0.0],"melody_url":""},"enable_ai_beats":false,"gear":404,"gear_count":0,"id":"B57CF21A-BA84-4a8d-8D26-6573098FA25D","mode":404,"type":"beats","user_beats":[],"user_delete_ai_beats":null},{"ai_beats":{"beat_speed_infos":[],"beats_path":"","beats_url":"","melody_path":"","melody_percents":[0.0],"melody_url":""},"enable_ai_beats":false,"gear":404,"gear_count":0,"id":"93805494-3157-4ffc-AB8F-4E5681BB99F0","mode":404,"type":"beats","user_beats":[],"user_delete_ai_beats":null},{"ai_beats":{"beat_speed_infos":[],"beats_path":"","beats_url":"","melody_path":"","melody_percents":[0.0],"melody_url":""},"enable_ai_beats":false,"gear":404,"gear_count":0,"id":"0CDE6419-22C5-49c8-8B06-CB792526BEE6","mode":404,"type":"beats","user_beats":[],"user_delete_ai_beats":null},{"ai_beats":{"beat_speed_infos":[],"beats_path":"","beats_url":"","melody_path":"","melody_percents":[0.0],"melody_url":""},"enable_ai_beats":false,"gear":404,"gear_count":0,"id":"BE8EC09F-7EC1-4a1e-B14C-52FC97704980","mode":404,"type":"beats","user_beats":[],"user_delete_ai_beats":null},{"ai_beats":{"beat_speed_infos":[],"beats_path":"","beats_url":"","melody_path":"","melody_percents":[0.0],"melody_url":""},"enable_ai_beats":false,"gear":404,"gear_count":0,"id":"0607305D-86B1-4549-B37E-5F84F3003809","mode":404,"type":"beats","user_beats":[],"user_delete_ai_beats":null},{"ai_beats":{"beat_speed_infos":[],"beats_path":"","beats_url":"","melody_path":"","melody_percents":[0.0],"melody_url":""},"enable_ai_beats":false,"gear":404,"gear_count":0,"id":"B74CCDC1-26FA-4acc-8C80-973537924E7E","mode":404,"type":"beats","user_beats":[],"user_delete_ai_beats":null},{"ai_beats":{"beat_speed_infos":[],"beats_path":"","beats_url":"","melody_path":"","melody_percents":[0.0],"melody_url":""},"enable_ai_beats":false,"gear":404,"gear_count":0,"id":"ED065F1D-5371-475b-8CCD-C5578694DE9E","mode":404,"type":"beats","user_beats":[],"user_delete_ai_beats":null},{"ai_beats":{"beat_speed_infos":[],"beats_path":"","beats_url":"","melody_path":"","melody_percents":[0.0],"melody_url":""},"enable_ai_beats":false,"gear":404,"gear_count":0,"id":"ADD078F3-8C26-45cd-ACD8-065DA64D7C35","mode":404,"type":"beats","user_beats":[],"user_delete_ai_beats":null},{"ai_beats":{"beat_speed_infos":[],"beats_path":"","beats_url":"","melody_path":"","melody_percents":[0.0],"melody_url":""},"enable_ai_beats":false,"gear":404,"gear_count":0,"id":"18B96FF2-2C3D-470b-AC55-7A4406AEEC39","mode":404,"type":"beats","user_beats":[],"user_delete_ai_beats":null},{"ai_beats":{"beat_speed_infos":[],"beats_path":"","beats_url":"","melody_path":"","melody_percents":[0.0],"melody_url":""},"enable_ai_beats":false,"gear":404,"gear_count":0,"id":"F9AD64B5-F8B2-419e-8B37-0AB754649470","mode":404,"type":"beats","user_beats":[],"user_delete_ai_beats":null},{"ai_beats":{"beat_speed_infos":[],"beats_path":"","beats_url":"","melody_path":"","melody_percents":[0.0],"melody_url":""},"enable_ai_beats":false,"gear":404,"gear_count":0,"id":"C402D2EF-F860-4fae-9A5B-84B24FA72276","mode":404,"type":"beats","user_beats":[],"user_delete_ai_beats":null},{"ai_beats":{"beat_speed_infos":[],"beats_path":"","beats_url":"","melody_path":"","melody_percents":[0.0],"melody_url":""},"enable_ai_beats":false,"gear":404,"gear_count":0,"id":"C1549479-C473-4760-A17E-9276E3C3DD60","mode":404,"type":"beats","user_beats":[],"user_delete_ai_beats":null},{"ai_beats":{"beat_speed_infos":[],"beats_path":"","beats_url":"","melody_path":"","melody_percents":[0.0],"melody_url":""},"enable_ai_beats":false,"gear":404,"gear_count":0,"id":"3F53CB47-787E-4dd8-B895-4D18DB6F0E03","mode":404,"type":"beats","user_beats":[],"user_delete_ai_beats":null},{"ai_beats":{"beat_speed_infos":[],"beats_path":"","beats_url":"","melody_path":"","melody_percents":[0.0],"melody_url":""},"enable_ai_beats":false,"gear":404,"gear_count":0,"id":"2CA2D613-0350-4fe6-B3E3-CD1AADDC758B","mode":404,"type":"beats","user_beats":[],"user_delete_ai_beats":null},{"ai_beats":{"beat_speed_infos":[],"beats_path":"","beats_url":"","melody_path":"","melody_percents":[0.0],"melody_url":""},"enable_ai_beats":false,"gear":404,"gear_count":0,"id":"E7C8F229-F3A8-4274-9C61-FCB5A73BFAF7","mode":404,"type":"beats","user_beats":[],"user_delete_ai_beats":null},{"ai_beats":{"beat_speed_infos":[],"beats_path":"","beats_url":"","melody_path":"","melody_percents":[0.0],"melody_url":""},"enable_ai_beats":false,"gear":404,"gear_count":0,"id":"845A39C8-0E90-4940-8DBA-96D9D4F5DA24","mode":404,"type":"beats","user_beats":[],"user_delete_ai_beats":null},{"ai_beats":{"beat_speed_infos":[],"beats_path":"","beats_url":"","melody_path":"","melody_percents":[0.0],"melody_url":""},"enable_ai_beats":false,"gear":404,"gear_count":0,"id":"3B764E51-CD80-4a19-B257-1D0E378261D6","mode":404,"type":"beats","user_beats":[],"user_delete_ai_beats":null},{"ai_beats":{"beat_speed_infos":[],"beats_path":"","beats_url":"","melody_path":"","melody_percents":[0.0],"melody_url":""},"enable_ai_beats":false,"gear":404,"gear_count":0,"id":"0A545190-9CCB-4988-8A2E-07490F7274F5","mode":404,"type":"beats","user_beats":[],"user_delete_ai_beats":null},{"ai_beats":{"beat_speed_infos":[],"beats_path":"","beats_url":"","melody_path":"","melody_percents":[0.0],"melody_url":""},"enable_ai_beats":false,"gear":404,"gear_count":0,"id":"AC51F1E4-7D26-467d-BFAA-1E2501A5AEAD","mode":404,"type":"beats","user_beats":[],"user_delete_ai_beats":null},{"ai_beats":{"beat_speed_infos":[],"beats_path":"","beats_url":"","melody_path":"","melody_percents":[0.0],"melody_url":""},"enable_ai_beats":false,"gear":404,"gear_count":0,"id":"388E5D47-DE85-4818-9623-F845C3D72526","mode":404,"type":"beats","user_beats":[],"user_delete_ai_beats":null},{"ai_beats":{"beat_speed_infos":[],"beats_path":"","beats_url":"","melody_path":"","melody_percents":[0.0],"melody_url":""},"enable_ai_beats":false,"gear":404,"gear_count":0,"id":"0D12ED04-4CC8-4a9f-8E41-D6D70CC34196","mode":404,"type":"beats","user_beats":[],"user_delete_ai_beats":null},{"ai_beats":{"beat_speed_infos":[],"beats_path":"","beats_url":"","melody_path":"","melody_percents":[0.0],"melody_url":""},"enable_ai_beats":false,"gear":404,"gear_count":0,"id":"294B88FC-29B9-46cb-BF9A-69F69A27F13D","mode":404,"type":"beats","user_beats":[],"user_delete_ai_beats":null},{"ai_beats":{"beat_speed_infos":[],"beats_path":"","beats_url":"","melody_path":"","melody_percents":[0.0],"melody_url":""},"enable_ai_beats":false,"gear":404,"gear_count":0,"id":"ADDF1664-0201-4f3e-833D-6A2BF19CC091","mode":404,"type":"beats","user_beats":[],"user_delete_ai_beats":null},{"ai_beats":{"beat_speed_infos":[],"beats_path":"","beats_url":"","melody_path":"","melody_percents":[0.0],"melody_url":""},"enable_ai_beats":false,"gear":404,"gear_count":0,"id":"2477ECA4-8E49-4be2-8339-966221A8D3A5","mode":404,"type":"beats","user_beats":[],"user_delete_ai_beats":null},{"ai_beats":{"beat_speed_infos":[],"beats_path":"","beats_url":"","melody_path":"","melody_percents":[0.0],"melody_url":""},"enable_ai_beats":false,"gear":404,"gear_count":0,"id":"D2CA481B-1E8B-435c-929C-B653719030CB","mode":404,"type":"beats","user_beats":[],"user_delete_ai_beats":null}],"canvases":[{"album_image":"","blur":0.0,"color":"","id":"7932CAED-CF83-47ef-B559-6DA8C574F6AE","image":"","image_id":"","image_name":"","source_platform":0,"team_id":"","type":"canvas_color"},{"album_image":"","blur":0.0,"color":"","id":"23B50D08-F1CA-41ee-A322-0F72579CE501","image":"","image_id":"","image_name":"","source_platform":0,"team_id":"","type":"canvas_color"},{"album_image":"","blur":0.0,"color":"","id":"5B36B40E-4555-47b0-A915-7D1ECC0C1250","image":"","image_id":"","image_name":"","source_platform":0,"team_id":"","type":"canvas_color"},{"album_image":"","blur":0.0,"color":"","id":"417A6F4C-41C6-4d20-823B-3EFAA2ACF3A0","image":"","image_id":"","image_name":"","source_platform":0,"team_id":"","type":"canvas_color"},{"album_image":"","blur":0.0,"color":"","id":"03323706-CB61-46d0-B5FF-5C00CFC804FC","image":"","image_id":"","image_name":"","source_platform":0,"team_id":"","type":"canvas_color"},{"album_image":"","blur":0.0,"color":"","id":"9CE4036E-A00E-45a8-B8A1-B113DB04D2C0","image":"","image_id":"","image_name":"","source_platform":0,"team_id":"","type":"canvas_color"},{"album_image":"","blur":0.0,"color":"","id":"F862A9BB-3223-4793-9F34-14C1348B899F","image":"","image_id":"","image_name":"","source_platform":0,"team_id":"","type":"canvas_color"},{"album_image":"","blur":0.0,"color":"","id":"25BFF247-AF79-46e7-A2A1-638466C5E324","image":"","image_id":"","image_name":"","source_platform":0,"team_id":"","type":"canvas_color"},{"album_image":"","blur":0.0,"color":"","id":"597A234C-6ACE-42ca-8175-A89212D0824B","image":"","image_id":"","image_name":"","source_platform":0,"team_id":"","type":"canvas_color"},{"album_image":"","blur":0.0,"color":"","id":"02B261D9-EF4D-4325-B43B-048C0CEA498B","image":"","image_id":"","image_name":"","source_platform":0,"team_id":"","type":"canvas_color"},{"album_image":"","blur":0.0,"color":"","id":"07007475-43FB-4248-8DE8-03E9ABB8BDE6","image":"","image_id":"","image_name":"","source_platform":0,"team_id":"","type":"canvas_color"},{"album_image":"","blur":0.0,"color":"","id":"7D282DE9-75E8-4683-BD2D-7BE9551DF5E8","image":"","image_id":"","image_name":"","source_platform":0,"team_id":"","type":"canvas_color"},{"album_image":"","blur":0.0,"color":"","id":"B0986BEE-24ED-49aa-9917-26E2BEF83586","image":"","image_id":"","image_name":"","source_platform":0,"team_id":"","type":"canvas_color"},{"album_image":"","blur":0.0,"color":"","id":"50CA8C3D-CCE5-47c6-9F56-558B12264372","image":"","image_id":"","image_name":"","source_platform":0,"team_id":"","type":"canvas_color"},{"album_image":"","blur":0.0,"color":"","id":"2E7C0E41-3283-461c-AFC8-DF84ADABC740","image":"","image_id":"","image_name":"","source_platform":0,"team_id":"","type":"canvas_color"},{"album_image":"","blur":0.0,"color":"","id":"E6054F32-CF1F-4368-BAB2-CFC37D27A3F0","image":"","image_id":"","image_name":"","source_platform":0,"team_id":"","type":"canvas_color"},{"album_image":"","blur":0.0,"color":"","id":"89505C13-B9F3-42a2-99A1-1A4D4635768D","image":"","image_id":"","image_name":"","source_platform":0,"team_id":"","type":"canvas_color"},{"album_image":"","blur":0.0,"color":"","id":"26DD70D9-41BD-4982-ACE4-ED8545C136BD","image":"","image_id":"","image_name":"","source_platform":0,"team_id":"","type":"canvas_color"},{"album_image":"","blur":0.0,"color":"","id":"FBB72515-B661-4c15-944F-CD821E8B9A3F","image":"","image_id":"","image_name":"","source_platform":0,"team_id":"","type":"canvas_color"},{"album_image":"","blur":0.0,"color":"","id":"449D0D9A-34C4-4e41-AFC2-5FC0E7792E21","image":"","image_id":"","image_name":"","source_platform":0,"team_id":"","type":"canvas_color"},{"album_image":"","blur":0.0,"color":"","id":"77BAF5C8-C13F-43e8-9CB4-489602FD7F2D","image":"","image_id":"","image_name":"","source_platform":0,"team_id":"","type":"canvas_color"}],"chromas":[],"color_curves":[],"digital_humans":[],"drafts":[{"category_id":"","category_name":"","combination_id":"D1FB986E-30DF-41ee-9378-CEDBABA059E3","draft":{"canvas_config":{"height":1013,"ratio":"original","width":1920},"color_space":-1,"config":{"adjust_max_index":1,"attachment_info":[],"combination_max_index":1,"export_range":null,"extract_audio_last_index":1,"lyrics_recognition_id":"","lyrics_sync":true,"lyrics_taskinfo":[],"maintrack_adsorb":false,"material_save_mode":0,"multi_language_current":"none","multi_language_list":[],"multi_language_main":"none","multi_language_mode":"none","original_sound_last_index":1,"record_audio_last_index":1,"sticker_max_index":1,"subtitle_keywords_config":null,"subtitle_recognition_id":"","subtitle_sync":true,"subtitle_taskinfo":[],"system_font_list":[],"video_mute":false,"zoom_info_params":null},"cover":null,"create_time":0,"duration":4300000,"extra_info":null,"fps":30.0,"free_render_index_mode_on":false,"group_container":null,"id":"03374DA8-BC77-4c2a-8F1D-88045C4D44B0","keyframe_graph_list":[],"keyframes":{"adjusts":[],"audios":[],"effects":[],"filters":[],"handwrites":[],"stickers":[],"texts":[],"videos":[]},"last_modified_platform":{"app_id":0,"app_source":"","app_version":"","device_id":"","hard_disk_id":"","mac_address":"","os":"","os_version":""},"materials":{"ai_translates":[],"audio_balances":[],"audio_effects":[],"audio_fades":[],"audio_track_indexes":[],"audios":[],"beats":[],"canvases":[{"album_image":"","blur":0.0,"color":"","id":"45D0A39C-4225-4745-AD8F-3590E839B216","image":"","image_id":"","image_name":"","source_platform":0,"team_id":"","type":"canvas_color"}],"chromas":[],"color_curves":[],"digital_humans":[],"drafts":[],"effects":[],"flowers":[],"green_screens":[],"handwrites":[],"hsl":[],"images":[],"log_color_wheels":[],"loudnesses":[],"manual_deformations":[],"masks":[],"material_animations":[{"animations":[],"id":"79D5BDFF-462C-4e67-B359-B0F7738F0AB8","multi_language_current":"none","type":"sticker_animation"},{"animations":[{"anim_adjust_params":null,"category_id":"ruchang","category_name":"In","duration":500000,"id":"672023","material_type":"sticker","name":"Fade In","panel":"","path":"C:/Users/mjae0/AppData/Local/CapCut/User Data/Cache/effect/672023/3ed092e2c06abae5644f5f12014e3020","platform":"all","request_id":"2024042807463948486422B195552ACD1E","resource_id":"6724916044072227332","start":0,"type":"in"}],"id":"7C14CB8E-40A1-425e-9FDF-41475AF52A43","multi_language_current":"none","type":"sticker_animation"}],"material_colors":[],"multi_language_refs":[],"placeholders":[],"plugin_effects":[],"primary_color_wheels":[],"realtime_denoises":[],"shapes":[],"smart_crops":[],"smart_relights":[],"sound_channel_mappings":[{"audio_channel_mapping":0,"id":"2E177C84-E5FD-4bc7-8C83-311F12AB5988","is_config_open":false,"type":"none"}],"speeds":[{"curve_speed":null,"id":"93911707-FBE3-4e1f-B0E4-32C4C6FA1383","mode":0,"speed":1.0,"type":"speed"}],"stickers":[],"tail_leaders":[],"text_templates":[],"texts":[{"add_type":0,"alignment":1,"background_alpha":1.0,"background_color":"","background_height":0.14,"background_horizontal_offset":0.0,"background_round_radius":0.0,"background_style":0,"background_vertical_offset":0.0,"background_width":0.14,"base_content":"","bold_width":0.0,"border_alpha":1.0,"border_color":"","border_width":0.08,"caption_template_info":{"category_id":"","category_name":"","effect_id":"","is_new":false,"path":"","request_id":"","resource_id":"","resource_name":"","source_platform":0},"check_flag":7,"combo_info":{"text_templates":[]},"content":"{\"text\":\"AMWAY\",\"styles\":[{\"fill\":{\"content\":{\"solid\":{\"color\":[1,1,1]}}},\"font\":{\"path\":\"C:/Windows/Fonts/impact.ttf\",\"id\":\"\"},\"size\":15,\"range\":[0,5]}]}","fixed_height":-1.0,"fixed_width":-1.0,"font_category_id":"","font_category_name":"","font_id":"","font_name":"","font_path":"C:/Windows/Fonts/impact.ttf","font_resource_id":"","font_size":15.0,"font_source_platform":0,"font_team_id":"","font_title":"none","font_url":"","fonts":[],"force_apply_line_max_width":false,"global_alpha":1.0,"group_id":"","has_shadow":false,"id":"4264A6A7-FF16-41dd-83A7-E0A5B8E267E6","initial_scale":1.0,"inner_padding":-1.0,"is_rich_text":false,"italic_degree":0,"ktv_color":"","language":"","layer_weight":1,"letter_spacing":0.0,"line_feed":1,"line_max_width":0.82,"line_spacing":0.02,"multi_language_current":"none","name":"","original_size":[],"preset_category":"","preset_category_id":"","preset_has_set_alignment":false,"preset_id":"","preset_index":0,"preset_name":"","recognize_task_id":"","recognize_type":0,"relevance_segment":[],"shadow_alpha":0.9,"shadow_angle":-45.0,"shadow_color":"","shadow_distance":5.0,"shadow_point":{"x":0.6363961030678928,"y":-0.6363961030678928},"shadow_smoothing":0.45,"shape_clip_x":false,"shape_clip_y":false,"source_from":"","style_name":"","sub_type":0,"subtitle_keywords":null,"subtitle_template_original_fontsize":0.0,"text_alpha":1.0,"text_color":"#FFFFFF","text_curve":null,"text_preset_resource_id":"","text_size":30,"text_to_audio_ids":[],"tts_auto_update":false,"type":"text","typesetting":0,"underline":false,"underline_offset":0.22,"underline_width":0.05,"use_effect_default_color":true,"words":{"end_time":[],"start_time":[],"text":[]}}],"time_marks":[],"transitions":[],"video_effects":[],"video_trackings":[{"config":{"center_x":0.0,"center_y":0.0,"height":0.0,"rotation":0.0,"width":0.0},"enable_relative_distance":true,"enable_scale":true,"enable_video_tracking":true,"id":"28B436CD-3058-4a27-AB7E-137D2C109592","map_path":"","result_path":"","tracker_type":1,"trackers":[],"tracking_time_range":0,"type":"video_tracking","version":""}],"videos":[{"aigc_type":"none","audio_fade":null,"cartoon_path":"","category_id":"","category_name":"local","check_flag":63487,"crop":{"lower_left_x":0.0,"lower_left_y":1.0,"lower_right_x":1.0,"lower_right_y":1.0,"upper_left_x":0.0,"upper_left_y":0.0,"upper_right_x":1.0,"upper_right_y":0.0},"crop_ratio":"free","crop_scale":1.0,"duration":15033333,"extra_type_option":0,"formula_id":"","freeze":null,"has_audio":false,"height":1080,"id":"2CAB5048-1BDF-4825-9BD4-3B6FDC1CC24D","intensifies_audio_path":"","intensifies_path":"","is_ai_generate_content":false,"is_copyright":false,"is_text_edit_overdub":false,"is_unified_beauty_mode":false,"local_id":"","local_material_id":"153138d6-12fd-4485-bb1a-436436229004","material_id":"","material_name":"854204-hd_1920_1080_30fps.mp4","material_url":"","matting":{"flag":0,"has_use_quick_brush":false,"has_use_quick_eraser":false,"interactiveTime":[],"path":"","strokes":[]},"media_path":"","object_locked":null,"origin_material_id":"","path":"##_draftpath_placeholder_0E685133-18CE-45ED-8CB8-2904A212EC80_##/Resources/local/9c859e00dfb2c554aefcf4919b91c40d.mp4","picture_from":"none","picture_set_category_id":"","picture_set_category_name":"","request_id":"","reverse_intensifies_path":"","reverse_path":"","smart_motion":null,"source":0,"source_platform":0,"stable":{"matrix_path":"","stable_level":0,"time_range":{"duration":0,"start":0}},"team_id":"","type":"video","video_algorithm":{"algorithms":[],"complement_frame_config":null,"deflicker":null,"gameplay_configs":[],"motion_blur_config":null,"noise_reduction":null,"path":"","quality_enhance":null,"time_range":null},"width":1920}],"vocal_beautifys":[],"vocal_separations":[{"choice":0,"id":"2B3AE04C-606F-4b72-997A-9A8AECD0DEEB","production_path":"","time_range":null,"type":"vocal_separation"}]},"mutable_config":null,"name":"","new_version":"109.0.0","platform":{"app_id":0,"app_source":"","app_version":"","device_id":"","hard_disk_id":"","mac_address":"","os":"","os_version":""},"relationships":[],"render_index_track_mode_on":false,"retouch_cover":null,"source":"default","static_cover_image_path":"","time_marks":null,"tracks":[{"attribute":0,"flag":0,"id":"F16F5D18-6908-4540-ABA7-2FE4D64B6EE7","is_default_name":true,"name":"","segments":[{"caption_info":null,"cartoon":false,"clip":{"alpha":1.0,"flip":{"horizontal":false,"vertical":false},"rotation":0.0,"scale":{"x":1.1330645161290327,"y":1.1330645161290327},"transform":{"x":0.0,"y":0.0}},"common_keyframes":[],"enable_adjust":true,"enable_color_curves":true,"enable_color_match_adjust":false,"enable_color_wheels":true,"enable_lut":true,"enable_smart_color_adjust":false,"extra_material_refs":["93911707-FBE3-4e1f-B0E4-32C4C6FA1383","45D0A39C-4225-4745-AD8F-3590E839B216","79D5BDFF-462C-4e67-B359-B0F7738F0AB8","2E177C84-E5FD-4bc7-8C83-311F12AB5988","2B3AE04C-606F-4b72-997A-9A8AECD0DEEB"],"group_id":"","hdr_settings":{"intensity":1.0,"mode":1,"nits":1000},"id":"0B113489-8204-4ac7-9E78-70DBB722E641","intensifies_audio":false,"is_placeholder":false,"is_tone_modify":false,"keyframe_refs":[],"last_nonzero_volume":1.0,"material_id":"2CAB5048-1BDF-4825-9BD4-3B6FDC1CC24D","render_index":0,"responsive_layout":{"enable":false,"horizontal_pos_layout":0,"size_layout":0,"target_follow":"","vertical_pos_layout":0},"reverse":false,"source_timerange":{"duration":4300000,"start":2933333},"speed":1.0,"target_timerange":{"duration":4300000,"start":0},"template_id":"","template_scene":"default","track_attribute":0,"track_render_index":0,"uniform_scale":{"on":true,"value":1.0},"visible":true,"volume":1.0}],"type":"video"},{"attribute":0,"flag":0,"id":"091A862B-7F4D-4095-92E4-B065CEB033CE","is_default_name":true,"name":"","segments":[{"caption_info":null,"cartoon":false,"clip":{"alpha":1.0,"flip":{"horizontal":false,"vertical":false},"rotation":0.0,"scale":{"x":2.722227839568588,"y":2.722227839568588},"transform":{"x":0.0,"y":-0.22040461874350004}},"common_keyframes":[{"id":"C2692C90-4CAA-40cf-BF70-44C77D33EC2A","keyframe_list":[{"curveType":"Line","graphID":"","id":"69F49A1A-FF55-457d-9530-6D38CFCF5D82","left_control":{"x":0.0,"y":0.0},"right_control":{"x":0.0,"y":0.0},"time_offset":0,"values":[0.7348771266540643]},{"curveType":"Line","graphID":"","id":"28B59E76-C14F-42dd-8592-EE8C806AB108","left_control":{"x":0.0,"y":0.0},"right_control":{"x":0.0,"y":0.0},"time_offset":1566667,"values":[0.0]}],"material_id":"","property_type":"KFTypePositionX"},{"id":"84E18277-3EC0-49ab-9830-E15BFB2E284D","keyframe_list":[{"curveType":"Line","graphID":"","id":"63A9207B-C95F-4d91-BF29-1FEED2DA3057","left_control":{"x":0.0,"y":0.0},"right_control":{"x":0.0,"y":0.0},"time_offset":0,"values":[-0.2383257656969051]},{"curveType":"Line","graphID":"","id":"3F383A05-35D0-4616-A5B3-8F7E7420B429","left_control":{"x":0.0,"y":0.0},"right_control":{"x":0.0,"y":0.0},"time_offset":1566667,"values":[-0.22040461874350004]}],"material_id":"","property_type":"KFTypePositionY"}],"enable_adjust":false,"enable_color_curves":true,"enable_color_match_adjust":false,"enable_color_wheels":true,"enable_lut":false,"enable_smart_color_adjust":false,"extra_material_refs":["7C14CB8E-40A1-425e-9FDF-41475AF52A43","28B436CD-3058-4a27-AB7E-137D2C109592"],"group_id":"","hdr_settings":null,"id":"85692261-1814-481a-A5F4-2F51C3A6E5D5","intensifies_audio":false,"is_placeholder":false,"is_tone_modify":false,"keyframe_refs":[],"last_nonzero_volume":1.0,"material_id":"4264A6A7-FF16-41dd-83A7-E0A5B8E267E6","render_index":14043,"responsive_layout":{"enable":false,"horizontal_pos_layout":0,"size_layout":0,"target_follow":"","vertical_pos_layout":0},"reverse":false,"source_timerange":null,"speed":1.0,"target_timerange":{"duration":3633333,"start":400000},"template_id":"","template_scene":"default","track_attribute":0,"track_render_index":0,"uniform_scale":{"on":true,"value":1.0},"visible":true,"volume":1.0}],"type":"text"}],"update_time":0,"version":360000},"formula_id":"","id":"72AEADED-770E-4373-9EB2-A84E86E7EAF2","name":"","precompile_combination":false,"type":"combination"}],"effects":[],"flowers":[],"green_screens":[],"handwrites":[],"hsl":[],"images":[],"log_color_wheels":[],"loudnesses":[{"enable":false,"file_id":"","id":"43C94E2F-EFA4-401b-A603-563A0A36D681","loudness_param":null,"target_loudness":0.0,"time_range":null},{"enable":false,"file_id":"","id":"590532A4-0FF1-4429-83F5-987DED6F356E","loudness_param":null,"target_loudness":0.0,"time_range":null},{"enable":false,"file_id":"","id":"999409AB-FFE5-40e6-AF4F-4EBA1128D16F","loudness_param":null,"target_loudness":0.0,"time_range":null},{"enable":false,"file_id":"","id":"FB5CD772-8C50-42cf-B6DB-862CD5DB2742","loudness_param":null,"target_loudness":0.0,"time_range":null},{"enable":false,"file_id":"","id":"DCD641BF-57D4-4bf6-937B-13580A3EB184","loudness_param":null,"target_loudness":0.0,"time_range":null},{"enable":false,"file_id":"","id":"F940CE28-FC1B-45f7-B278-DCA8C20DEC38","loudness_param":null,"target_loudness":0.0,"time_range":null},{"enable":false,"file_id":"","id":"8FF2573B-AC6B-4f82-BD26-B951A375AD2A","loudness_param":null,"target_loudness":0.0,"time_range":null},{"enable":false,"file_id":"","id":"2DD3B88C-8393-4635-8C22-35128270665A","loudness_param":null,"target_loudness":0.0,"time_range":null},{"enable":false,"file_id":"","id":"D8141366-1DA0-41f1-AC01-F0B4B6BA7402","loudness_param":null,"target_loudness":0.0,"time_range":null},{"enable":false,"file_id":"","id":"864AAD49-0D9E-454a-B2E4-A9CF2E9E3998","loudness_param":null,"target_loudness":0.0,"time_range":null},{"enable":false,"file_id":"","id":"3B1D8177-9BF8-4031-953D-4A232DC86069","loudness_param":null,"target_loudness":0.0,"time_range":null}],"manual_deformations":[],"masks":[],"material_animations":[{"animations":[],"id":"A3E04A32-C952-4ae2-AFF4-1286ACDEF8D3","multi_language_current":"none","type":"sticker_animation"},{"animations":[],"id":"9EF4A4CE-E1BC-4fdc-AEAC-31EC259D01E8","multi_language_current":"none","type":"sticker_animation"},{"animations":[],"id":"5DEE0842-7EE1-4c19-96FE-443047EB2008","multi_language_current":"none","type":"sticker_animation"},{"animations":[],"id":"04BD5503-541C-44e6-8DCA-38339A0B7F74","multi_language_current":"none","type":"sticker_animation"},{"animations":[],"id":"E17ABF8D-5F41-4e18-8BA3-17157E87622C","multi_language_current":"none","type":"sticker_animation"},{"animations":[],"id":"04835052-7991-4142-8170-F5660C7BA70F","multi_language_current":"none","type":"sticker_animation"},{"animations":[],"id":"92CFA02C-2F5D-4416-8FF5-BFDAD5FB3ABB","multi_language_current":"none","type":"sticker_animation"},{"animations":[],"id":"FAADBA64-FB41-44df-9BDA-1615635E21AD","multi_language_current":"none","type":"sticker_animation"},{"animations":[],"id":"1225717C-E85B-44ef-A45C-EF60F875C9AA","multi_language_current":"none","type":"sticker_animation"},{"animations":[],"id":"D723C32F-9CCF-4a8f-8547-EC6F6C6F2B83","multi_language_current":"none","type":"sticker_animation"},{"animations":[],"id":"CE618A99-A8ED-4de2-9A6A-0C91C8B2519C","multi_language_current":"none","type":"sticker_animation"},{"animations":[],"id":"233E1380-15E1-4a2c-937B-EDF71224D26D","multi_language_current":"none","type":"sticker_animation"},{"animations":[],"id":"7B95FF31-8A26-4210-B07F-74743562AB72","multi_language_current":"none","type":"sticker_animation"},{"animations":[],"id":"18659B09-5515-4493-916B-0D2E29F0C986","multi_language_current":"none","type":"sticker_animation"},{"animations":[],"id":"0D158F01-9025-44b0-9CDF-E41E3CEF711F","multi_language_current":"none","type":"sticker_animation"},{"animations":[],"id":"64DEEE26-4347-4a0c-8D7D-204A50AC5E51","multi_language_current":"none","type":"sticker_animation"},{"animations":[],"id":"95BB8C62-58BE-4f7c-94F2-0D67273D73D6","multi_language_current":"none","type":"sticker_animation"},{"animations":[],"id":"5D3FCBFB-654D-4978-8B8B-072E637CF0FE","multi_language_current":"none","type":"sticker_animation"},{"animations":[],"id":"DA92678A-505D-4066-AED9-3410E6FD8873","multi_language_current":"none","type":"sticker_animation"},{"animations":[{"anim_adjust_params":null,"category_id":"out","category_name":"Out","duration":1033333,"id":"670498","material_type":"video","name":"Fade Out","panel":"video","path":"C:/Users/mjae0/AppData/Local/CapCut/User Data/Cache/effect/670498/a38d418dd5ac1bb821802275600a0e70","platform":"all","request_id":"","resource_id":"6798320902548230669","start":1884753,"type":"out"}],"id":"0B7C3E0B-5AE6-4c76-9754-33BE4B633D9F","multi_language_current":"none","type":"sticker_animation"},{"animations":[{"anim_adjust_params":null,"category_id":"ruchang","category_name":"In","duration":1833333,"id":"672023","material_type":"sticker","name":"Fade In","panel":"","path":"C:/Users/mjae0/AppData/Local/CapCut/User Data/Cache/effect/672023/3ed092e2c06abae5644f5f12014e3020","platform":"all","request_id":"2024042807463948486422B195552ACD1E","resource_id":"6724916044072227332","start":0,"type":"in"}],"id":"2DC60973-FC2A-44b1-BCD0-B46261BD451A","multi_language_current":"none","type":"sticker_animation"},{"animations":[{"anim_adjust_params":null,"category_id":"ruchang","category_name":"In","duration":1833333,"id":"672023","material_type":"sticker","name":"Fade In","panel":"","path":"C:/Users/mjae0/AppData/Local/CapCut/User Data/Cache/effect/672023/3ed092e2c06abae5644f5f12014e3020","platform":"all","request_id":"2024042807463948486422B195552ACD1E","resource_id":"6724916044072227332","start":0,"type":"in"}],"id":"42A0F3EB-D1C3-49f7-829A-71F119E049E6","multi_language_current":"none","type":"sticker_animation"}],"material_colors":[],"multi_language_refs":[],"placeholders":[],"plugin_effects":[],"primary_color_wheels":[],"realtime_denoises":[],"shapes":[],"smart_crops":[],"smart_relights":[],"sound_channel_mappings":[{"audio_channel_mapping":0,"id":"B5717091-72D4-4887-A7A1-AEAD164F1D38","is_config_open":false,"type":"none"},{"audio_channel_mapping":0,"id":"0546386A-775A-4d85-BDFA-6CC7FB511CFD","is_config_open":false,"type":"none"},{"audio_channel_mapping":0,"id":"2424ED17-B6FC-4c46-8789-A52FB266F69F","is_config_open":false,"type":"none"},{"audio_channel_mapping":0,"id":"287220CA-D7A5-406a-A1C2-5950C4B6E872","is_config_open":false,"type":"none"},{"audio_channel_mapping":0,"id":"14D2CF7F-F88B-483a-9BF4-64D4F37679C0","is_config_open":false,"type":"none"},{"audio_channel_mapping":0,"id":"E0FED4CB-6EDF-4a12-B9A1-578B841FE36A","is_config_open":false,"type":"none"},{"audio_channel_mapping":0,"id":"C3DA21B7-0933-4778-888F-F84BBD06FCEB","is_config_open":false,"type":"none"},{"audio_channel_mapping":0,"id":"DD79644A-2DA3-4f50-967E-BD0A14E38079","is_config_open":false,"type":"none"},{"audio_channel_mapping":0,"id":"C23F9CD1-821C-4817-A88F-A48C3BC4FD5A","is_config_open":false,"type":"none"},{"audio_channel_mapping":0,"id":"9CAACBD7-22C6-4519-AFA0-CD6D2A271C93","is_config_open":false,"type":"none"},{"audio_channel_mapping":0,"id":"DF23F677-2EB4-4a15-ADC8-2E3F2F9B479B","is_config_open":false,"type":"none"},{"audio_channel_mapping":0,"id":"C4BF76BF-8F55-48a5-860E-084C3F669241","is_config_open":false,"type":"none"},{"audio_channel_mapping":0,"id":"D7A04646-F543-48bf-BCDC-10535ADA9C5A","is_config_open":false,"type":"none"},{"audio_channel_mapping":0,"id":"721A8CC9-61A9-4689-80A0-88215E7B6782","is_config_open":false,"type":"none"},{"audio_channel_mapping":0,"id":"8F87C8B3-2FF4-46b9-8F3B-C6A4D39D470B","is_config_open":false,"type":"none"},{"audio_channel_mapping":0,"id":"62F2FC4C-1068-4e2f-B13B-B50659808C2D","is_config_open":false,"type":"none"},{"audio_channel_mapping":0,"id":"B6D3AD42-E19C-4a47-8FC0-6D830F910DBB","is_config_open":false,"type":"none"},{"audio_channel_mapping":0,"id":"6D825B34-A0CF-46cf-9F9C-A00C9D66B424","is_config_open":false,"type":"none"},{"audio_channel_mapping":0,"id":"20CAD0B8-57CB-41bb-8532-A08EBDD29E0A","is_config_open":false,"type":"none"},{"audio_channel_mapping":0,"id":"FED18FE5-2874-4e97-9CC2-92686BEC7C56","is_config_open":false,"type":"none"},{"audio_channel_mapping":0,"id":"82063BD1-85C1-4ee5-BBA3-C3EACD928C2A","is_config_open":false,"type":"none"},{"audio_channel_mapping":0,"id":"B5F3535B-BA9E-4e94-ABFE-47B4BDF92B6D","is_config_open":false,"type":"none"},{"audio_channel_mapping":0,"id":"E7F56208-9295-473b-895E-94D413ECB137","is_config_open":false,"type":"none"},{"audio_channel_mapping":0,"id":"ACC5D36E-97FF-4730-BDEB-23D7BBA725C8","is_config_open":false,"type":"none"},{"audio_channel_mapping":0,"id":"8B8279D8-628F-475e-8E68-A87E82A64530","is_config_open":false,"type":"none"},{"audio_channel_mapping":0,"id":"0CD1E35C-1094-452e-B73C-C1594AD584F0","is_config_open":false,"type":"none"},{"audio_channel_mapping":0,"id":"B1A6B552-3242-40c7-9126-958C0DEBB548","is_config_open":false,"type":"none"},{"audio_channel_mapping":0,"id":"52F4281F-CA78-4bc8-89E6-9908D4567A1E","is_config_open":false,"type":"none"},{"audio_channel_mapping":0,"id":"CB0B1E17-5741-48df-A9E4-35B8CC4A5336","is_config_open":false,"type":"none"},{"audio_channel_mapping":0,"id":"CA422AE5-8F2F-4d99-A1DA-3DBC87E5C4A7","is_config_open":false,"type":"none"},{"audio_channel_mapping":0,"id":"63EB7801-5930-4622-B0B4-7A96118741E7","is_config_open":false,"type":"none"},{"audio_channel_mapping":0,"id":"1EA8F99C-C42C-4943-903E-B88218A5F17E","is_config_open":false,"type":"none"},{"audio_channel_mapping":0,"id":"695AF4F5-0CDC-433d-9E02-9E6A9197A47E","is_config_open":false,"type":"none"},{"audio_channel_mapping":0,"id":"028638FC-8518-4b89-A8C8-38B77ECD8CD4","is_config_open":false,"type":"none"},{"audio_channel_mapping":0,"id":"C8C2DC9F-4673-40e7-AE31-B91DA9A93868","is_config_open":false,"type":"none"},{"audio_channel_mapping":0,"id":"25582E4C-4FCD-4a95-B033-4B5C51903CF7","is_config_open":false,"type":"none"},{"audio_channel_mapping":0,"id":"EC423F27-93E3-4c54-A9D1-7DEAFF89C92C","is_config_open":false,"type":"none"},{"audio_channel_mapping":0,"id":"C37E88D6-2AC2-43a0-B4C7-F82B5A238EB3","is_config_open":false,"type":"none"},{"audio_channel_mapping":0,"id":"8DCC0AE9-BA9B-498c-8AA1-BCE30D439C2B","is_config_open":false,"type":"none"},{"audio_channel_mapping":0,"id":"B47443F7-409E-4f59-A8C0-772F7E678E14","is_config_open":false,"type":"none"},{"audio_channel_mapping":0,"id":"04203EC5-9519-481e-A567-D2CBF9E3B7BF","is_config_open":false,"type":"none"},{"audio_channel_mapping":0,"id":"DB181EDE-8CA3-4606-8B7F-1E51D78C254E","is_config_open":false,"type":"none"},{"audio_channel_mapping":0,"id":"B6100B71-2A54-4ddf-BD78-2B813DB1DA19","is_config_open":false,"type":"none"},{"audio_channel_mapping":0,"id":"8BA730D0-E846-4c90-A62B-C9F1A1FAF7AF","is_config_open":false,"type":"none"},{"audio_channel_mapping":0,"id":"27FC4E3E-B021-4c2e-9316-3BE912990E86","is_config_open":false,"type":"none"},{"audio_channel_mapping":0,"id":"8F5F61E0-B1E8-4e4c-BC16-91F89340ABBD","is_config_open":false,"type":"none"},{"audio_channel_mapping":0,"id":"93514297-DB04-44a7-921A-30DBC91FA99B","is_config_open":false,"type":"none"},{"audio_channel_mapping":0,"id":"DA15D998-BEA8-47e0-866A-F80775BD1A40","is_config_open":false,"type":"none"},{"audio_channel_mapping":0,"id":"4ED7F24B-9C1B-421b-A8E8-6B8A11F12AB3","is_config_open":false,"type":"none"},{"audio_channel_mapping":0,"id":"C19E4D35-C74D-46e6-9FF8-1897BAD7A381","is_config_open":false,"type":"none"},{"audio_channel_mapping":0,"id":"1E736691-B193-4659-9BC5-E70F8DFB1B33","is_config_open":false,"type":"none"},{"audio_channel_mapping":0,"id":"F4550463-D60E-4e85-93DF-098FD72AD3D0","is_config_open":false,"type":"none"},{"audio_channel_mapping":0,"id":"A640CF5F-3300-4ea6-8AED-164241A3871E","is_config_open":false,"type":"none"},{"audio_channel_mapping":0,"id":"D467E772-DC38-4302-B28E-C4E0D5AD27FD","is_config_open":false,"type":"none"},{"audio_channel_mapping":0,"id":"DE38E340-F110-4f9e-B34D-AA6403A0AFB2","is_config_open":false,"type":"none"},{"audio_channel_mapping":0,"id":"D6BA64F8-F898-469f-AC7B-CAE48154FA25","is_config_open":false,"type":"none"},{"audio_channel_mapping":0,"id":"AB407E5D-77AB-416c-9AB4-F16ACAEDC522","is_config_open":false,"type":"none"},{"audio_channel_mapping":0,"id":"2372030E-AA13-4601-B74F-B7DBEB702176","is_config_open":false,"type":"none"},{"audio_channel_mapping":0,"id":"A5AA6AFD-6153-4a99-A0EB-07601F8959CC","is_config_open":false,"type":"none"},{"audio_channel_mapping":0,"id":"15AC477E-DAE8-46be-9894-8991D0E39EEA","is_config_open":false,"type":"none"},{"audio_channel_mapping":0,"id":"0EF34BA5-8B29-44c6-8736-82A808DA26E6","is_config_open":false,"type":"none"},{"audio_channel_mapping":0,"id":"F1601620-3372-4dde-AE88-5653F987FB23","is_config_open":false,"type":"none"},{"audio_channel_mapping":0,"id":"7D906BD8-0DD9-468b-9B31-800EFCF436D8","is_config_open":false,"type":"none"},{"audio_channel_mapping":0,"id":"D9B18C09-F34B-47cc-848A-6602C740D25D","is_config_open":false,"type":"none"},{"audio_channel_mapping":0,"id":"9D04B218-E9CA-4142-BA46-77B30599ACD3","is_config_open":false,"type":"none"},{"audio_channel_mapping":0,"id":"4FCD1B6C-5DFA-497d-B698-8EE39F8557A9","is_config_open":false,"type":"none"},{"audio_channel_mapping":0,"id":"526EF3FD-F277-4e2e-A9DC-7018C56BDF40","is_config_open":false,"type":"none"},{"audio_channel_mapping":0,"id":"DBDD07B5-79A0-4d95-A0F9-6FFEFA666D8D","is_config_open":false,"type":"none"},{"audio_channel_mapping":0,"id":"068368E1-F161-4365-A8D5-A281FADC9090","is_config_open":false,"type":"none"},{"audio_channel_mapping":0,"id":"BA3F0722-B11F-41bd-A615-ED0186FC8D2C","is_config_open":false,"type":"none"},{"audio_channel_mapping":0,"id":"C3AEB460-6E58-412e-81D4-D9585C574D42","is_config_open":false,"type":"none"}],"speeds":[{"curve_speed":null,"id":"4520AD84-C497-4745-8E1E-906B902F5B9B","mode":0,"speed":1.0,"type":"speed"},{"curve_speed":null,"id":"953DCF8A-D802-44d0-A461-E4A15F376E13","mode":0,"speed":1.0,"type":"speed"},{"curve_speed":null,"id":"27371F09-047D-40c8-A3B6-0845BB945CD3","mode":0,"speed":1.0,"type":"speed"},{"curve_speed":null,"id":"2A2B5F51-C8F3-400b-AE9C-86D8E9FA09B1","mode":0,"speed":1.0,"type":"speed"},{"curve_speed":null,"id":"4D1C4074-D8E4-4fc8-901B-005D077BA024","mode":0,"speed":1.0,"type":"speed"},{"curve_speed":null,"id":"90469A86-6C75-4573-AC53-69AA447A57E3","mode":0,"speed":1.0,"type":"speed"},{"curve_speed":null,"id":"B944C939-04B1-4146-805D-4655B138B03F","mode":0,"speed":1.0,"type":"speed"},{"curve_speed":null,"id":"13116296-F959-46d9-B814-F27FF846B1A7","mode":0,"speed":1.0,"type":"speed"},{"curve_speed":null,"id":"48CE2DF2-9A53-45b5-8DCF-89DF14814997","mode":0,"speed":1.0,"type":"speed"},{"curve_speed":null,"id":"7CD4A67C-8D23-43f8-9A2B-DBAFFC311991","mode":0,"speed":1.0,"type":"speed"},{"curve_speed":null,"id":"C00F3404-816A-40f7-9131-BF4DCAE0434C","mode":0,"speed":1.0,"type":"speed"},{"curve_speed":null,"id":"1C0B7086-2759-414c-9D41-F2CA46592B33","mode":0,"speed":1.0,"type":"speed"},{"curve_speed":null,"id":"9DAEB989-8338-42e4-8AAB-F9B79EFB95D4","mode":0,"speed":1.0,"type":"speed"},{"curve_speed":null,"id":"FDE6C330-D1CF-4ff6-A958-5471B6E40AAB","mode":0,"speed":1.0,"type":"speed"},{"curve_speed":null,"id":"42649782-48CF-426a-BE33-6E26A9B858A4","mode":0,"speed":1.0,"type":"speed"},{"curve_speed":null,"id":"A6E71487-56DF-405f-99B9-6CE317857CD6","mode":0,"speed":1.0,"type":"speed"},{"curve_speed":null,"id":"6AD7387E-C8DE-452b-AD6E-7DA7FF56AC46","mode":0,"speed":1.0,"type":"speed"},{"curve_speed":null,"id":"8303AD99-C269-46b4-BF54-57D42A6A2138","mode":0,"speed":1.0,"type":"speed"},{"curve_speed":null,"id":"C90C77E9-BD50-4d6d-B974-8DA141CF680F","mode":0,"speed":1.0,"type":"speed"},{"curve_speed":null,"id":"E4BEA31D-AE7E-459e-B660-CE77285F14B5","mode":0,"speed":1.0,"type":"speed"},{"curve_speed":null,"id":"1090FCF6-1111-4bff-93D9-4C36813147B0","mode":0,"speed":1.0,"type":"speed"},{"curve_speed":null,"id":"4BF4BBF9-6D22-4592-90E7-E48A98818B52","mode":0,"speed":1.0,"type":"speed"},{"curve_speed":null,"id":"D5969D2E-FC59-4c63-B8F2-A67E666596DF","mode":0,"speed":1.0,"type":"speed"},{"curve_speed":null,"id":"11DE4A0A-7188-45a8-84A8-8577855B8504","mode":0,"speed":1.0,"type":"speed"},{"curve_speed":null,"id":"4F1F5D2C-3325-4a0d-8FF8-BA187B865707","mode":0,"speed":1.0,"type":"speed"},{"curve_speed":null,"id":"92F8EB8F-3C6D-4f4c-9856-B87635041DE0","mode":0,"speed":1.0,"type":"speed"},{"curve_speed":null,"id":"AAF337F8-214A-4f59-806C-C2FBCDAED21A","mode":0,"speed":1.0,"type":"speed"},{"curve_speed":null,"id":"29AE6B22-249D-4e41-BAA8-0EF2B8B69D06","mode":0,"speed":1.0,"type":"speed"},{"curve_speed":null,"id":"17E4D554-516A-4428-828F-EA6F6BBECAD1","mode":0,"speed":1.0,"type":"speed"},{"curve_speed":null,"id":"DD57741B-3AFE-4e60-AA7D-6F0CCF24EEA0","mode":0,"speed":1.0,"type":"speed"},{"curve_speed":null,"id":"C1EB432D-E01A-4c33-93BB-BC4241C5AF5E","mode":0,"speed":1.0,"type":"speed"},{"curve_speed":null,"id":"F4ADDDB9-F889-4ab5-98D0-907C8270E41D","mode":0,"speed":1.0,"type":"speed"},{"curve_speed":null,"id":"3DDDCF96-8F3F-4808-9294-D91428747AE4","mode":0,"speed":1.0,"type":"speed"},{"curve_speed":null,"id":"67A40915-E6AF-4b9d-BF37-61711D4B7FCA","mode":0,"speed":1.0,"type":"speed"},{"curve_speed":null,"id":"098BFA35-1664-4f8d-B128-D8AC2D1D8467","mode":0,"speed":1.0,"type":"speed"},{"curve_speed":null,"id":"BF494C39-3CF4-4dfa-AE71-3588B8CC972F","mode":0,"speed":1.0,"type":"speed"},{"curve_speed":null,"id":"15B9691E-98F3-4dab-B313-CF5EB60CFF36","mode":0,"speed":1.0,"type":"speed"},{"curve_speed":null,"id":"82D5FB4C-B36E-46e4-9D53-4398C71E0C0F","mode":0,"speed":1.0,"type":"speed"},{"curve_speed":null,"id":"A5303B53-3077-44d7-9DB3-34FCD484ED28","mode":0,"speed":1.0,"type":"speed"},{"curve_speed":null,"id":"2A2D0B20-8502-4719-A1C0-80F30686B51A","mode":0,"speed":1.0,"type":"speed"},{"curve_speed":null,"id":"A159A5A3-2F86-42f4-8607-E54CD4F7CFFD","mode":0,"speed":1.0,"type":"speed"},{"curve_speed":null,"id":"5152F349-214A-411e-ADA2-5F205B545AD3","mode":0,"speed":1.0,"type":"speed"},{"curve_speed":null,"id":"7D892AD3-A758-46de-96F0-54A4488C21CF","mode":0,"speed":1.0,"type":"speed"},{"curve_speed":null,"id":"EDC78294-88DC-4e84-9831-FCA68BDEC834","mode":0,"speed":1.0,"type":"speed"},{"curve_speed":null,"id":"259F1DD6-F7CD-4724-86BB-A317A5AF752C","mode":0,"speed":1.0,"type":"speed"},{"curve_speed":null,"id":"13056618-3F2D-4e08-B7F7-294F3781D564","mode":0,"speed":1.0,"type":"speed"},{"curve_speed":null,"id":"8065F8FD-185F-42fb-A8A0-982AA9989FEA","mode":0,"speed":1.0,"type":"speed"},{"curve_speed":null,"id":"CC72E6A3-AAF2-4ee9-A023-FF1615B2C560","mode":0,"speed":1.0,"type":"speed"},{"curve_speed":null,"id":"58EB778F-19B5-4491-B7B5-18C6B63C312C","mode":0,"speed":1.0,"type":"speed"},{"curve_speed":null,"id":"13865C74-B858-4bee-853F-F52CB0B74CFD","mode":0,"speed":1.0,"type":"speed"},{"curve_speed":null,"id":"BAEAF2DE-4070-4d94-886D-CA34D6997BE5","mode":0,"speed":1.0,"type":"speed"},{"curve_speed":null,"id":"5E2988E8-28C2-414e-AC42-1D10DBBF9618","mode":0,"speed":1.0,"type":"speed"},{"curve_speed":null,"id":"76E63436-C6D4-4f61-90C8-FB7D5E77A20B","mode":0,"speed":1.0,"type":"speed"},{"curve_speed":null,"id":"62595752-4781-42d4-9840-F814115C2925","mode":0,"speed":1.0,"type":"speed"},{"curve_speed":null,"id":"1F2C3057-3F62-4662-A28A-BEFAFA9BD319","mode":0,"speed":1.0,"type":"speed"},{"curve_speed":null,"id":"5FBE50CA-8920-49f8-8860-2A29B7F545DE","mode":0,"speed":1.0,"type":"speed"},{"curve_speed":null,"id":"A0AA95E5-7C9B-4f36-B8C9-F410F7B12035","mode":0,"speed":1.0,"type":"speed"},{"curve_speed":null,"id":"EE81FFF0-B272-4ce8-8563-1B84F0716480","mode":0,"speed":1.0,"type":"speed"},{"curve_speed":null,"id":"0487762C-AE8A-4d84-937B-237671296AB9","mode":0,"speed":1.0,"type":"speed"},{"curve_speed":null,"id":"0B1D73D1-FE0F-426e-AAA3-3B9F31530D3B","mode":0,"speed":1.0,"type":"speed"},{"curve_speed":null,"id":"FAE727A5-4DF5-4146-8E9D-CB835AAAE738","mode":0,"speed":1.0,"type":"speed"},{"curve_speed":null,"id":"F6758FD7-DBEE-4544-B0A2-568CC5A5E9AF","mode":0,"speed":1.0,"type":"speed"},{"curve_speed":null,"id":"AA3C6DB0-80F1-4729-A286-4BDA30DAC806","mode":0,"speed":1.0,"type":"speed"},{"curve_speed":null,"id":"A7716471-3DF7-440f-886C-C16BD8393545","mode":0,"speed":1.0,"type":"speed"},{"curve_speed":null,"id":"0DD26641-77F2-4822-B507-8632DE8570A5","mode":0,"speed":1.0,"type":"speed"},{"curve_speed":null,"id":"887BCB51-040D-4d8e-9874-6B25B49BE508","mode":0,"speed":1.0,"type":"speed"},{"curve_speed":null,"id":"B7DA79E7-2EC1-4aa4-8337-3CA9A1B0BA9F","mode":0,"speed":1.0,"type":"speed"},{"curve_speed":null,"id":"9F9AF128-137B-44b8-A543-4DFFD7D9A520","mode":0,"speed":1.0,"type":"speed"},{"curve_speed":null,"id":"6CBB9C9F-2A5C-4674-9AA5-CF5F6B31ED5B","mode":0,"speed":1.0,"type":"speed"},{"curve_speed":null,"id":"729CA237-40D4-402b-A158-AD8D221ED769","mode":0,"speed":1.0,"type":"speed"},{"curve_speed":null,"id":"42E22F9E-4D6A-4ab8-8E22-FDE95E25A2D2","mode":0,"speed":1.0,"type":"speed"}],"stickers":[],"tail_leaders":[],"text_templates":[],"texts":[{"add_type":0,"alignment":1,"background_alpha":1.0,"background_color":"","background_height":0.14,"background_horizontal_offset":0.0,"background_round_radius":0.0,"background_style":0,"background_vertical_offset":0.0,"background_width":0.14,"base_content":"","bold_width":0.0,"border_alpha":1.0,"border_color":"","border_width":0.08,"caption_template_info":{"category_id":"","category_name":"","effect_id":"","is_new":false,"path":"","request_id":"","resource_id":"","resource_name":"","source_platform":0},"check_flag":7,"combo_info":{"text_templates":[]},"content":"{\"text\":\"SWOT \\nANALYSIS\",\"styles\":[{\"fill\":{\"content\":{\"solid\":{\"color\":[1,1,1]}}},\"font\":{\"path\":\"C:/Windows/Fonts/impact.ttf\",\"id\":\"\"},\"size\":15,\"range\":[0,14]}]}","fixed_height":-1.0,"fixed_width":-1.0,"font_category_id":"","font_category_name":"","font_id":"","font_name":"","font_path":"C:/Windows/Fonts/impact.ttf","font_resource_id":"","font_size":15.0,"font_source_platform":0,"font_team_id":"","font_title":"none","font_url":"","fonts":[],"force_apply_line_max_width":false,"global_alpha":1.0,"group_id":"","has_shadow":false,"id":"D79DF35C-5B64-48fb-A07B-F5B2E2B02CD2","initial_scale":1.0,"inner_padding":-1.0,"is_rich_text":false,"italic_degree":0,"ktv_color":"","language":"","layer_weight":1,"letter_spacing":0.0,"line_feed":1,"line_max_width":0.82,"line_spacing":0.02,"multi_language_current":"none","name":"","original_size":[],"preset_category":"","preset_category_id":"","preset_has_set_alignment":false,"preset_id":"","preset_index":0,"preset_name":"","recognize_task_id":"","recognize_type":0,"relevance_segment":[],"shadow_alpha":0.9,"shadow_angle":-45.0,"shadow_color":"","shadow_distance":5.0,"shadow_point":{"x":0.6363961030678928,"y":-0.6363961030678928},"shadow_smoothing":0.45,"shape_clip_x":false,"shape_clip_y":false,"source_from":"","style_name":"","sub_type":0,"subtitle_keywords":null,"subtitle_template_original_fontsize":0.0,"text_alpha":1.0,"text_color":"#FFFFFF","text_curve":null,"text_preset_resource_id":"","text_size":30,"text_to_audio_ids":[],"tts_auto_update":false,"type":"text","typesetting":0,"underline":false,"underline_offset":0.22,"underline_width":0.05,"use_effect_default_color":true,"words":{"end_time":[],"start_time":[],"text":[]}},{"add_type":0,"alignment":1,"background_alpha":1.0,"background_color":"","background_height":0.14,"background_horizontal_offset":0.0,"background_round_radius":0.0,"background_style":0,"background_vertical_offset":0.0,"background_width":0.14,"base_content":"","bold_width":0.0,"border_alpha":1.0,"border_color":"","border_width":0.08,"caption_template_info":{"category_id":"","category_name":"","effect_id":"","is_new":false,"path":"","request_id":"","resource_id":"","resource_name":"","source_platform":0},"check_flag":7,"combo_info":{"text_templates":[]},"content":"{\"text\":\"STRENGTHS\",\"styles\":[{\"fill\":{\"content\":{\"solid\":{\"color\":[1,1,1]}}},\"font\":{\"path\":\"C:/Windows/Fonts/impact.ttf\",\"id\":\"\"},\"size\":8,\"range\":[0,9]}]}","fixed_height":-1.0,"fixed_width":-1.0,"font_category_id":"","font_category_name":"","font_id":"","font_name":"","font_path":"C:/Windows/Fonts/impact.ttf","font_resource_id":"","font_size":8.0,"font_source_platform":0,"font_team_id":"","font_title":"none","font_url":"","fonts":[],"force_apply_line_max_width":false,"global_alpha":1.0,"group_id":"","has_shadow":false,"id":"0AAC637B-76B4-42a9-96A6-6ED394899915","initial_scale":1.0,"inner_padding":-1.0,"is_rich_text":false,"italic_degree":0,"ktv_color":"","language":"","layer_weight":1,"letter_spacing":0.0,"line_feed":1,"line_max_width":0.82,"line_spacing":0.02,"multi_language_current":"none","name":"","original_size":[],"preset_category":"","preset_category_id":"","preset_has_set_alignment":false,"preset_id":"","preset_index":0,"preset_name":"","recognize_task_id":"","recognize_type":0,"relevance_segment":[],"shadow_alpha":0.9,"shadow_angle":-45.0,"shadow_color":"","shadow_distance":5.0,"shadow_point":{"x":0.6363961030678928,"y":-0.6363961030678928},"shadow_smoothing":0.45,"shape_clip_x":false,"shape_clip_y":false,"source_from":"","style_name":"","sub_type":0,"subtitle_keywords":null,"subtitle_template_original_fontsize":0.0,"text_alpha":1.0,"text_color":"#FFFFFF","text_curve":null,"text_preset_resource_id":"","text_size":30,"text_to_audio_ids":[],"tts_auto_update":false,"type":"text","typesetting":0,"underline":false,"underline_offset":0.22,"underline_width":0.05,"use_effect_default_color":true,"words":{"end_time":[],"start_time":[],"text":[]}}],"time_marks":[],"transitions":[{"category_id":"123456","category_name":"heycan_search_transition","duration":66666,"effect_id":"4381461","id":"84107FEB-FC9C-4066-9429-D6309ADFB76B","is_overlap":false,"name":"Black Fade","path":"C:/Users/mjae0/AppData/Local/CapCut/User Data/Cache/effect/4381461/3bca53e9f3dfa2c184fbee96438ea097","platform":"all","request_id":"20240427172353422A0CCC41A175B6C25D","resource_id":"6724239388189921806","type":"transition"},{"category_id":"123456","category_name":"Transitions","duration":66666,"effect_id":"4381461","id":"0EF8D13B-590E-48fd-906A-E775E0D59B7C","is_overlap":false,"name":"Black Fade","path":"C:/Users/mjae0/AppData/Local/CapCut/User Data/Cache/effect/4381461/3bca53e9f3dfa2c184fbee96438ea097","platform":"all","request_id":"20240427172353422A0CCC41A175B6C25D","resource_id":"6724239388189921806","type":"transition"},{"category_id":"123456","category_name":"Transitions","duration":66666,"effect_id":"4381461","id":"7A755EFB-7595-49e2-904C-359E0D2E5C50","is_overlap":false,"name":"Black Fade","path":"C:/Users/mjae0/AppData/Local/CapCut/User Data/Cache/effect/4381461/3bca53e9f3dfa2c184fbee96438ea097","platform":"all","request_id":"20240427172353422A0CCC41A175B6C25D","resource_id":"6724239388189921806","type":"transition"},{"category_id":"123456","category_name":"Transitions","duration":200000,"effect_id":"4381461","id":"78A05216-7A87-4428-B5C4-C59957A12FD8","is_overlap":false,"name":"Black Fade","path":"C:/Users/mjae0/AppData/Local/CapCut/User Data/Cache/effect/4381461/3bca53e9f3dfa2c184fbee96438ea097","platform":"all","request_id":"","resource_id":"6724239388189921806","type":"transition"},{"category_id":"123456","category_name":"Transitions","duration":133333,"effect_id":"4381461","id":"DE525DD4-0C20-44b4-9ADD-7534208420D4","is_overlap":false,"name":"Black Fade","path":"C:/Users/mjae0/AppData/Local/CapCut/User Data/Cache/effect/4381461/3bca53e9f3dfa2c184fbee96438ea097","platform":"all","request_id":"","resource_id":"6724239388189921806","type":"transition"}],"video_effects":[],"video_trackings":[],"videos":[{"aigc_type":"none","audio_fade":null,"cartoon_path":"","category_id":"","category_name":"","check_flag":63487,"crop":{"lower_left_x":0.0,"lower_left_y":1.0,"lower_right_x":1.0,"lower_right_y":1.0,"upper_left_x":0.0,"upper_left_y":0.0,"upper_right_x":1.0,"upper_right_y":0.0},"crop_ratio":"free","crop_scale":1.0,"duration":11000000,"extra_type_option":0,"formula_id":"","freeze":null,"has_audio":false,"height":2160,"id":"2989DA95-AB70-44bd-A857-4494D87AA072","intensifies_audio_path":"","intensifies_path":"","is_ai_generate_content":false,"is_copyright":true,"is_text_edit_overdub":false,"is_unified_beauty_mode":false,"local_id":"","local_material_id":"","material_id":"","material_name":"","material_url":"","matting":{"flag":0,"has_use_quick_brush":false,"has_use_quick_eraser":false,"interactiveTime":[],"path":"","strokes":[]},"media_path":"","object_locked":null,"origin_material_id":"","path":"##_draftpath_placeholder_0E685133-18CE-45ED-8CB8-2904A212EC80_##/Resources/local/203de006cdcc7633a896c4bf95e406e3.mp4","picture_from":"none","picture_set_category_id":"","picture_set_category_name":"","request_id":"","reverse_intensifies_path":"","reverse_path":"","smart_motion":null,"source":0,"source_platform":0,"stable":{"matrix_path":"","stable_level":0,"time_range":{"duration":0,"start":0}},"team_id":"","type":"video","video_algorithm":{"algorithms":[],"complement_frame_config":null,"deflicker":null,"gameplay_configs":[],"motion_blur_config":null,"noise_reduction":null,"path":"","quality_enhance":null,"time_range":null},"width":4096},{"aigc_type":"none","audio_fade":null,"cartoon_path":"","category_id":"","category_name":"","check_flag":63487,"crop":{"lower_left_x":0.0,"lower_left_y":1.0,"lower_right_x":1.0,"lower_right_y":1.0,"upper_left_x":0.0,"upper_left_y":0.0,"upper_right_x":1.0,"upper_right_y":0.0},"crop_ratio":"free","crop_scale":1.0,"duration":10866666,"extra_type_option":1,"formula_id":"","freeze":null,"has_audio":true,"height":1080,"id":"4A0D2428-8D90-4d87-A01B-BC1A549E147D","intensifies_audio_path":"","intensifies_path":"","is_ai_generate_content":false,"is_copyright":true,"is_text_edit_overdub":false,"is_unified_beauty_mode":false,"local_id":"","local_material_id":"","material_id":"","material_name":"","material_url":"","matting":{"flag":0,"has_use_quick_brush":false,"has_use_quick_eraser":false,"interactiveTime":[],"path":"","strokes":[]},"media_path":"","object_locked":null,"origin_material_id":"","path":"##_draftpath_placeholder_0E685133-18CE-45ED-8CB8-2904A212EC80_##/Resources/local/a814130e3ad17eddcdfcdc57867dc679.mp4","picture_from":"none","picture_set_category_id":"","picture_set_category_name":"","request_id":"","reverse_intensifies_path":"","reverse_path":"","smart_motion":null,"source":0,"source_platform":0,"stable":{"matrix_path":"","stable_level":0,"time_range":{"duration":0,"start":0}},"team_id":"","type":"video","video_algorithm":{"algorithms":[],"complement_frame_config":null,"deflicker":null,"gameplay_configs":[],"motion_blur_config":null,"noise_reduction":null,"path":"","quality_enhance":null,"time_range":null},"width":1920},{"aigc_type":"none","audio_fade":null,"cartoon_path":"","category_id":"","category_name":"","check_flag":63487,"crop":{"lower_left_x":0.0,"lower_left_y":1.0,"lower_right_x":1.0,"lower_right_y":1.0,"upper_left_x":0.0,"upper_left_y":0.0,"upper_right_x":1.0,"upper_right_y":0.0},"crop_ratio":"free","crop_scale":1.0,"duration":30800000,"extra_type_option":0,"formula_id":"","freeze":null,"has_audio":false,"height":2160,"id":"F99DDEB6-2E42-4a67-ADC3-AA0B3A38B035","intensifies_audio_path":"","intensifies_path":"","is_ai_generate_content":false,"is_copyright":true,"is_text_edit_overdub":false,"is_unified_beauty_mode":false,"local_id":"","local_material_id":"","material_id":"","material_name":"","material_url":"","matting":{"flag":0,"has_use_quick_brush":false,"has_use_quick_eraser":false,"interactiveTime":[],"path":"","strokes":[]},"media_path":"","object_locked":null,"origin_material_id":"","path":"##_draftpath_placeholder_0E685133-18CE-45ED-8CB8-2904A212EC80_##/Resources/local/08fdc0c6858fb93121ecf704ca35ff50.mp4","picture_from":"none","picture_set_category_id":"","picture_set_category_name":"","request_id":"","reverse_intensifies_path":"","reverse_path":"","smart_motion":null,"source":0,"source_platform":0,"stable":{"matrix_path":"","stable_level":0,"time_range":{"duration":0,"start":0}},"team_id":"","type":"video","video_algorithm":{"algorithms":[],"complement_frame_config":null,"deflicker":null,"gameplay_configs":[],"motion_blur_config":null,"noise_reduction":null,"path":"","quality_enhance":null,"time_range":null},"width":4096},{"aigc_type":"none","audio_fade":null,"cartoon_path":"","category_id":"","category_name":"","check_flag":63487,"crop":{"lower_left_x":0.0,"lower_left_y":1.0,"lower_right_x":1.0,"lower_right_y":1.0,"upper_left_x":0.0,"upper_left_y":0.0,"upper_right_x":1.0,"upper_right_y":0.0},"crop_ratio":"free","crop_scale":1.0,"duration":56100000,"extra_type_option":0,"formula_id":"","freeze":null,"has_audio":false,"height":2160,"id":"E588FC00-DB0C-48f0-9C55-E171F8135A60","intensifies_audio_path":"","intensifies_path":"","is_ai_generate_content":false,"is_copyright":true,"is_text_edit_overdub":false,"is_unified_beauty_mode":false,"local_id":"","local_material_id":"","material_id":"","material_name":"","material_url":"","matting":{"flag":0,"has_use_quick_brush":false,"has_use_quick_eraser":false,"interactiveTime":[],"path":"","strokes":[]},"media_path":"","object_locked":null,"origin_material_id":"","path":"##_draftpath_placeholder_0E685133-18CE-45ED-8CB8-2904A212EC80_##/Resources/local/1a1caf022ed0446da6414cf948bf6cfd.mp4","picture_from":"none","picture_set_category_id":"","picture_set_category_name":"","request_id":"","reverse_intensifies_path":"","reverse_path":"","smart_motion":null,"source":0,"source_platform":0,"stable":{"matrix_path":"","stable_level":0,"time_range":{"duration":0,"start":0}},"team_id":"","type":"video","video_algorithm":{"algorithms":[],"complement_frame_config":null,"deflicker":null,"gameplay_configs":[],"motion_blur_config":null,"noise_reduction":null,"path":"","quality_enhance":null,"time_range":null},"width":4096},{"aigc_type":"none","audio_fade":null,"cartoon_path":"","category_id":"","category_name":"","check_flag":63487,"crop":{"lower_left_x":0.0,"lower_left_y":1.0,"lower_right_x":1.0,"lower_right_y":1.0,"upper_left_x":0.0,"upper_left_y":0.0,"upper_right_x":1.0,"upper_right_y":0.0},"crop_ratio":"free","crop_scale":1.0,"duration":17066666,"extra_type_option":0,"formula_id":"","freeze":null,"has_audio":true,"height":2160,"id":"D8DC09EE-C1F1-4854-B0C2-135518C5F176","intensifies_audio_path":"","intensifies_path":"","is_ai_generate_content":false,"is_copyright":true,"is_text_edit_overdub":false,"is_unified_beauty_mode":false,"local_id":"","local_material_id":"","material_id":"","material_name":"","material_url":"","matting":{"flag":0,"has_use_quick_brush":false,"has_use_quick_eraser":false,"interactiveTime":[],"path":"","strokes":[]},"media_path":"","object_locked":null,"origin_material_id":"","path":"##_draftpath_placeholder_0E685133-18CE-45ED-8CB8-2904A212EC80_##/Resources/local/1cf0007d6bdc4bdd8f77ed26355b1faf.mp4","picture_from":"none","picture_set_category_id":"","picture_set_category_name":"","request_id":"","reverse_intensifies_path":"","reverse_path":"","smart_motion":null,"source":0,"source_platform":0,"stable":{"matrix_path":"","stable_level":0,"time_range":{"duration":0,"start":0}},"team_id":"","type":"video","video_algorithm":{"algorithms":[],"complement_frame_config":null,"deflicker":null,"gameplay_configs":[],"motion_blur_config":null,"noise_reduction":null,"path":"","quality_enhance":null,"time_range":null},"width":3840},{"aigc_type":"none","audio_fade":null,"cartoon_path":"","category_id":"","category_name":"","check_flag":63487,"crop":{"lower_left_x":0.0,"lower_left_y":1.0,"lower_right_x":1.0,"lower_right_y":1.0,"upper_left_x":0.0,"upper_left_y":0.0,"upper_right_x":1.0,"upper_right_y":0.0},"crop_ratio":"free","crop_scale":1.0,"duration":137066666,"extra_type_option":0,"formula_id":"","freeze":null,"has_audio":false,"height":2160,"id":"2B17A070-BC2B-4880-98DC-CD1D66C97A0D","intensifies_audio_path":"","intensifies_path":"","is_ai_generate_content":false,"is_copyright":true,"is_text_edit_overdub":false,"is_unified_beauty_mode":false,"local_id":"","local_material_id":"","material_id":"","material_name":"","material_url":"","matting":{"flag":0,"has_use_quick_brush":false,"has_use_quick_eraser":false,"interactiveTime":[],"path":"","strokes":[]},"media_path":"","object_locked":null,"origin_material_id":"","path":"##_draftpath_placeholder_0E685133-18CE-45ED-8CB8-2904A212EC80_##/Resources/local/6cc3d464852c2b235fb00f0d6e3a54e0.mp4","picture_from":"none","picture_set_category_id":"","picture_set_category_name":"","request_id":"","reverse_intensifies_path":"","reverse_path":"","smart_motion":null,"source":0,"source_platform":0,"stable":{"matrix_path":"","stable_level":0,"time_range":{"duration":0,"start":0}},"team_id":"","type":"video","video_algorithm":{"algorithms":[],"complement_frame_config":null,"deflicker":null,"gameplay_configs":[],"motion_blur_config":null,"noise_reduction":null,"path":"","quality_enhance":null,"time_range":null},"width":4096},{"aigc_type":"none","audio_fade":null,"cartoon_path":"","category_id":"","category_name":"","check_flag":63487,"crop":{"lower_left_x":0.0,"lower_left_y":1.0,"lower_right_x":1.0,"lower_right_y":1.0,"upper_left_x":0.0,"upper_left_y":0.0,"upper_right_x":1.0,"upper_right_y":0.0},"crop_ratio":"free","crop_scale":1.0,"duration":53133333,"extra_type_option":0,"formula_id":"","freeze":null,"has_audio":false,"height":4096,"id":"3BD20C1D-2A88-420e-ADF0-68CC7CFAADF8","intensifies_audio_path":"","intensifies_path":"","is_ai_generate_content":false,"is_copyright":true,"is_text_edit_overdub":false,"is_unified_beauty_mode":false,"local_id":"","local_material_id":"","material_id":"","material_name":"","material_url":"","matting":{"flag":0,"has_use_quick_brush":false,"has_use_quick_eraser":false,"interactiveTime":[],"path":"","strokes":[]},"media_path":"","object_locked":null,"origin_material_id":"","path":"##_draftpath_placeholder_0E685133-18CE-45ED-8CB8-2904A212EC80_##/Resources/local/99f56c76f9977af42b71ced0bca73d45.mp4","picture_from":"none","picture_set_category_id":"","picture_set_category_name":"","request_id":"","reverse_intensifies_path":"","reverse_path":"","smart_motion":null,"source":0,"source_platform":0,"stable":{"matrix_path":"","stable_level":0,"time_range":{"duration":0,"start":0}},"team_id":"","type":"video","video_algorithm":{"algorithms":[],"complement_frame_config":null,"deflicker":null,"gameplay_configs":[],"motion_blur_config":null,"noise_reduction":null,"path":"","quality_enhance":null,"time_range":null},"width":2160},{"aigc_type":"none","audio_fade":null,"cartoon_path":"","category_id":"","category_name":"","check_flag":63487,"crop":{"lower_left_x":0.0,"lower_left_y":1.0,"lower_right_x":1.0,"lower_right_y":1.0,"upper_left_x":0.0,"upper_left_y":0.0,"upper_right_x":1.0,"upper_right_y":0.0},"crop_ratio":"free","crop_scale":1.0,"duration":38933333,"extra_type_option":0,"formula_id":"","freeze":null,"has_audio":false,"height":2160,"id":"89439876-9B20-4e17-9E97-242800CCB56D","intensifies_audio_path":"","intensifies_path":"","is_ai_generate_content":false,"is_copyright":true,"is_text_edit_overdub":false,"is_unified_beauty_mode":false,"local_id":"","local_material_id":"","material_id":"","material_name":"","material_url":"","matting":{"flag":0,"has_use_quick_brush":false,"has_use_quick_eraser":false,"interactiveTime":[],"path":"","strokes":[]},"media_path":"","object_locked":null,"origin_material_id":"","path":"##_draftpath_placeholder_0E685133-18CE-45ED-8CB8-2904A212EC80_##/Resources/local/44b86406e2a21317627eafc757d66770.mp4","picture_from":"none","picture_set_category_id":"","picture_set_category_name":"","request_id":"","reverse_intensifies_path":"","reverse_path":"","smart_motion":null,"source":0,"source_platform":0,"stable":{"matrix_path":"","stable_level":0,"time_range":{"duration":0,"start":0}},"team_id":"","type":"video","video_algorithm":{"algorithms":[],"complement_frame_config":null,"deflicker":null,"gameplay_configs":[],"motion_blur_config":null,"noise_reduction":null,"path":"","quality_enhance":null,"time_range":null},"width":4096},{"aigc_type":"none","audio_fade":null,"cartoon_path":"","category_id":"","category_name":"","check_flag":63487,"crop":{"lower_left_x":0.0,"lower_left_y":1.0,"lower_right_x":1.0,"lower_right_y":1.0,"upper_left_x":0.0,"upper_left_y":0.0,"upper_right_x":1.0,"upper_right_y":0.0},"crop_ratio":"free","crop_scale":1.0,"duration":23700000,"extra_type_option":0,"formula_id":"","freeze":null,"has_audio":true,"height":2160,"id":"D6D26C4D-8AB9-4547-8C3E-0F6A5A793C62","intensifies_audio_path":"","intensifies_path":"","is_ai_generate_content":false,"is_copyright":true,"is_text_edit_overdub":false,"is_unified_beauty_mode":false,"local_id":"","local_material_id":"","material_id":"","material_name":"","material_url":"","matting":{"flag":0,"has_use_quick_brush":false,"has_use_quick_eraser":false,"interactiveTime":[],"path":"","strokes":[]},"media_path":"","object_locked":null,"origin_material_id":"","path":"##_draftpath_placeholder_0E685133-18CE-45ED-8CB8-2904A212EC80_##/Resources/local/3b0b4a09275b4305f71820770260fafe.mp4","picture_from":"none","picture_set_category_id":"","picture_set_category_name":"","request_id":"","reverse_intensifies_path":"","reverse_path":"","smart_motion":null,"source":0,"source_platform":0,"stable":{"matrix_path":"","stable_level":0,"time_range":{"duration":0,"start":0}},"team_id":"","type":"video","video_algorithm":{"algorithms":[],"complement_frame_config":null,"deflicker":null,"gameplay_configs":[],"motion_blur_config":null,"noise_reduction":null,"path":"","quality_enhance":null,"time_range":null},"width":3840},{"aigc_type":"none","audio_fade":null,"cartoon_path":"","category_id":"","category_name":"","check_flag":63487,"crop":{"lower_left_x":0.0,"lower_left_y":1.0,"lower_right_x":1.0,"lower_right_y":1.0,"upper_left_x":0.0,"upper_left_y":0.0,"upper_right_x":1.0,"upper_right_y":0.0},"crop_ratio":"free","crop_scale":1.0,"duration":17333333,"extra_type_option":0,"formula_id":"","freeze":null,"has_audio":true,"height":1080,"id":"1202A59D-AE5B-4fc3-B93E-39474D831FD8","intensifies_audio_path":"","intensifies_path":"","is_ai_generate_content":false,"is_copyright":true,"is_text_edit_overdub":false,"is_unified_beauty_mode":false,"local_id":"","local_material_id":"","material_id":"","material_name":"","material_url":"","matting":{"flag":0,"has_use_quick_brush":false,"has_use_quick_eraser":false,"interactiveTime":[],"path":"","strokes":[]},"media_path":"","object_locked":null,"origin_material_id":"","path":"##_draftpath_placeholder_0E685133-18CE-45ED-8CB8-2904A212EC80_##/Resources/local/2bef3d3acc01857d8ba3503b5aecbe97.mp4","picture_from":"none","picture_set_category_id":"","picture_set_category_name":"","request_id":"","reverse_intensifies_path":"","reverse_path":"","smart_motion":null,"source":0,"source_platform":0,"stable":{"matrix_path":"","stable_level":0,"time_range":{"duration":0,"start":0}},"team_id":"","type":"video","video_algorithm":{"algorithms":[],"complement_frame_config":null,"deflicker":null,"gameplay_configs":[],"motion_blur_config":null,"noise_reduction":null,"path":"","quality_enhance":null,"time_range":null},"width":1920},{"aigc_type":"none","audio_fade":null,"cartoon_path":"","category_id":"","category_name":"","check_flag":63487,"crop":{"lower_left_x":0.0,"lower_left_y":1.0,"lower_right_x":1.0,"lower_right_y":1.0,"upper_left_x":0.0,"upper_left_y":0.0,"upper_right_x":1.0,"upper_right_y":0.0},"crop_ratio":"free","crop_scale":1.0,"duration":36900000,"extra_type_option":0,"formula_id":"","freeze":null,"has_audio":false,"height":2160,"id":"D8059ADA-432B-4f17-9CEC-6A6314CF0624","intensifies_audio_path":"","intensifies_path":"","is_ai_generate_content":false,"is_copyright":true,"is_text_edit_overdub":false,"is_unified_beauty_mode":false,"local_id":"","local_material_id":"","material_id":"","material_name":"","material_url":"","matting":{"flag":0,"has_use_quick_brush":false,"has_use_quick_eraser":false,"interactiveTime":[],"path":"","strokes":[]},"media_path":"","object_locked":null,"origin_material_id":"","path":"##_draftpath_placeholder_0E685133-18CE-45ED-8CB8-2904A212EC80_##/Resources/local/8cb4bf00bf7043050b7619aea3e50464.mp4","picture_from":"none","picture_set_category_id":"","picture_set_category_name":"","request_id":"","reverse_intensifies_path":"","reverse_path":"","smart_motion":null,"source":0,"source_platform":0,"stable":{"matrix_path":"","stable_level":0,"time_range":{"duration":0,"start":0}},"team_id":"","type":"video","video_algorithm":{"algorithms":[],"complement_frame_config":null,"deflicker":null,"gameplay_configs":[],"motion_blur_config":null,"noise_reduction":null,"path":"","quality_enhance":null,"time_range":null},"width":4096},{"aigc_type":"none","audio_fade":null,"cartoon_path":"","category_id":"","category_name":"","check_flag":63487,"crop":{"lower_left_x":0.0,"lower_left_y":1.0,"lower_right_x":1.0,"lower_right_y":1.0,"upper_left_x":0.0,"upper_left_y":0.0,"upper_right_x":1.0,"upper_right_y":0.0},"crop_ratio":"free","crop_scale":1.0,"duration":4300000,"extra_type_option":2,"formula_id":"","freeze":null,"has_audio":false,"height":1014,"id":"9355D215-54E3-4be1-9B69-A30FEF4090A5","intensifies_audio_path":"","intensifies_path":"","is_ai_generate_content":false,"is_copyright":true,"is_text_edit_overdub":false,"is_unified_beauty_mode":false,"local_id":"","local_material_id":"","material_id":"","material_name":"Compound clip4","material_url":"","matting":{"flag":0,"has_use_quick_brush":false,"has_use_quick_eraser":false,"interactiveTime":[],"path":"","strokes":[]},"media_path":"","object_locked":null,"origin_material_id":"","path":"","picture_from":"none","picture_set_category_id":"","picture_set_category_name":"","request_id":"","reverse_intensifies_path":"","reverse_path":"","smart_motion":null,"source":0,"source_platform":0,"stable":{"matrix_path":"","stable_level":0,"time_range":{"duration":0,"start":0}},"team_id":"","type":"video","video_algorithm":{"algorithms":[],"complement_frame_config":null,"deflicker":null,"gameplay_configs":[],"motion_blur_config":null,"noise_reduction":null,"path":"","quality_enhance":null,"time_range":null},"width":1920},{"aigc_type":"none","audio_fade":null,"cartoon_path":"","category_id":"","category_name":"local","check_flag":63487,"crop":{"lower_left_x":0.0,"lower_left_y":1.0,"lower_right_x":1.0,"lower_right_y":1.0,"upper_left_x":0.0,"upper_left_y":0.0,"upper_right_x":1.0,"upper_right_y":0.0},"crop_ratio":"free","crop_scale":1.0,"duration":7933333,"extra_type_option":0,"formula_id":"","freeze":null,"has_audio":true,"height":1080,"id":"6792AA57-8032-4184-906F-0EBDE87BF45C","intensifies_audio_path":"","intensifies_path":"","is_ai_generate_content":false,"is_copyright":false,"is_text_edit_overdub":false,"is_unified_beauty_mode":false,"local_id":"","local_material_id":"74a5b019-0a7c-4043-9834-475ddd342641","material_id":"","material_name":"try.mp4","material_url":"","matting":{"flag":0,"has_use_quick_brush":false,"has_use_quick_eraser":false,"interactiveTime":[],"path":"","strokes":[]},"media_path":"","object_locked":null,"origin_material_id":"","path":"##_draftpath_placeholder_0E685133-18CE-45ED-8CB8-2904A212EC80_##/Resources/local/ccf5b96612e071e25cc9966771f959e0.mp4","picture_from":"none","picture_set_category_id":"","picture_set_category_name":"","request_id":"","reverse_intensifies_path":"","reverse_path":"","smart_motion":null,"source":0,"source_platform":0,"stable":{"matrix_path":"","stable_level":0,"time_range":{"duration":0,"start":0}},"team_id":"","type":"video","video_algorithm":{"algorithms":[],"complement_frame_config":null,"deflicker":null,"gameplay_configs":[],"motion_blur_config":null,"noise_reduction":null,"path":"","quality_enhance":null,"time_range":null},"width":1920},{"aigc_type":"none","audio_fade":null,"cartoon_path":"","category_id":"","category_name":"local","check_flag":63487,"crop":{"lower_left_x":0.0,"lower_left_y":1.0,"lower_right_x":1.0,"lower_right_y":1.0,"upper_left_x":0.0,"upper_left_y":0.0,"upper_right_x":1.0,"upper_right_y":0.0},"crop_ratio":"free","crop_scale":1.0,"duration":10800000000,"extra_type_option":0,"formula_id":"","freeze":null,"has_audio":false,"height":1080,"id":"2E64D430-2D29-40d2-AAA4-20A114B35FAD","intensifies_audio_path":"","intensifies_path":"","is_ai_generate_content":false,"is_copyright":false,"is_text_edit_overdub":false,"is_unified_beauty_mode":false,"local_id":"","local_material_id":"","material_id":"","material_name":"Blue White Minimalist Thesis Defense Presentation.png","material_url":"","matting":{"flag":0,"has_use_quick_brush":false,"has_use_quick_eraser":false,"interactiveTime":[],"path":"","strokes":[]},"media_path":"","object_locked":null,"origin_material_id":"","path":"##_draftpath_placeholder_0E685133-18CE-45ED-8CB8-2904A212EC80_##/Resources/local/fc371614cafb93121a1b98f9feb7fd07.png","picture_from":"none","picture_set_category_id":"","picture_set_category_name":"","request_id":"","reverse_intensifies_path":"","reverse_path":"","smart_motion":null,"source":0,"source_platform":0,"stable":{"matrix_path":"","stable_level":0,"time_range":{"duration":0,"start":0}},"team_id":"","type":"photo","video_algorithm":{"algorithms":[],"complement_frame_config":null,"deflicker":null,"gameplay_configs":[],"motion_blur_config":null,"noise_reduction":null,"path":"","quality_enhance":null,"time_range":null},"width":1920},{"aigc_type":"none","audio_fade":null,"cartoon_path":"","category_id":"","category_name":"local","check_flag":63487,"crop":{"lower_left_x":0.0,"lower_left_y":1.0,"lower_right_x":1.0,"lower_right_y":1.0,"upper_left_x":0.0,"upper_left_y":0.0,"upper_right_x":1.0,"upper_right_y":0.0},"crop_ratio":"free","crop_scale":1.0,"duration":10800000000,"extra_type_option":0,"formula_id":"","freeze":null,"has_audio":false,"height":1080,"id":"26442908-D119-4c64-B860-960965B069E3","intensifies_audio_path":"","intensifies_path":"","is_ai_generate_content":false,"is_copyright":false,"is_text_edit_overdub":false,"is_unified_beauty_mode":false,"local_id":"","local_material_id":"","material_id":"","material_name":"Blue White Minimalist Thesis Defense Presentation.png","material_url":"","matting":{"flag":0,"has_use_quick_brush":false,"has_use_quick_eraser":false,"interactiveTime":[],"path":"","strokes":[]},"media_path":"","object_locked":null,"origin_material_id":"","path":"##_draftpath_placeholder_0E685133-18CE-45ED-8CB8-2904A212EC80_##/Resources/local/fc371614cafb93121a1b98f9feb7fd07.png","picture_from":"none","picture_set_category_id":"","picture_set_category_name":"","request_id":"","reverse_intensifies_path":"","reverse_path":"","smart_motion":null,"source":0,"source_platform":0,"stable":{"matrix_path":"","stable_level":0,"time_range":{"duration":0,"start":0}},"team_id":"","type":"photo","video_algorithm":{"algorithms":[],"complement_frame_config":null,"deflicker":null,"gameplay_configs":[],"motion_blur_config":null,"noise_reduction":null,"path":"","quality_enhance":null,"time_range":null},"width":1920},{"aigc_type":"none","audio_fade":null,"cartoon_path":"","category_id":"","category_name":"local","check_flag":63487,"crop":{"lower_left_x":0.0,"lower_left_y":1.0,"lower_right_x":1.0,"lower_right_y":1.0,"upper_left_x":0.0,"upper_left_y":0.0,"upper_right_x":1.0,"upper_right_y":0.0},"crop_ratio":"free","crop_scale":1.0,"duration":15033333,"extra_type_option":0,"formula_id":"","freeze":null,"has_audio":false,"height":1080,"id":"E408A1C9-DB61-4238-A56C-718FCBEFFC6E","intensifies_audio_path":"","intensifies_path":"","is_ai_generate_content":false,"is_copyright":false,"is_text_edit_overdub":false,"is_unified_beauty_mode":false,"local_id":"","local_material_id":"153138d6-12fd-4485-bb1a-436436229004","material_id":"","material_name":"854204-hd_1920_1080_30fps.mp4","material_url":"","matting":{"flag":3,"has_use_quick_brush":false,"has_use_quick_eraser":false,"interactiveTime":[],"path":"##_draftpath_placeholder_0E685133-18CE-45ED-8CB8-2904A212EC80_##/matting\\dbc67d04defda6a6125db6c983d197e7","strokes":[]},"media_path":"","object_locked":null,"origin_material_id":"","path":"##_draftpath_placeholder_0E685133-18CE-45ED-8CB8-2904A212EC80_##/Resources/local/9c859e00dfb2c554aefcf4919b91c40d.mp4","picture_from":"none","picture_set_category_id":"","picture_set_category_name":"","request_id":"","reverse_intensifies_path":"","reverse_path":"","smart_motion":null,"source":0,"source_platform":0,"stable":{"matrix_path":"","stable_level":0,"time_range":{"duration":0,"start":0}},"team_id":"","type":"video","video_algorithm":{"algorithms":[],"complement_frame_config":null,"deflicker":null,"gameplay_configs":[],"motion_blur_config":null,"noise_reduction":null,"path":"","quality_enhance":null,"time_range":null},"width":1920},{"aigc_type":"none","audio_fade":null,"cartoon_path":"","category_id":"","category_name":"local","check_flag":63487,"crop":{"lower_left_x":0.0,"lower_left_y":1.0,"lower_right_x":1.0,"lower_right_y":1.0,"upper_left_x":0.0,"upper_left_y":0.0,"upper_right_x":1.0,"upper_right_y":0.0},"crop_ratio":"free","crop_scale":1.0,"duration":12866666,"extra_type_option":0,"formula_id":"","freeze":null,"has_audio":false,"height":2160,"id":"32EA7487-18D2-4cd4-97DD-593D6A67F8C7","intensifies_audio_path":"","intensifies_path":"","is_ai_generate_content":false,"is_copyright":false,"is_text_edit_overdub":false,"is_unified_beauty_mode":false,"local_id":"","local_material_id":"dc4f43bf-4d4b-4449-acf6-c2f4d356c429","material_id":"","material_name":"LO.mp4","material_url":"","matting":{"flag":0,"has_use_quick_brush":false,"has_use_quick_eraser":false,"interactiveTime":[],"path":"","strokes":[]},"media_path":"","object_locked":null,"origin_material_id":"","path":"##_draftpath_placeholder_0E685133-18CE-45ED-8CB8-2904A212EC80_##/Resources/local/bfd6bab28af3f6ae29513eee4744133e.mp4","picture_from":"none","picture_set_category_id":"","picture_set_category_name":"","request_id":"","reverse_intensifies_path":"","reverse_path":"","smart_motion":null,"source":0,"source_platform":0,"stable":{"matrix_path":"","stable_level":0,"time_range":{"duration":0,"start":0}},"team_id":"","type":"video","video_algorithm":{"algorithms":[],"complement_frame_config":null,"deflicker":null,"gameplay_configs":[],"motion_blur_config":null,"noise_reduction":null,"path":"","quality_enhance":null,"time_range":null},"width":4096},{"aigc_type":"none","audio_fade":null,"cartoon_path":"","category_id":"","category_name":"local","check_flag":63487,"crop":{"lower_left_x":0.0,"lower_left_y":1.0,"lower_right_x":1.0,"lower_right_y":1.0,"upper_left_x":0.0,"upper_left_y":0.0,"upper_right_x":1.0,"upper_right_y":0.0},"crop_ratio":"free","crop_scale":1.0,"duration":23733333,"extra_type_option":0,"formula_id":"","freeze":null,"has_audio":true,"height":720,"id":"A316D482-D6DB-4536-A872-1D257A349A93","intensifies_audio_path":"","intensifies_path":"","is_ai_generate_content":false,"is_copyright":false,"is_text_edit_overdub":false,"is_unified_beauty_mode":false,"local_id":"","local_material_id":"f3cdc4f1-12e5-44e9-b5e8-8c3a720ae33b","material_id":"","material_name":"amway-stories.mp4","material_url":"","matting":{"flag":0,"has_use_quick_brush":false,"has_use_quick_eraser":false,"interactiveTime":[],"path":"","strokes":[]},"media_path":"","object_locked":null,"origin_material_id":"","path":"##_draftpath_placeholder_0E685133-18CE-45ED-8CB8-2904A212EC80_##/Resources/local/5c6cfbb742739838afd8d985dc5dedf1.mp4","picture_from":"none","picture_set_category_id":"","picture_set_category_name":"","request_id":"","reverse_intensifies_path":"","reverse_path":"","smart_motion":null,"source":0,"source_platform":0,"stable":{"matrix_path":"","stable_level":0,"time_range":{"duration":0,"start":0}},"team_id":"","type":"video","video_algorithm":{"algorithms":[],"complement_frame_config":null,"deflicker":null,"gameplay_configs":[],"motion_blur_config":null,"noise_reduction":null,"path":"","quality_enhance":null,"time_range":null},"width":1280},{"aigc_type":"none","audio_fade":null,"cartoon_path":"","category_id":"","category_name":"local","check_flag":63487,"crop":{"lower_left_x":0.0,"lower_left_y":1.0,"lower_right_x":1.0,"lower_right_y":1.0,"upper_left_x":0.0,"upper_left_y":0.0,"upper_right_x":1.0,"upper_right_y":0.0},"crop_ratio":"free","crop_scale":1.0,"duration":35633333,"extra_type_option":0,"formula_id":"","freeze":null,"has_audio":true,"height":720,"id":"A1036F98-6C21-4e0f-B53E-A6F339AD192F","intensifies_audio_path":"","intensifies_path":"","is_ai_generate_content":false,"is_copyright":false,"is_text_edit_overdub":false,"is_unified_beauty_mode":false,"local_id":"","local_material_id":"5c1b2f61-1204-40bd-9ee8-9590d2a76e40","material_id":"","material_name":"about-signup.mp4","material_url":"","matting":{"flag":0,"has_use_quick_brush":false,"has_use_quick_eraser":false,"interactiveTime":[],"path":"","strokes":[]},"media_path":"","object_locked":null,"origin_material_id":"","path":"##_draftpath_placeholder_0E685133-18CE-45ED-8CB8-2904A212EC80_##/Resources/local/3ee5933a2471a9559de8323eb3eafb3d.mp4","picture_from":"none","picture_set_category_id":"","picture_set_category_name":"","request_id":"","reverse_intensifies_path":"","reverse_path":"","smart_motion":null,"source":0,"source_platform":0,"stable":{"matrix_path":"","stable_level":0,"time_range":{"duration":0,"start":0}},"team_id":"","type":"video","video_algorithm":{"algorithms":[],"complement_frame_config":null,"deflicker":null,"gameplay_configs":[],"motion_blur_config":null,"noise_reduction":null,"path":"","quality_enhance":null,"time_range":null},"width":1280},{"aigc_type":"none","audio_fade":null,"cartoon_path":"","category_id":"","category_name":"local","check_flag":63487,"crop":{"lower_left_x":0.0,"lower_left_y":1.0,"lower_right_x":1.0,"lower_right_y":1.0,"upper_left_x":0.0,"upper_left_y":0.0,"upper_right_x":1.0,"upper_right_y":0.0},"crop_ratio":"free","crop_scale":1.0,"duration":42233333,"extra_type_option":1,"formula_id":"","freeze":null,"has_audio":true,"height":720,"id":"CC86AE00-02F8-4eb7-BAF7-1BD2ED8EFC33","intensifies_audio_path":"","intensifies_path":"","is_ai_generate_content":false,"is_copyright":false,"is_text_edit_overdub":false,"is_unified_beauty_mode":false,"local_id":"","local_material_id":"a6ae9546-7cb3-4224-8df8-92f6c1512c50","material_id":"","material_name":"Virtual Space.mp4","material_url":"","matting":{"flag":0,"has_use_quick_brush":false,"has_use_quick_eraser":false,"interactiveTime":[],"path":"","strokes":[]},"media_path":"","object_locked":null,"origin_material_id":"","path":"##_draftpath_placeholder_0E685133-18CE-45ED-8CB8-2904A212EC80_##/Resources/local/651a964030e66045464c50b98b6c475a.mp4","picture_from":"none","picture_set_category_id":"","picture_set_category_name":"","request_id":"","reverse_intensifies_path":"","reverse_path":"","smart_motion":null,"source":0,"source_platform":0,"stable":{"matrix_path":"","stable_level":0,"time_range":{"duration":0,"start":0}},"team_id":"","type":"video","video_algorithm":{"algorithms":[],"complement_frame_config":null,"deflicker":null,"gameplay_configs":[],"motion_blur_config":null,"noise_reduction":null,"path":"","quality_enhance":null,"time_range":null},"width":1280},{"aigc_type":"none","audio_fade":null,"cartoon_path":"","category_id":"","category_name":"local","check_flag":63487,"crop":{"lower_left_x":0.48815217391304355,"lower_left_y":1.0,"lower_right_x":1.0,"lower_right_y":1.0,"upper_left_x":0.48815217391304355,"upper_left_y":0.0,"upper_right_x":1.0,"upper_right_y":0.0},"crop_ratio":"free","crop_scale":1.0,"duration":15033333,"extra_type_option":0,"formula_id":"","freeze":null,"has_audio":false,"height":1080,"id":"76644E0E-8C27-406b-942F-DFC25838A249","intensifies_audio_path":"","intensifies_path":"","is_ai_generate_content":false,"is_copyright":false,"is_text_edit_overdub":false,"is_unified_beauty_mode":false,"local_id":"","local_material_id":"153138d6-12fd-4485-bb1a-436436229004","material_id":"","material_name":"854204-hd_1920_1080_30fps.mp4","material_url":"","matting":{"flag":0,"has_use_quick_brush":false,"has_use_quick_eraser":false,"interactiveTime":[],"path":"","strokes":[]},"media_path":"","object_locked":null,"origin_material_id":"","path":"##_draftpath_placeholder_0E685133-18CE-45ED-8CB8-2904A212EC80_##/Resources/local/9c859e00dfb2c554aefcf4919b91c40d.mp4","picture_from":"none","picture_set_category_id":"","picture_set_category_name":"","request_id":"","reverse_intensifies_path":"","reverse_path":"","smart_motion":null,"source":0,"source_platform":0,"stable":{"matrix_path":"","stable_level":0,"time_range":{"duration":0,"start":0}},"team_id":"","type":"video","video_algorithm":{"algorithms":[],"complement_frame_config":null,"deflicker":null,"gameplay_configs":[],"motion_blur_config":null,"noise_reduction":null,"path":"","quality_enhance":null,"time_range":null},"width":1920}],"vocal_beautifys":[{"ambient_sound_level":75,"enable":false,"id":"047AC9D1-C9EF-4f53-878E-BCB0A989FB76","production_path":"##_draftpath_placeholder_0E685133-18CE-45ED-8CB8-2904A212EC80_##/Resources/audioAlg/2838ec9845f84360777fcfa13bf97377_0_7733333.mp3","time_range":{"duration":7733333,"start":0},"type":"vocal_beautify","voice_change_mode":null},{"ambient_sound_level":75,"enable":false,"id":"27CC3547-A824-47fe-BF1B-881ECD783420","production_path":"##_draftpath_placeholder_0E685133-18CE-45ED-8CB8-2904A212EC80_##/Resources/audioAlg/2838ec9845f84360777fcfa13bf97377_0_7733333.mp3","time_range":{"duration":7733333,"start":0},"type":"vocal_beautify","voice_change_mode":null}],"vocal_separations":[{"choice":0,"id":"D81D985D-DE8A-4460-93E6-F92F4EDEE495","production_path":"","time_range":null,"type":"vocal_separation"},{"choice":0,"id":"049BDCC9-81B4-450a-B293-CE81E351655C","production_path":"","time_range":null,"type":"vocal_separation"},{"choice":0,"id":"9601EDBF-0F99-41c2-912A-752903FFDFD4","production_path":"","time_range":null,"type":"vocal_separation"},{"choice":0,"id":"244E313A-0AA1-431b-A4C3-168D192060EA","production_path":"","time_range":null,"type":"vocal_separation"},{"choice":0,"id":"7DA48F94-374C-4000-B369-5DEE6AF513AD","production_path":"","time_range":null,"type":"vocal_separation"},{"choice":0,"id":"850D50BC-7A03-4e97-A340-08F5677285B2","production_path":"","time_range":null,"type":"vocal_separation"},{"choice":0,"id":"9C6C1C16-0821-4056-997B-13B975C422BC","production_path":"","time_range":null,"type":"vocal_separation"},{"choice":0,"id":"93FC22ED-7FDB-48bb-97CA-E6603BE4DB09","production_path":"","time_range":null,"type":"vocal_separation"},{"choice":0,"id":"55E888C6-3439-4924-83CF-868530A5552B","production_path":"","time_range":null,"type":"vocal_separation"},{"choice":0,"id":"527AA403-0336-480b-9C45-2CBA7AF0E459","production_path":"","time_range":null,"type":"vocal_separation"},{"choice":0,"id":"08FE13DC-8351-49f5-B491-8B280C9A3D0C","production_path":"","time_range":null,"type":"vocal_separation"},{"choice":0,"id":"80CB3CF9-9B9E-4ca0-BE9C-1A6B45C2E829","production_path":"","time_range":null,"type":"vocal_separation"},{"choice":0,"id":"29C9CF5F-A78D-4035-9448-FC78CE32E163","production_path":"","time_range":null,"type":"vocal_separation"},{"choice":0,"id":"F7034127-05C7-4c67-A669-E142757C182B","production_path":"","time_range":null,"type":"vocal_separation"},{"choice":0,"id":"499B650A-140D-45b8-AA7F-430CAE625BFD","production_path":"","time_range":null,"type":"vocal_separation"},{"choice":0,"id":"19F0F73E-DBDC-4d0e-ABB4-E70A9BCFF34A","production_path":"","time_range":null,"type":"vocal_separation"},{"choice":0,"id":"55029EE2-A2BD-4d00-B33C-22008B832826","production_path":"","time_range":null,"type":"vocal_separation"},{"choice":0,"id":"EDA35543-C34E-4fd9-AB2E-5E71DB687137","production_path":"","time_range":null,"type":"vocal_separation"},{"choice":0,"id":"B8FF36BA-6A7C-4a1b-976B-E28A63A45270","production_path":"","time_range":null,"type":"vocal_separation"},{"choice":0,"id":"3D2B6351-D44A-491f-8D32-BA340053FA88","production_path":"","time_range":null,"type":"vocal_separation"},{"choice":0,"id":"AD56C93B-EE6C-4975-A9A7-7381BA8BDB09","production_path":"","time_range":null,"type":"vocal_separation"},{"choice":0,"id":"D819E2D5-93CD-4377-B2B8-B5D4FD8094AF","production_path":"","time_range":null,"type":"vocal_separation"},{"choice":0,"id":"E9AC1E3C-99EB-43dc-8B2C-2A683A4E4FBA","production_path":"","time_range":null,"type":"vocal_separation"},{"choice":0,"id":"BE3807D7-45E8-419b-8523-19D0BC3D8C45","production_path":"","time_range":null,"type":"vocal_separation"},{"choice":0,"id":"D4071414-CAD3-4f21-9AB8-BB115F6BCDA1","production_path":"","time_range":null,"type":"vocal_separation"},{"choice":0,"id":"37801FE2-D3C0-4f3d-813C-F3D48DA31E4D","production_path":"","time_range":null,"type":"vocal_separation"},{"choice":0,"id":"F1963900-99D4-4205-B754-765551EC6E77","production_path":"","time_range":null,"type":"vocal_separation"},{"choice":0,"id":"6980EA0A-2DA5-45ea-BDEA-3433DB72FA4C","production_path":"","time_range":null,"type":"vocal_separation"},{"choice":0,"id":"EFE3D706-BCAE-4227-A513-3A00FAA21666","production_path":"","time_range":null,"type":"vocal_separation"},{"choice":0,"id":"6D55472A-6077-46be-9DE8-968E50B772DD","production_path":"","time_range":null,"type":"vocal_separation"},{"choice":0,"id":"F1F7C9B0-4E78-4ef9-8B84-DFD70E64ADCE","production_path":"","time_range":null,"type":"vocal_separation"},{"choice":0,"id":"9750999F-2156-4005-BCA9-37868B17BAC7","production_path":"","time_range":null,"type":"vocal_separation"},{"choice":0,"id":"33A8358E-3BCD-402d-A829-3CE64634A44A","production_path":"","time_range":null,"type":"vocal_separation"},{"choice":0,"id":"C909EC9F-F0C3-4703-B29B-3E26A4EBB2EC","production_path":"","time_range":null,"type":"vocal_separation"},{"choice":0,"id":"36980854-9807-4e1b-AFC8-AF96C6928287","production_path":"","time_range":null,"type":"vocal_separation"},{"choice":0,"id":"316803F7-B5D0-411c-9BCE-4EBC9859A3F9","production_path":"","time_range":null,"type":"vocal_separation"},{"choice":0,"id":"B3151CAE-0E9F-4870-8C1E-F9E36DE6B962","production_path":"","time_range":null,"type":"vocal_separation"},{"choice":0,"id":"5106F410-C030-4def-B648-11DF45EEBFCB","production_path":"","time_range":null,"type":"vocal_separation"},{"choice":0,"id":"FA17673D-0B54-4c1a-AE93-0493125F5521","production_path":"","time_range":null,"type":"vocal_separation"},{"choice":0,"id":"9C6B203B-3DD0-43f8-969E-C6016CD150D6","production_path":"","time_range":null,"type":"vocal_separation"},{"choice":0,"id":"CF41C66C-5424-47dc-B96A-9550D9D33705","production_path":"","time_range":null,"type":"vocal_separation"},{"choice":0,"id":"6B3D79C1-0B19-4432-B1F6-71BE5F2DE920","production_path":"","time_range":null,"type":"vocal_separation"},{"choice":0,"id":"661E26DA-E3D1-4b89-A638-EBEE69E0E383","production_path":"","time_range":null,"type":"vocal_separation"},{"choice":0,"id":"C0E491B1-954D-4d7a-B534-42BCA38F9BFD","production_path":"","time_range":null,"type":"vocal_separation"},{"choice":0,"id":"2D6F0FEA-DF6E-4434-83D4-FB3BCCD227A5","production_path":"","time_range":null,"type":"vocal_separation"},{"choice":0,"id":"382B5F03-B574-4300-AC73-AC6401AC3FF4","production_path":"","time_range":null,"type":"vocal_separation"},{"choice":0,"id":"6B256C1F-1BB2-4c99-8126-3FDC20C189DC","production_path":"","time_range":null,"type":"vocal_separation"},{"choice":0,"id":"F38849FB-B08D-4b16-A6AE-F62456C50093","production_path":"","time_range":null,"type":"vocal_separation"},{"choice":0,"id":"9785BE09-9DC1-4b25-9065-509092AF735D","production_path":"","time_range":null,"type":"vocal_separation"},{"choice":0,"id":"783E3441-A5B8-4444-8546-1D3485C7C7F5","production_path":"","time_range":null,"type":"vocal_separation"},{"choice":0,"id":"BA9D60D4-8EB3-4788-A4C7-14B60C2809F5","production_path":"","time_range":null,"type":"vocal_separation"},{"choice":0,"id":"7E066EB0-DE7F-46dd-A7C1-94D50E9BF013","production_path":"","time_range":null,"type":"vocal_separation"},{"choice":0,"id":"3280B522-FA57-4333-807E-3A4B883E50B8","production_path":"","time_range":null,"type":"vocal_separation"},{"choice":0,"id":"5DA372D1-0E8B-4c9b-A484-0E31DF31440B","production_path":"","time_range":null,"type":"vocal_separation"},{"choice":0,"id":"01FABAE9-3F00-441d-A5CF-9DF9D5EECD14","production_path":"","time_range":null,"type":"vocal_separation"},{"choice":0,"id":"2081D95C-E99B-400c-9D2D-E3CB293DB677","production_path":"","time_range":null,"type":"vocal_separation"},{"choice":0,"id":"386312A0-7724-40ed-AA7F-A8196F73794A","production_path":"","time_range":null,"type":"vocal_separation"},{"choice":0,"id":"2CB4418F-94EB-4e96-ADF0-121C2D88357D","production_path":"","time_range":null,"type":"vocal_separation"},{"choice":0,"id":"5A89C087-6535-4b17-8648-8F2AFBBA99E6","production_path":"","time_range":null,"type":"vocal_separation"},{"choice":0,"id":"B0947B06-770B-401a-A08B-45C6C97B5826","production_path":"","time_range":null,"type":"vocal_separation"},{"choice":0,"id":"66A721C5-18B1-48e7-B137-B4AF1E813B19","production_path":"","time_range":null,"type":"vocal_separation"},{"choice":0,"id":"493CC583-F3AA-4877-B3CC-98CD5FAA5724","production_path":"","time_range":null,"type":"vocal_separation"},{"choice":0,"id":"CF2E8AA8-ADE2-4593-990C-8EE2DBE78917","production_path":"","time_range":null,"type":"vocal_separation"},{"choice":0,"id":"36203E55-543E-47a7-B522-15BFB92C4734","production_path":"","time_range":null,"type":"vocal_separation"},{"choice":0,"id":"DAF039BF-1750-43ac-A429-DC9F996A4FA2","production_path":"","time_range":null,"type":"vocal_separation"},{"choice":0,"id":"45756498-0B1B-4719-97E0-384FC5EB3081","production_path":"","time_range":null,"type":"vocal_separation"},{"choice":0,"id":"AD6B4D9C-ACB4-4350-8275-FD5710C8CEBD","production_path":"","time_range":null,"type":"vocal_separation"},{"choice":0,"id":"E8D45B20-2475-4669-9F5C-22A9DCCD83B6","production_path":"","time_range":null,"type":"vocal_separation"},{"choice":0,"id":"E2EEB55A-215D-42c5-A9A1-577325C99FEA","production_path":"","time_range":null,"type":"vocal_separation"},{"choice":0,"id":"5AFFDD35-7212-4c63-BAFC-F950068663EF","production_path":"","time_range":null,"type":"vocal_separation"},{"choice":0,"id":"A5A5222D-46B0-4fb6-A216-1C1F775B0641","production_path":"","time_range":null,"type":"vocal_separation"}]},"mutable_config":null,"name":"","new_version":"109.0.0","platform":{"app_id":359289,"app_source":"cc","app_version":"3.8.0","device_id":"a3a1eb5a9df8bcf1788471e662eed371","hard_disk_id":"13a23266baebada7f5d90f8ab88a28e4","mac_address":"d62f78d4d45d9e3a2f2e2172eecce606","os":"windows","os_version":"10.0.19045"},"relationships":[],"render_index_track_mode_on":false,"retouch_cover":null,"source":"default","static_cover_image_path":"","time_marks":null,"tracks":[{"attribute":0,"flag":0,"id":"541A7CFE-7204-43e7-B03C-F670A8BDD706","is_default_name":true,"name":"","segments":[{"caption_info":null,"cartoon":false,"clip":{"alpha":1.0,"flip":{"horizontal":false,"vertical":false},"rotation":0.0,"scale":{"x":1.0,"y":1.0},"transform":{"x":0.0,"y":0.0}},"common_keyframes":[],"enable_adjust":true,"enable_color_curves":true,"enable_color_match_adjust":false,"enable_color_wheels":true,"enable_lut":true,"enable_smart_color_adjust":false,"extra_material_refs":["4520AD84-C497-4745-8E1E-906B902F5B9B","84107FEB-FC9C-4066-9429-D6309ADFB76B","7932CAED-CF83-47ef-B559-6DA8C574F6AE","A3E04A32-C952-4ae2-AFF4-1286ACDEF8D3","B5717091-72D4-4887-A7A1-AEAD164F1D38","43C94E2F-EFA4-401b-A603-563A0A36D681","D81D985D-DE8A-4460-93E6-F92F4EDEE495"],"group_id":"","hdr_settings":{"intensity":1.0,"mode":1,"nits":1000},"id":"A2713BEA-9750-457c-913D-3667104EDFAD","intensifies_audio":false,"is_placeholder":false,"is_tone_modify":false,"keyframe_refs":[],"last_nonzero_volume":1.0,"material_id":"2989DA95-AB70-44bd-A857-4494D87AA072","render_index":0,"responsive_layout":{"enable":false,"horizontal_pos_layout":0,"size_layout":0,"target_follow":"","vertical_pos_layout":0},"reverse":false,"source_timerange":{"duration":1500000,"start":1300000},"speed":1.0,"target_timerange":{"duration":1500000,"start":0},"template_id":"","template_scene":"default","track_attribute":0,"track_render_index":0,"uniform_scale":{"on":true,"value":1.0},"visible":true,"volume":1.0},{"caption_info":null,"cartoon":false,"clip":{"alpha":1.0,"flip":{"horizontal":false,"vertical":false},"rotation":0.0,"scale":{"x":1.0672599337748343,"y":1.0672599337748343},"transform":{"x":0.0,"y":0.0}},"common_keyframes":[],"enable_adjust":true,"enable_color_curves":true,"enable_color_match_adjust":false,"enable_color_wheels":true,"enable_lut":true,"enable_smart_color_adjust":false,"extra_material_refs":["953DCF8A-D802-44d0-A461-E4A15F376E13","23B50D08-F1CA-41ee-A322-0F72579CE501","9EF4A4CE-E1BC-4fdc-AEAC-31EC259D01E8","0546386A-775A-4d85-BDFA-6CC7FB511CFD","590532A4-0FF1-4429-83F5-987DED6F356E","049BDCC9-81B4-450a-B293-CE81E351655C"],"group_id":"","hdr_settings":{"intensity":1.0,"mode":1,"nits":1000},"id":"755F5919-10B9-4f5c-AB4F-E0637749B6CB","intensifies_audio":false,"is_placeholder":false,"is_tone_modify":false,"keyframe_refs":[],"last_nonzero_volume":1.0,"material_id":"4A0D2428-8D90-4d87-A01B-BC1A549E147D","render_index":0,"responsive_layout":{"enable":false,"horizontal_pos_layout":0,"size_layout":0,"target_follow":"","vertical_pos_layout":0},"reverse":false,"source_timerange":{"duration":2000000,"start":0},"speed":1.0,"target_timerange":{"duration":2000000,"start":1500000},"template_id":"","template_scene":"default","track_attribute":0,"track_render_index":0,"uniform_scale":{"on":true,"value":1.0},"visible":true,"volume":1.0},{"caption_info":null,"cartoon":false,"clip":{"alpha":1.0,"flip":{"horizontal":false,"vertical":false},"rotation":0.0,"scale":{"x":1.0,"y":1.0},"transform":{"x":0.0,"y":0.0}},"common_keyframes":[],"enable_adjust":true,"enable_color_curves":true,"enable_color_match_adjust":false,"enable_color_wheels":true,"enable_lut":true,"enable_smart_color_adjust":false,"extra_material_refs":["27371F09-047D-40c8-A3B6-0845BB945CD3","0EF8D13B-590E-48fd-906A-E775E0D59B7C","5B36B40E-4555-47b0-A915-7D1ECC0C1250","5DEE0842-7EE1-4c19-96FE-443047EB2008","2424ED17-B6FC-4c46-8789-A52FB266F69F","999409AB-FFE5-40e6-AF4F-4EBA1128D16F","9601EDBF-0F99-41c2-912A-752903FFDFD4"],"group_id":"","hdr_settings":{"intensity":1.0,"mode":1,"nits":1000},"id":"A4D2F426-297A-4e23-A177-20ADA2811F50","intensifies_audio":false,"is_placeholder":false,"is_tone_modify":false,"keyframe_refs":[],"last_nonzero_volume":1.0,"material_id":"F99DDEB6-2E42-4a67-ADC3-AA0B3A38B035","render_index":0,"responsive_layout":{"enable":false,"horizontal_pos_layout":0,"size_layout":0,"target_follow":"","vertical_pos_layout":0},"reverse":false,"source_timerange":{"duration":1333334,"start":16366666},"speed":1.0,"target_timerange":{"duration":1333333,"start":3500000},"template_id":"","template_scene":"default","track_attribute":0,"track_render_index":0,"uniform_scale":{"on":true,"value":1.0},"visible":true,"volume":1.0},{"caption_info":null,"cartoon":false,"clip":{"alpha":1.0,"flip":{"horizontal":false,"vertical":false},"rotation":0.0,"scale":{"x":1.0,"y":1.0},"transform":{"x":0.0,"y":0.0}},"common_keyframes":[],"enable_adjust":true,"enable_color_curves":true,"enable_color_match_adjust":false,"enable_color_wheels":true,"enable_lut":true,"enable_smart_color_adjust":false,"extra_material_refs":["2A2B5F51-C8F3-400b-AE9C-86D8E9FA09B1","7A755EFB-7595-49e2-904C-359E0D2E5C50","417A6F4C-41C6-4d20-823B-3EFAA2ACF3A0","04BD5503-541C-44e6-8DCA-38339A0B7F74","287220CA-D7A5-406a-A1C2-5950C4B6E872","FB5CD772-8C50-42cf-B6DB-862CD5DB2742","244E313A-0AA1-431b-A4C3-168D192060EA"],"group_id":"","hdr_settings":{"intensity":1.0,"mode":1,"nits":1000},"id":"5A0A89A7-0614-4bc2-B715-CEF4C50FB15F","intensifies_audio":false,"is_placeholder":false,"is_tone_modify":false,"keyframe_refs":[],"last_nonzero_volume":1.0,"material_id":"E588FC00-DB0C-48f0-9C55-E171F8135A60","render_index":0,"responsive_layout":{"enable":false,"horizontal_pos_layout":0,"size_layout":0,"target_follow":"","vertical_pos_layout":0},"reverse":false,"source_timerange":{"duration":1900000,"start":0},"speed":1.0,"target_timerange":{"duration":1900000,"start":4833333},"template_id":"","template_scene":"default","track_attribute":0,"track_render_index":0,"uniform_scale":{"on":true,"value":1.0},"visible":true,"volume":1.0},{"caption_info":null,"cartoon":false,"clip":{"alpha":1.0,"flip":{"horizontal":false,"vertical":false},"rotation":0.0,"scale":{"x":1.0665322580645162,"y":1.0665322580645162},"transform":{"x":0.0,"y":0.0}},"common_keyframes":[],"enable_adjust":true,"enable_color_curves":true,"enable_color_match_adjust":false,"enable_color_wheels":true,"enable_lut":true,"enable_smart_color_adjust":false,"extra_material_refs":["4D1C4074-D8E4-4fc8-901B-005D077BA024","03323706-CB61-46d0-B5FF-5C00CFC804FC","E17ABF8D-5F41-4e18-8BA3-17157E87622C","14D2CF7F-F88B-483a-9BF4-64D4F37679C0","DCD641BF-57D4-4bf6-937B-13580A3EB184","7DA48F94-374C-4000-B369-5DEE6AF513AD"],"group_id":"","hdr_settings":{"intensity":1.0,"mode":1,"nits":1000},"id":"66D96BF1-E825-4957-B8BB-431AC517CC6E","intensifies_audio":false,"is_placeholder":false,"is_tone_modify":false,"keyframe_refs":[],"last_nonzero_volume":1.0,"material_id":"D8DC09EE-C1F1-4854-B0C2-135518C5F176","render_index":0,"responsive_layout":{"enable":false,"horizontal_pos_layout":0,"size_layout":0,"target_follow":"","vertical_pos_layout":0},"reverse":false,"source_timerange":{"duration":4533333,"start":0},"speed":1.0,"target_timerange":{"duration":4533333,"start":6733333},"template_id":"","template_scene":"default","track_attribute":0,"track_render_index":0,"uniform_scale":{"on":true,"value":1.0},"visible":true,"volume":1.0},{"caption_info":null,"cartoon":false,"clip":{"alpha":1.0,"flip":{"horizontal":false,"vertical":false},"rotation":0.0,"scale":{"x":1.0,"y":1.0},"transform":{"x":0.0,"y":0.0}},"common_keyframes":[],"enable_adjust":true,"enable_color_curves":true,"enable_color_match_adjust":false,"enable_color_wheels":true,"enable_lut":true,"enable_smart_color_adjust":false,"extra_material_refs":["90469A86-6C75-4573-AC53-69AA447A57E3","9CE4036E-A00E-45a8-B8A1-B113DB04D2C0","04835052-7991-4142-8170-F5660C7BA70F","E0FED4CB-6EDF-4a12-B9A1-578B841FE36A","F940CE28-FC1B-45f7-B278-DCA8C20DEC38","850D50BC-7A03-4e97-A340-08F5677285B2"],"group_id":"","hdr_settings":{"intensity":1.0,"mode":1,"nits":1000},"id":"5AD5FC62-E9C9-4d5e-B23B-FEAA156CA5C9","intensifies_audio":false,"is_placeholder":false,"is_tone_modify":false,"keyframe_refs":[],"last_nonzero_volume":1.0,"material_id":"2B17A070-BC2B-4880-98DC-CD1D66C97A0D","render_index":0,"responsive_layout":{"enable":false,"horizontal_pos_layout":0,"size_layout":0,"target_follow":"","vertical_pos_layout":0},"reverse":false,"source_timerange":{"duration":3000000,"start":0},"speed":1.0,"target_timerange":{"duration":3000000,"start":11266666},"template_id":"","template_scene":"default","track_attribute":0,"track_render_index":0,"uniform_scale":{"on":true,"value":1.0},"visible":true,"volume":1.0},{"caption_info":null,"cartoon":false,"clip":{"alpha":1.0,"flip":{"horizontal":false,"vertical":false},"rotation":0.0,"scale":{"x":2.065939187057464,"y":2.065939187057464},"transform":{"x":0.0,"y":0.0}},"common_keyframes":[],"enable_adjust":true,"enable_color_curves":true,"enable_color_match_adjust":false,"enable_color_wheels":true,"enable_lut":true,"enable_smart_color_adjust":false,"extra_material_refs":["B944C939-04B1-4146-805D-4655B138B03F","F862A9BB-3223-4793-9F34-14C1348B899F","92CFA02C-2F5D-4416-8FF5-BFDAD5FB3ABB","C3DA21B7-0933-4778-888F-F84BBD06FCEB","8FF2573B-AC6B-4f82-BD26-B951A375AD2A","9C6C1C16-0821-4056-997B-13B975C422BC"],"group_id":"","hdr_settings":{"intensity":1.0,"mode":1,"nits":1000},"id":"2EC1604F-D461-4683-AFCC-42F19A7D126B","intensifies_audio":false,"is_placeholder":false,"is_tone_modify":false,"keyframe_refs":[],"last_nonzero_volume":1.0,"material_id":"3BD20C1D-2A88-420e-ADF0-68CC7CFAADF8","render_index":0,"responsive_layout":{"enable":false,"horizontal_pos_layout":0,"size_layout":0,"target_follow":"","vertical_pos_layout":0},"reverse":false,"source_timerange":{"duration":1900000,"start":0},"speed":1.0,"target_timerange":{"duration":1900000,"start":14266666},"template_id":"","template_scene":"default","track_attribute":0,"track_render_index":0,"uniform_scale":{"on":true,"value":1.0},"visible":true,"volume":1.0},{"caption_info":null,"cartoon":false,"clip":{"alpha":1.0,"flip":{"horizontal":false,"vertical":false},"rotation":0.0,"scale":{"x":1.0,"y":1.0},"transform":{"x":0.0,"y":0.0}},"common_keyframes":[],"enable_adjust":true,"enable_color_curves":true,"enable_color_match_adjust":false,"enable_color_wheels":true,"enable_lut":true,"enable_smart_color_adjust":false,"extra_material_refs":["13116296-F959-46d9-B814-F27FF846B1A7","25BFF247-AF79-46e7-A2A1-638466C5E324","FAADBA64-FB41-44df-9BDA-1615635E21AD","DD79644A-2DA3-4f50-967E-BD0A14E38079","2DD3B88C-8393-4635-8C22-35128270665A","93FC22ED-7FDB-48bb-97CA-E6603BE4DB09"],"group_id":"","hdr_settings":{"intensity":1.0,"mode":1,"nits":1000},"id":"9E4679AB-BC28-4f61-AD94-933D656CFF48","intensifies_audio":false,"is_placeholder":false,"is_tone_modify":false,"keyframe_refs":[],"last_nonzero_volume":1.0,"material_id":"89439876-9B20-4e17-9E97-242800CCB56D","render_index":0,"responsive_layout":{"enable":false,"horizontal_pos_layout":0,"size_layout":0,"target_follow":"","vertical_pos_layout":0},"reverse":false,"source_timerange":{"duration":3333333,"start":0},"speed":1.0,"target_timerange":{"duration":3333334,"start":16166666},"template_id":"","template_scene":"default","track_attribute":0,"track_render_index":0,"uniform_scale":{"on":true,"value":1.0},"visible":true,"volume":1.0},{"caption_info":null,"cartoon":false,"clip":{"alpha":1.0,"flip":{"horizontal":false,"vertical":false},"rotation":0.0,"scale":{"x":1.0,"y":1.0},"transform":{"x":0.0,"y":0.0}},"common_keyframes":[],"enable_adjust":true,"enable_color_curves":true,"enable_color_match_adjust":false,"enable_color_wheels":true,"enable_lut":true,"enable_smart_color_adjust":false,"extra_material_refs":["48CE2DF2-9A53-45b5-8DCF-89DF14814997","597A234C-6ACE-42ca-8175-A89212D0824B","1225717C-E85B-44ef-A45C-EF60F875C9AA","C23F9CD1-821C-4817-A88F-A48C3BC4FD5A","D8141366-1DA0-41f1-AC01-F0B4B6BA7402","55E888C6-3439-4924-83CF-868530A5552B"],"group_id":"","hdr_settings":{"intensity":1.0,"mode":1,"nits":1000},"id":"B6249349-43DE-41e1-B8F7-E04204E098D1","intensifies_audio":false,"is_placeholder":false,"is_tone_modify":false,"keyframe_refs":[],"last_nonzero_volume":1.0,"material_id":"D6D26C4D-8AB9-4547-8C3E-0F6A5A793C62","render_index":0,"responsive_layout":{"enable":false,"horizontal_pos_layout":0,"size_layout":0,"target_follow":"","vertical_pos_layout":0},"reverse":false,"source_timerange":{"duration":1433333,"start":3033333},"speed":1.0,"target_timerange":{"duration":1433333,"start":19500000},"template_id":"","template_scene":"default","track_attribute":0,"track_render_index":0,"uniform_scale":{"on":true,"value":1.0},"visible":true,"volume":1.0},{"caption_info":null,"cartoon":false,"clip":{"alpha":1.0,"flip":{"horizontal":false,"vertical":false},"rotation":0.0,"scale":{"x":1.0,"y":1.0},"transform":{"x":0.0,"y":0.0}},"common_keyframes":[],"enable_adjust":true,"enable_color_curves":true,"enable_color_match_adjust":false,"enable_color_wheels":true,"enable_lut":true,"enable_smart_color_adjust":false,"extra_material_refs":["7CD4A67C-8D23-43f8-9A2B-DBAFFC311991","02B261D9-EF4D-4325-B43B-048C0CEA498B","D723C32F-9CCF-4a8f-8547-EC6F6C6F2B83","9CAACBD7-22C6-4519-AFA0-CD6D2A271C93","864AAD49-0D9E-454a-B2E4-A9CF2E9E3998","527AA403-0336-480b-9C45-2CBA7AF0E459"],"group_id":"","hdr_settings":{"intensity":1.0,"mode":1,"nits":1000},"id":"26F7CCD4-478D-4312-B4FB-F395AF0E5A7F","intensifies_audio":false,"is_placeholder":false,"is_tone_modify":false,"keyframe_refs":[],"last_nonzero_volume":1.0,"material_id":"1202A59D-AE5B-4fc3-B93E-39474D831FD8","render_index":0,"responsive_layout":{"enable":false,"horizontal_pos_layout":0,"size_layout":0,"target_follow":"","vertical_pos_layout":0},"reverse":false,"source_timerange":{"duration":1500000,"start":0},"speed":1.0,"target_timerange":{"duration":1500000,"start":20933333},"template_id":"","template_scene":"default","track_attribute":0,"track_render_index":0,"uniform_scale":{"on":true,"value":1.0},"visible":true,"volume":1.0},{"caption_info":null,"cartoon":false,"clip":{"alpha":1.0,"flip":{"horizontal":false,"vertical":false},"rotation":0.0,"scale":{"x":1.0,"y":1.0},"transform":{"x":0.0,"y":0.0}},"common_keyframes":[],"enable_adjust":true,"enable_color_curves":true,"enable_color_match_adjust":false,"enable_color_wheels":true,"enable_lut":true,"enable_smart_color_adjust":false,"extra_material_refs":["C00F3404-816A-40f7-9131-BF4DCAE0434C","07007475-43FB-4248-8DE8-03E9ABB8BDE6","CE618A99-A8ED-4de2-9A6A-0C91C8B2519C","DF23F677-2EB4-4a15-ADC8-2E3F2F9B479B","3B1D8177-9BF8-4031-953D-4A232DC86069","08FE13DC-8351-49f5-B491-8B280C9A3D0C"],"group_id":"","hdr_settings":{"intensity":1.0,"mode":1,"nits":1000},"id":"C1808922-ED86-4e7a-AFE3-CE0CB44287E4","intensifies_audio":false,"is_placeholder":false,"is_tone_modify":false,"keyframe_refs":[],"last_nonzero_volume":1.0,"material_id":"D8059ADA-432B-4f17-9CEC-6A6314CF0624","render_index":0,"responsive_layout":{"enable":false,"horizontal_pos_layout":0,"size_layout":0,"target_follow":"","vertical_pos_layout":0},"reverse":false,"source_timerange":{"duration":3200000,"start":0},"speed":1.0,"target_timerange":{"duration":3200000,"start":22433333},"template_id":"","template_scene":"default","track_attribute":0,"track_render_index":0,"uniform_scale":{"on":true,"value":1.0},"visible":true,"volume":1.0},{"caption_info":null,"cartoon":false,"clip":{"alpha":1.0,"flip":{"horizontal":false,"vertical":false},"rotation":0.0,"scale":{"x":1.0,"y":1.0},"transform":{"x":0.0,"y":0.0}},"common_keyframes":[],"enable_adjust":true,"enable_color_curves":true,"enable_color_match_adjust":false,"enable_color_wheels":true,"enable_lut":true,"enable_smart_color_adjust":false,"extra_material_refs":["72AEADED-770E-4373-9EB2-A84E86E7EAF2","1C0B7086-2759-414c-9D41-F2CA46592B33","78A05216-7A87-4428-B5C4-C59957A12FD8","7D282DE9-75E8-4683-BD2D-7BE9551DF5E8","233E1380-15E1-4a2c-937B-EDF71224D26D","C4BF76BF-8F55-48a5-860E-084C3F669241","80CB3CF9-9B9E-4ca0-BE9C-1A6B45C2E829"],"group_id":"","hdr_settings":{"intensity":1.0,"mode":1,"nits":1000},"id":"25666A26-5B1E-4945-8778-903DAD3A57D0","intensifies_audio":false,"is_placeholder":false,"is_tone_modify":false,"keyframe_refs":[],"last_nonzero_volume":1.0,"material_id":"9355D215-54E3-4be1-9B69-A30FEF4090A5","render_index":0,"responsive_layout":{"enable":false,"horizontal_pos_layout":0,"size_layout":0,"target_follow":"","vertical_pos_layout":0},"reverse":false,"source_timerange":{"duration":4200000,"start":0},"speed":1.0,"target_timerange":{"duration":4200000,"start":25633333},"template_id":"","template_scene":"default","track_attribute":0,"track_render_index":0,"uniform_scale":{"on":true,"value":1.0},"visible":true,"volume":1.0},{"caption_info":null,"cartoon":false,"clip":{"alpha":1.0,"flip":{"horizontal":false,"vertical":false},"rotation":0.0,"scale":{"x":1.0665322580645162,"y":1.0665322580645162},"transform":{"x":0.0,"y":0.0}},"common_keyframes":[],"enable_adjust":true,"enable_color_curves":true,"enable_color_match_adjust":false,"enable_color_wheels":true,"enable_lut":true,"enable_smart_color_adjust":false,"extra_material_refs":["9DAEB989-8338-42e4-8AAB-F9B79EFB95D4","DE525DD4-0C20-44b4-9ADD-7534208420D4","B0986BEE-24ED-49aa-9917-26E2BEF83586","7B95FF31-8A26-4210-B07F-74743562AB72","D7A04646-F543-48bf-BCDC-10535ADA9C5A","29C9CF5F-A78D-4035-9448-FC78CE32E163"],"group_id":"","hdr_settings":{"intensity":1.0,"mode":1,"nits":1000},"id":"F0290D33-7477-4a04-B388-2E785961F379","intensifies_audio":false,"is_placeholder":false,"is_tone_modify":false,"keyframe_refs":[],"last_nonzero_volume":1.0,"material_id":"6792AA57-8032-4184-906F-0EBDE87BF45C","render_index":0,"responsive_layout":{"enable":false,"horizontal_pos_layout":0,"size_layout":0,"target_follow":"","vertical_pos_layout":0},"reverse":false,"source_timerange":{"duration":3666666,"start":0},"speed":1.0,"target_timerange":{"duration":3666667,"start":29833333},"template_id":"","template_scene":"default","track_attribute":0,"track_render_index":0,"uniform_scale":{"on":true,"value":1.0},"visible":true,"volume":1.0},{"caption_info":null,"cartoon":false,"clip":{"alpha":1.0,"flip":{"horizontal":false,"vertical":false},"rotation":0.0,"scale":{"x":1.0665322580645162,"y":1.0665322580645162},"transform":{"x":0.0,"y":0.0}},"common_keyframes":[],"enable_adjust":true,"enable_color_curves":true,"enable_color_match_adjust":false,"enable_color_wheels":true,"enable_lut":true,"enable_smart_color_adjust":false,"extra_material_refs":["FDE6C330-D1CF-4ff6-A958-5471B6E40AAB","50CA8C3D-CCE5-47c6-9F56-558B12264372","18659B09-5515-4493-916B-0D2E29F0C986","721A8CC9-61A9-4689-80A0-88215E7B6782","F7034127-05C7-4c67-A669-E142757C182B"],"group_id":"","hdr_settings":{"intensity":1.0,"mode":1,"nits":1000},"id":"2E7EF735-9161-485b-9C12-CD36CCDFF5C7","intensifies_audio":false,"is_placeholder":false,"is_tone_modify":false,"keyframe_refs":[],"last_nonzero_volume":1.0,"material_id":"2E64D430-2D29-40d2-AAA4-20A114B35FAD","render_index":0,"responsive_layout":{"enable":false,"horizontal_pos_layout":0,"size_layout":0,"target_follow":"","vertical_pos_layout":0},"reverse":false,"source_timerange":{"duration":6733333,"start":0},"speed":1.0,"target_timerange":{"duration":6733333,"start":33500000},"template_id":"","template_scene":"default","track_attribute":0,"track_render_index":0,"uniform_scale":{"on":true,"value":1.0},"visible":true,"volume":1.0},{"caption_info":null,"cartoon":false,"clip":{"alpha":1.0,"flip":{"horizontal":false,"vertical":false},"rotation":0.0,"scale":{"x":1.0665322580645162,"y":1.0665322580645162},"transform":{"x":0.0,"y":0.0}},"common_keyframes":[],"enable_adjust":true,"enable_color_curves":true,"enable_color_match_adjust":false,"enable_color_wheels":true,"enable_lut":true,"enable_smart_color_adjust":false,"extra_material_refs":["42649782-48CF-426a-BE33-6E26A9B858A4","2E7C0E41-3283-461c-AFC8-DF84ADABC740","0D158F01-9025-44b0-9CDF-E41E3CEF711F","8F87C8B3-2FF4-46b9-8F3B-C6A4D39D470B","499B650A-140D-45b8-AA7F-430CAE625BFD"],"group_id":"","hdr_settings":{"intensity":1.0,"mode":1,"nits":1000},"id":"3F655CC7-4A11-47b3-B533-7E02083CCE46","intensifies_audio":false,"is_placeholder":false,"is_tone_modify":false,"keyframe_refs":[],"last_nonzero_volume":1.0,"material_id":"26442908-D119-4c64-B860-960965B069E3","render_index":0,"responsive_layout":{"enable":false,"horizontal_pos_layout":0,"size_layout":0,"target_follow":"","vertical_pos_layout":0},"reverse":false,"source_timerange":{"duration":6733333,"start":0},"speed":1.0,"target_timerange":{"duration":6733333,"start":40233333},"template_id":"","template_scene":"default","track_attribute":0,"track_render_index":0,"uniform_scale":{"on":true,"value":1.0},"visible":true,"volume":1.0}],"type":"video"},{"attribute":0,"flag":2,"id":"151B7DE8-1CFD-49f9-B4D6-3E3FC136E794","is_default_name":true,"name":"","segments":[{"caption_info":null,"cartoon":false,"clip":{"alpha":1.0,"flip":{"horizontal":false,"vertical":false},"rotation":0.0,"scale":{"x":1.1330645161290327,"y":1.1330645161290327},"transform":{"x":0.0,"y":0.0}},"common_keyframes":[],"enable_adjust":true,"enable_color_curves":true,"enable_color_match_adjust":false,"enable_color_wheels":true,"enable_lut":true,"enable_smart_color_adjust":false,"extra_material_refs":["A6E71487-56DF-405f-99B9-6CE317857CD6","E6054F32-CF1F-4368-BAB2-CFC37D27A3F0","64DEEE26-4347-4a0c-8D7D-204A50AC5E51","62F2FC4C-1068-4e2f-B13B-B50659808C2D","19F0F73E-DBDC-4d0e-ABB4-E70A9BCFF34A"],"group_id":"","hdr_settings":{"intensity":1.0,"mode":1,"nits":1000},"id":"B00BC613-A60B-4972-9491-E687A45ADE8C","intensifies_audio":false,"is_placeholder":false,"is_tone_modify":false,"keyframe_refs":[],"last_nonzero_volume":1.0,"material_id":"E408A1C9-DB61-4238-A56C-718FCBEFFC6E","render_index":1,"responsive_layout":{"enable":false,"horizontal_pos_layout":0,"size_layout":0,"target_follow":"","vertical_pos_layout":0},"reverse":false,"source_timerange":{"duration":4200000,"start":2933333},"speed":1.0,"target_timerange":{"duration":4200000,"start":25633333},"template_id":"","template_scene":"default","track_attribute":0,"track_render_index":0,"uniform_scale":{"on":true,"value":1.0},"visible":true,"volume":1.0},{"caption_info":null,"cartoon":false,"clip":{"alpha":1.0,"flip":{"horizontal":false,"vertical":false},"rotation":0.0,"scale":{"x":1.0,"y":1.0},"transform":{"x":0.0,"y":0.0}},"common_keyframes":[],"enable_adjust":true,"enable_color_curves":true,"enable_color_match_adjust":false,"enable_color_wheels":true,"enable_lut":true,"enable_smart_color_adjust":false,"extra_material_refs":["6AD7387E-C8DE-452b-AD6E-7DA7FF56AC46","89505C13-B9F3-42a2-99A1-1A4D4635768D","B6D3AD42-E19C-4a47-8FC0-6D830F910DBB","55029EE2-A2BD-4d00-B33C-22008B832826"],"group_id":"","hdr_settings":{"intensity":1.0,"mode":1,"nits":1000},"id":"77AC434E-3C5F-4ea4-B90E-F41AF62B8F84","intensifies_audio":false,"is_placeholder":false,"is_tone_modify":false,"keyframe_refs":[],"last_nonzero_volume":1.0,"material_id":"32EA7487-18D2-4cd4-97DD-593D6A67F8C7","render_index":1,"responsive_layout":{"enable":false,"horizontal_pos_layout":0,"size_layout":0,"target_follow":"","vertical_pos_layout":0},"reverse":false,"source_timerange":{"duration":12866666,"start":0},"speed":1.0,"target_timerange":{"duration":12866667,"start":52266666},"template_id":"","template_scene":"default","track_attribute":0,"track_render_index":0,"uniform_scale":{"on":true,"value":1.0},"visible":true,"volume":1.0},{"caption_info":null,"cartoon":false,"clip":{"alpha":1.0,"flip":{"horizontal":false,"vertical":false},"rotation":0.0,"scale":{"x":1.0,"y":1.0},"transform":{"x":0.0,"y":0.0}},"common_keyframes":[],"enable_adjust":true,"enable_color_curves":true,"enable_color_match_adjust":false,"enable_color_wheels":true,"enable_lut":true,"enable_smart_color_adjust":false,"extra_material_refs":["8303AD99-C269-46b4-BF54-57D42A6A2138","26DD70D9-41BD-4982-ACE4-ED8545C136BD","95BB8C62-58BE-4f7c-94F2-0D67273D73D6","6D825B34-A0CF-46cf-9F9C-A00C9D66B424","EDA35543-C34E-4fd9-AB2E-5E71DB687137"],"group_id":"","hdr_settings":{"intensity":1.0,"mode":1,"nits":1000},"id":"93B701D9-4703-4b55-BDAC-3DC4B84C8381","intensifies_audio":false,"is_placeholder":false,"is_tone_modify":false,"keyframe_refs":[],"last_nonzero_volume":1.0,"material_id":"A316D482-D6DB-4536-A872-1D257A349A93","render_index":1,"responsive_layout":{"enable":false,"horizontal_pos_layout":0,"size_layout":0,"target_follow":"","vertical_pos_layout":0},"reverse":false,"source_timerange":{"duration":7966667,"start":13166666},"speed":1.0,"target_timerange":{"duration":7966667,"start":128033333},"template_id":"","template_scene":"default","track_attribute":0,"track_render_index":0,"uniform_scale":{"on":true,"value":1.0},"visible":true,"volume":1.0},{"caption_info":null,"cartoon":false,"clip":{"alpha":1.0,"flip":{"horizontal":false,"vertical":false},"rotation":0.0,"scale":{"x":1.0,"y":1.0},"transform":{"x":0.0,"y":0.0}},"common_keyframes":[],"enable_adjust":true,"enable_color_curves":true,"enable_color_match_adjust":false,"enable_color_wheels":true,"enable_lut":true,"enable_smart_color_adjust":false,"extra_material_refs":["C90C77E9-BD50-4d6d-B974-8DA141CF680F","FBB72515-B661-4c15-944F-CD821E8B9A3F","5D3FCBFB-654D-4978-8B8B-072E637CF0FE","20CAD0B8-57CB-41bb-8532-A08EBDD29E0A","B8FF36BA-6A7C-4a1b-976B-E28A63A45270"],"group_id":"","hdr_settings":{"intensity":1.0,"mode":1,"nits":1000},"id":"83F179FD-6CBB-42fa-8127-650A7B6C7E64","intensifies_audio":false,"is_placeholder":false,"is_tone_modify":false,"keyframe_refs":[],"last_nonzero_volume":1.0,"material_id":"A1036F98-6C21-4e0f-B53E-A6F339AD192F","render_index":1,"responsive_layout":{"enable":false,"horizontal_pos_layout":0,"size_layout":0,"target_follow":"","vertical_pos_layout":0},"reverse":false,"source_timerange":{"duration":21966667,"start":10533333},"speed":1.0,"target_timerange":{"duration":21966667,"start":142533333},"template_id":"","template_scene":"default","track_attribute":0,"track_render_index":0,"uniform_scale":{"on":true,"value":1.0},"visible":true,"volume":1.0},{"caption_info":null,"cartoon":false,"clip":{"alpha":1.0,"flip":{"horizontal":false,"vertical":false},"rotation":0.0,"scale":{"x":1.0,"y":1.0},"transform":{"x":0.0,"y":0.0}},"common_keyframes":[],"enable_adjust":true,"enable_color_curves":true,"enable_color_match_adjust":false,"enable_color_wheels":true,"enable_lut":true,"enable_smart_color_adjust":false,"extra_material_refs":["E4BEA31D-AE7E-459e-B660-CE77285F14B5","449D0D9A-34C4-4e41-AFC2-5FC0E7792E21","DA92678A-505D-4066-AED9-3410E6FD8873","FED18FE5-2874-4e97-9CC2-92686BEC7C56","3D2B6351-D44A-491f-8D32-BA340053FA88"],"group_id":"","hdr_settings":{"intensity":1.0,"mode":1,"nits":1000},"id":"5461A0AB-7416-4d4a-95D5-ACA8B38970DC","intensifies_audio":false,"is_placeholder":false,"is_tone_modify":false,"keyframe_refs":[],"last_nonzero_volume":1.0,"material_id":"CC86AE00-02F8-4eb7-BAF7-1BD2ED8EFC33","render_index":1,"responsive_layout":{"enable":false,"horizontal_pos_layout":0,"size_layout":0,"target_follow":"","vertical_pos_layout":0},"reverse":false,"source_timerange":{"duration":24566667,"start":16233333},"speed":1.0,"target_timerange":{"duration":24566667,"start":196233333},"template_id":"","template_scene":"default","track_attribute":0,"track_render_index":0,"uniform_scale":{"on":true,"value":1.0},"visible":true,"volume":1.0}],"type":"video"},{"attribute":0,"flag":2,"id":"DB92ECF2-44F1-44c0-8B25-F654D625B733","is_default_name":true,"name":"","segments":[{"caption_info":null,"cartoon":false,"clip":{"alpha":1.0,"flip":{"horizontal":false,"vertical":false},"rotation":0.0,"scale":{"x":1.1330645161290327,"y":1.1330645161290327},"transform":{"x":0.5127599243856333,"y":0.0}},"common_keyframes":[],"enable_adjust":true,"enable_color_curves":true,"enable_color_match_adjust":false,"enable_color_wheels":true,"enable_lut":true,"enable_smart_color_adjust":false,"extra_material_refs":["1090FCF6-1111-4bff-93D9-4C36813147B0","77BAF5C8-C13F-43e8-9CB4-489602FD7F2D","0B7C3E0B-5AE6-4c76-9754-33BE4B633D9F","82063BD1-85C1-4ee5-BBA3-C3EACD928C2A","AD56C93B-EE6C-4975-A9A7-7381BA8BDB09"],"group_id":"","hdr_settings":{"intensity":1.0,"mode":1,"nits":1000},"id":"61DE1972-C356-4232-B813-BF99DD813BE9","intensifies_audio":false,"is_placeholder":false,"is_tone_modify":false,"keyframe_refs":[],"last_nonzero_volume":1.0,"material_id":"76644E0E-8C27-406b-942F-DFC25838A249","render_index":2,"responsive_layout":{"enable":false,"horizontal_pos_layout":0,"size_layout":0,"target_follow":"","vertical_pos_layout":0},"reverse":false,"source_timerange":{"duration":2933333,"start":2933333},"speed":1.0,"target_timerange":{"duration":2933333,"start":25633333},"template_id":"","template_scene":"default","track_attribute":0,"track_render_index":0,"uniform_scale":{"on":true,"value":1.0},"visible":true,"volume":1.0}],"type":"video"},{"attribute":0,"flag":0,"id":"2615BB3C-B5C6-4b87-BCAA-CE0B674E5E64","is_default_name":true,"name":"","segments":[{"caption_info":null,"cartoon":false,"clip":{"alpha":1.0,"flip":{"horizontal":false,"vertical":false},"rotation":0.0,"scale":{"x":1.6366853245834139,"y":1.6366853245834139},"transform":{"x":0.0,"y":0.0}},"common_keyframes":[],"enable_adjust":false,"enable_color_curves":true,"enable_color_match_adjust":false,"enable_color_wheels":true,"enable_lut":false,"enable_smart_color_adjust":false,"extra_material_refs":["2DC60973-FC2A-44b1-BCD0-B46261BD451A"],"group_id":"","hdr_settings":null,"id":"E99D9AFA-C9C2-42e2-80FB-C80B55D3B258","intensifies_audio":false,"is_placeholder":false,"is_tone_modify":false,"keyframe_refs":[],"last_nonzero_volume":1.0,"material_id":"D79DF35C-5B64-48fb-A07B-F5B2E2B02CD2","render_index":14000,"responsive_layout":{"enable":false,"horizontal_pos_layout":0,"size_layout":0,"target_follow":"","vertical_pos_layout":0},"reverse":false,"source_timerange":null,"speed":1.0,"target_timerange":{"duration":6666667,"start":33566666},"template_id":"","template_scene":"default","track_attribute":0,"track_render_index":0,"uniform_scale":{"on":true,"value":1.0},"visible":true,"volume":1.0},{"caption_info":null,"cartoon":false,"clip":{"alpha":1.0,"flip":{"horizontal":false,"vertical":false},"rotation":0.0,"scale":{"x":1.59,"y":1.59},"transform":{"x":-0.47258979206049145,"y":0.6003584229390682}},"common_keyframes":[{"id":"F17D4C55-53EE-4026-A17D-654A801ECF5C","keyframe_list":[{"curveType":"Line","graphID":"","id":"D537F695-8B85-4f45-A317-C70A8778E9F8","left_control":{"x":0.0,"y":0.0},"right_control":{"x":0.0,"y":0.0},"time_offset":333333,"values":[3.4522600118761293]},{"curveType":"Line","graphID":"","id":"1D09FB84-A351-4712-95BD-CFAF851CC93A","left_control":{"x":0.0,"y":0.0},"right_control":{"x":0.0,"y":0.0},"time_offset":2500000,"values":[1.59]}],"material_id":"","property_type":"KFTypeScaleX"},{"id":"80DB8F57-ED91-42f5-B5D8-9B6C536A1518","keyframe_list":[{"curveType":"Line","graphID":"","id":"A527435C-FF0C-484d-B894-8B73B9CBB1EA","left_control":{"x":0.0,"y":0.0},"right_control":{"x":0.0,"y":0.0},"time_offset":333333,"values":[0.0]},{"curveType":"Line","graphID":"","id":"454D654D-8494-443a-A435-0F29F936C136","left_control":{"x":0.0,"y":0.0},"right_control":{"x":0.0,"y":0.0},"time_offset":2500000,"values":[-0.47258979206049145]}],"material_id":"","property_type":"KFTypePositionX"},{"id":"B36D68C3-A089-4181-819F-D7089D0EBDEF","keyframe_list":[{"curveType":"Line","graphID":"","id":"5F8F2985-02B3-4605-82E8-D210724A07E4","left_control":{"x":0.0,"y":0.0},"right_control":{"x":0.0,"y":0.0},"time_offset":333333,"values":[-0.0]},{"curveType":"Line","graphID":"","id":"D5D2224D-093A-40b6-AA9F-425237DBD577","left_control":{"x":0.0,"y":0.0},"right_control":{"x":0.0,"y":0.0},"time_offset":2500000,"values":[0.6003584229390682]}],"material_id":"","property_type":"KFTypePositionY"}],"enable_adjust":false,"enable_color_curves":true,"enable_color_match_adjust":false,"enable_color_wheels":true,"enable_lut":false,"enable_smart_color_adjust":false,"extra_material_refs":["42A0F3EB-D1C3-49f7-829A-71F119E049E6"],"group_id":"","hdr_settings":null,"id":"05157E87-30CA-4b20-8584-10D306B18AF4","intensifies_audio":false,"is_placeholder":false,"is_tone_modify":false,"keyframe_refs":[],"last_nonzero_volume":1.0,"material_id":"0AAC637B-76B4-42a9-96A6-6ED394899915","render_index":14001,"responsive_layout":{"enable":false,"horizontal_pos_layout":0,"size_layout":0,"target_follow":"","vertical_pos_layout":0},"reverse":false,"source_timerange":null,"speed":1.0,"target_timerange":{"duration":6666667,"start":41633333},"template_id":"","template_scene":"default","track_attribute":0,"track_render_index":0,"uniform_scale":{"on":true,"value":1.0},"visible":true,"volume":1.0}],"type":"text"},{"attribute":0,"flag":0,"id":"A2604E6A-0EAA-47b2-85B7-B8E6B3DA1BDE","is_default_name":true,"name":"","segments":[{"caption_info":null,"cartoon":false,"clip":null,"common_keyframes":[],"enable_adjust":false,"enable_color_curves":true,"enable_color_match_adjust":false,"enable_color_wheels":true,"enable_lut":false,"enable_smart_color_adjust":false,"extra_material_refs":["4BF4BBF9-6D22-4592-90E7-E48A98818B52","ED9688C1-C8BA-4112-9701-96F61BA52F3E","B5F3535B-BA9E-4e94-ABFE-47B4BDF92B6D","D819E2D5-93CD-4377-B2B8-B5D4FD8094AF"],"group_id":"","hdr_settings":null,"id":"2B403A10-3640-4682-853D-FBE8EE78CAB0","intensifies_audio":false,"is_placeholder":false,"is_tone_modify":false,"keyframe_refs":[],"last_nonzero_volume":1.0,"material_id":"7CC9745B-FFFF-42d8-99C0-83C1DF14D3D0","render_index":0,"responsive_layout":{"enable":false,"horizontal_pos_layout":0,"size_layout":0,"target_follow":"","vertical_pos_layout":0},"reverse":false,"source_timerange":{"duration":1133333,"start":0},"speed":1.0,"target_timerange":{"duration":1133333,"start":0},"template_id":"","template_scene":"default","track_attribute":0,"track_render_index":0,"uniform_scale":null,"visible":true,"volume":1.0},{"caption_info":null,"cartoon":false,"clip":null,"common_keyframes":[],"enable_adjust":false,"enable_color_curves":true,"enable_color_match_adjust":false,"enable_color_wheels":true,"enable_lut":false,"enable_smart_color_adjust":false,"extra_material_refs":["D5969D2E-FC59-4c63-B8F2-A67E666596DF","F179FACA-A18F-4c77-A976-82BAF89D39D1","E7F56208-9295-473b-895E-94D413ECB137","E9AC1E3C-99EB-43dc-8B2C-2A683A4E4FBA"],"group_id":"","hdr_settings":null,"id":"82EA3928-68C0-4bee-AAFD-E84BB446ABF1","intensifies_audio":false,"is_placeholder":false,"is_tone_modify":false,"keyframe_refs":[],"last_nonzero_volume":1.0,"material_id":"2EFF2B31-0831-4236-AF73-41B8E7F7A928","render_index":0,"responsive_layout":{"enable":false,"horizontal_pos_layout":0,"size_layout":0,"target_follow":"","vertical_pos_layout":0},"reverse":false,"source_timerange":{"duration":1433333,"start":1133333},"speed":1.0,"target_timerange":{"duration":1433333,"start":1400000},"template_id":"","template_scene":"default","track_attribute":0,"track_render_index":0,"uniform_scale":null,"visible":true,"volume":1.0},{"caption_info":null,"cartoon":false,"clip":null,"common_keyframes":[],"enable_adjust":false,"enable_color_curves":true,"enable_color_match_adjust":false,"enable_color_wheels":true,"enable_lut":false,"enable_smart_color_adjust":false,"extra_material_refs":["11DE4A0A-7188-45a8-84A8-8577855B8504","361BF979-25D5-4d00-AC5C-F09D8524208E","ACC5D36E-97FF-4730-BDEB-23D7BBA725C8","BE3807D7-45E8-419b-8523-19D0BC3D8C45"],"group_id":"","hdr_settings":null,"id":"4977E770-C01A-45d2-AD2F-81CBC9B0BF6D","intensifies_audio":false,"is_placeholder":false,"is_tone_modify":false,"keyframe_refs":[],"last_nonzero_volume":1.0,"material_id":"39BA3CE4-D43B-4c6c-A1A4-82FA12743B2B","render_index":0,"responsive_layout":{"enable":false,"horizontal_pos_layout":0,"size_layout":0,"target_follow":"","vertical_pos_layout":0},"reverse":false,"source_timerange":{"duration":733334,"start":2566666},"speed":1.0,"target_timerange":{"duration":733333,"start":3200000},"template_id":"","template_scene":"default","track_attribute":0,"track_render_index":0,"uniform_scale":null,"visible":true,"volume":1.0},{"caption_info":null,"cartoon":false,"clip":null,"common_keyframes":[],"enable_adjust":false,"enable_color_curves":true,"enable_color_match_adjust":false,"enable_color_wheels":true,"enable_lut":false,"enable_smart_color_adjust":false,"extra_material_refs":["4F1F5D2C-3325-4a0d-8FF8-BA187B865707","E795F5EA-1644-458b-A4ED-D27F78B17BA7","8B8279D8-628F-475e-8E68-A87E82A64530","D4071414-CAD3-4f21-9AB8-BB115F6BCDA1"],"group_id":"","hdr_settings":null,"id":"194D48B2-DDCB-4f03-A6A9-BF13E81B2442","intensifies_audio":false,"is_placeholder":false,"is_tone_modify":false,"keyframe_refs":[],"last_nonzero_volume":1.0,"material_id":"D0766BA6-F08F-4c8a-9C04-9E6B41DFC382","render_index":0,"responsive_layout":{"enable":false,"horizontal_pos_layout":0,"size_layout":0,"target_follow":"","vertical_pos_layout":0},"reverse":false,"source_timerange":{"duration":1766666,"start":3300000},"speed":1.0,"target_timerange":{"duration":1766667,"start":4566666},"template_id":"","template_scene":"default","track_attribute":0,"track_render_index":0,"uniform_scale":null,"visible":true,"volume":1.0},{"caption_info":null,"cartoon":false,"clip":null,"common_keyframes":[],"enable_adjust":false,"enable_color_curves":true,"enable_color_match_adjust":false,"enable_color_wheels":true,"enable_lut":false,"enable_smart_color_adjust":false,"extra_material_refs":["92F8EB8F-3C6D-4f4c-9856-B87635041DE0","AC702E30-B828-4f4e-B067-242716034B2B","0CD1E35C-1094-452e-B73C-C1594AD584F0","37801FE2-D3C0-4f3d-813C-F3D48DA31E4D"],"group_id":"","hdr_settings":null,"id":"23705811-2991-43f4-8E36-F99AE85C916B","intensifies_audio":false,"is_placeholder":false,"is_tone_modify":false,"keyframe_refs":[],"last_nonzero_volume":1.0,"material_id":"714DED05-33A5-4937-AAA0-629081B5CA19","render_index":0,"responsive_layout":{"enable":false,"horizontal_pos_layout":0,"size_layout":0,"target_follow":"","vertical_pos_layout":0},"reverse":false,"source_timerange":{"duration":966667,"start":7366666},"speed":1.0,"target_timerange":{"duration":966667,"start":6733333},"template_id":"","template_scene":"default","track_attribute":0,"track_render_index":0,"uniform_scale":null,"visible":true,"volume":1.0},{"caption_info":null,"cartoon":false,"clip":null,"common_keyframes":[],"enable_adjust":false,"enable_color_curves":true,"enable_color_match_adjust":false,"enable_color_wheels":true,"enable_lut":false,"enable_smart_color_adjust":false,"extra_material_refs":["AAF337F8-214A-4f59-806C-C2FBCDAED21A","4A9D8CD7-BF96-454f-A339-5CEA6311CE69","B1A6B552-3242-40c7-9126-958C0DEBB548","F1963900-99D4-4205-B754-765551EC6E77"],"group_id":"","hdr_settings":null,"id":"E70F3AFF-666D-4aa2-91EF-DDE8D1885D6A","intensifies_audio":false,"is_placeholder":false,"is_tone_modify":false,"keyframe_refs":[],"last_nonzero_volume":1.0,"material_id":"6588DB6E-4FC1-421c-BE9E-611E9A00DFD7","render_index":0,"responsive_layout":{"enable":false,"horizontal_pos_layout":0,"size_layout":0,"target_follow":"","vertical_pos_layout":0},"reverse":false,"source_timerange":{"duration":3366667,"start":8333333},"speed":1.0,"target_timerange":{"duration":3366666,"start":7900000},"template_id":"","template_scene":"default","track_attribute":0,"track_render_index":0,"uniform_scale":null,"visible":true,"volume":1.0},{"caption_info":null,"cartoon":false,"clip":null,"common_keyframes":[],"enable_adjust":false,"enable_color_curves":true,"enable_color_match_adjust":false,"enable_color_wheels":true,"enable_lut":false,"enable_smart_color_adjust":false,"extra_material_refs":["29AE6B22-249D-4e41-BAA8-0EF2B8B69D06","8602C4F6-C85A-4014-A0DA-ACF92B96B4F7","52F4281F-CA78-4bc8-89E6-9908D4567A1E","6980EA0A-2DA5-45ea-BDEA-3433DB72FA4C"],"group_id":"","hdr_settings":null,"id":"9FF4BB4D-FB1B-4cb4-B814-91B7F4F05C95","intensifies_audio":false,"is_placeholder":false,"is_tone_modify":false,"keyframe_refs":[],"last_nonzero_volume":1.0,"material_id":"51B052C3-DC53-43f6-AF0A-3904416DF135","render_index":0,"responsive_layout":{"enable":false,"horizontal_pos_layout":0,"size_layout":0,"target_follow":"","vertical_pos_layout":0},"reverse":false,"source_timerange":{"duration":2833333,"start":11700000},"speed":1.0,"target_timerange":{"duration":2833333,"start":11433333},"template_id":"","template_scene":"default","track_attribute":0,"track_render_index":0,"uniform_scale":null,"visible":true,"volume":1.0},{"caption_info":null,"cartoon":false,"clip":null,"common_keyframes":[],"enable_adjust":false,"enable_color_curves":true,"enable_color_match_adjust":false,"enable_color_wheels":true,"enable_lut":false,"enable_smart_color_adjust":false,"extra_material_refs":["17E4D554-516A-4428-828F-EA6F6BBECAD1","EAD5B5B4-3069-4852-9ABB-053130070700","CB0B1E17-5741-48df-A9E4-35B8CC4A5336","EFE3D706-BCAE-4227-A513-3A00FAA21666"],"group_id":"","hdr_settings":null,"id":"EC24136D-E21F-4040-8814-38AC9652360D","intensifies_audio":false,"is_placeholder":false,"is_tone_modify":false,"keyframe_refs":[],"last_nonzero_volume":1.0,"material_id":"550F4718-5BCB-49ce-9F9D-E3772844EB64","render_index":0,"responsive_layout":{"enable":false,"horizontal_pos_layout":0,"size_layout":0,"target_follow":"","vertical_pos_layout":0},"reverse":false,"source_timerange":{"duration":1400000,"start":14533333},"speed":1.0,"target_timerange":{"duration":1400000,"start":14633333},"template_id":"","template_scene":"default","track_attribute":0,"track_render_index":0,"uniform_scale":null,"visible":true,"volume":1.0},{"caption_info":null,"cartoon":false,"clip":null,"common_keyframes":[],"enable_adjust":false,"enable_color_curves":true,"enable_color_match_adjust":false,"enable_color_wheels":true,"enable_lut":false,"enable_smart_color_adjust":false,"extra_material_refs":["DD57741B-3AFE-4e60-AA7D-6F0CCF24EEA0","67013C74-25AF-434c-BFA6-DB11A8EF9B90","CA422AE5-8F2F-4d99-A1DA-3DBC87E5C4A7","6D55472A-6077-46be-9DE8-968E50B772DD"],"group_id":"","hdr_settings":null,"id":"B215423A-7ECE-445c-93C6-EFC1FC446EF5","intensifies_audio":false,"is_placeholder":false,"is_tone_modify":false,"keyframe_refs":[],"last_nonzero_volume":1.0,"material_id":"4D335965-EE22-4587-9AA1-A0BA7223C8D7","render_index":0,"responsive_layout":{"enable":false,"horizontal_pos_layout":0,"size_layout":0,"target_follow":"","vertical_pos_layout":0},"reverse":false,"source_timerange":{"duration":3066666,"start":16100000},"speed":1.0,"target_timerange":{"duration":3066667,"start":16166666},"template_id":"","template_scene":"default","track_attribute":0,"track_render_index":0,"uniform_scale":null,"visible":true,"volume":1.0},{"caption_info":null,"cartoon":false,"clip":null,"common_keyframes":[],"enable_adjust":false,"enable_color_curves":true,"enable_color_match_adjust":false,"enable_color_wheels":true,"enable_lut":false,"enable_smart_color_adjust":false,"extra_material_refs":["C1EB432D-E01A-4c33-93BB-BC4241C5AF5E","03095728-5E94-4459-973E-4F8E287A8D34","63EB7801-5930-4622-B0B4-7A96118741E7","F1F7C9B0-4E78-4ef9-8B84-DFD70E64ADCE"],"group_id":"","hdr_settings":null,"id":"7BCB9195-1391-4e59-B281-EDBBA25F7CD1","intensifies_audio":false,"is_placeholder":false,"is_tone_modify":false,"keyframe_refs":[],"last_nonzero_volume":1.0,"material_id":"E38AC0FF-AB02-49a0-B6B7-EC9C5BE8ADAE","render_index":0,"responsive_layout":{"enable":false,"horizontal_pos_layout":0,"size_layout":0,"target_follow":"","vertical_pos_layout":0},"reverse":false,"source_timerange":{"duration":1000000,"start":19166666},"speed":1.0,"target_timerange":{"duration":1000000,"start":19500000},"template_id":"","template_scene":"default","track_attribute":0,"track_render_index":0,"uniform_scale":null,"visible":true,"volume":1.0},{"caption_info":null,"cartoon":false,"clip":null,"common_keyframes":[],"enable_adjust":false,"enable_color_curves":true,"enable_color_match_adjust":false,"enable_color_wheels":true,"enable_lut":false,"enable_smart_color_adjust":false,"extra_material_refs":["F4ADDDB9-F889-4ab5-98D0-907C8270E41D","14BC79C3-24DE-4b1a-A268-E93EF7C5A284","1EA8F99C-C42C-4943-903E-B88218A5F17E","9750999F-2156-4005-BCA9-37868B17BAC7"],"group_id":"","hdr_settings":null,"id":"3169F94A-CFA9-4ee9-855D-FF0148F3BF27","intensifies_audio":false,"is_placeholder":false,"is_tone_modify":false,"keyframe_refs":[],"last_nonzero_volume":1.0,"material_id":"BB46542D-DFBB-491a-92BD-6D89AF3B4ADB","render_index":0,"responsive_layout":{"enable":false,"horizontal_pos_layout":0,"size_layout":0,"target_follow":"","vertical_pos_layout":0},"reverse":false,"source_timerange":{"duration":1133333,"start":5433333},"speed":1.0,"target_timerange":{"duration":1133333,"start":20933333},"template_id":"","template_scene":"default","track_attribute":0,"track_render_index":0,"uniform_scale":null,"visible":true,"volume":1.5848932266235352},{"caption_info":null,"cartoon":false,"clip":null,"common_keyframes":[],"enable_adjust":false,"enable_color_curves":true,"enable_color_match_adjust":false,"enable_color_wheels":true,"enable_lut":false,"enable_smart_color_adjust":false,"extra_material_refs":["3DDDCF96-8F3F-4808-9294-D91428747AE4","C474EF82-2DFC-4e01-A8CB-DC676480CD2F","695AF4F5-0CDC-433d-9E02-9E6A9197A47E","33A8358E-3BCD-402d-A829-3CE64634A44A"],"group_id":"","hdr_settings":null,"id":"CCCD4923-9C92-498e-818D-AC3FAFC56FCD","intensifies_audio":false,"is_placeholder":false,"is_tone_modify":false,"keyframe_refs":[],"last_nonzero_volume":1.0,"material_id":"F84517DE-3779-4bdc-85A8-E6DBB441FDF7","render_index":0,"responsive_layout":{"enable":false,"horizontal_pos_layout":0,"size_layout":0,"target_follow":"","vertical_pos_layout":0},"reverse":false,"source_timerange":{"duration":2733334,"start":6566666},"speed":1.0,"target_timerange":{"duration":2733333,"start":22433333},"template_id":"","template_scene":"default","track_attribute":0,"track_render_index":0,"uniform_scale":null,"visible":true,"volume":1.0},{"caption_info":null,"cartoon":false,"clip":null,"common_keyframes":[],"enable_adjust":false,"enable_color_curves":true,"enable_color_match_adjust":false,"enable_color_wheels":true,"enable_lut":false,"enable_smart_color_adjust":false,"extra_material_refs":["67A40915-E6AF-4b9d-BF37-61711D4B7FCA","D14425DB-6B42-4666-854D-A3A5D6E09B48","028638FC-8518-4b89-A8C8-38B77ECD8CD4","047AC9D1-C9EF-4f53-878E-BCB0A989FB76","C909EC9F-F0C3-4703-B29B-3E26A4EBB2EC"],"group_id":"","hdr_settings":null,"id":"E024AE34-280E-4301-90E5-C5C634A2F4E2","intensifies_audio":false,"is_placeholder":false,"is_tone_modify":false,"keyframe_refs":[],"last_nonzero_volume":1.0,"material_id":"1B919EE2-C2C8-4bac-AAAE-ADC8308B8C43","render_index":0,"responsive_layout":{"enable":false,"horizontal_pos_layout":0,"size_layout":0,"target_follow":"","vertical_pos_layout":0},"reverse":false,"source_timerange":{"duration":2666666,"start":0},"speed":1.0,"target_timerange":{"duration":2666667,"start":25633333},"template_id":"","template_scene":"default","track_attribute":0,"track_render_index":0,"uniform_scale":null,"visible":true,"volume":1.5135612487792969},{"caption_info":null,"cartoon":false,"clip":null,"common_keyframes":[],"enable_adjust":false,"enable_color_curves":true,"enable_color_match_adjust":false,"enable_color_wheels":true,"enable_lut":false,"enable_smart_color_adjust":false,"extra_material_refs":["098BFA35-1664-4f8d-B128-D8AC2D1D8467","CEC2576B-6C2A-477c-B7BB-9009B7933014","C8C2DC9F-4673-40e7-AE31-B91DA9A93868","27CC3547-A824-47fe-BF1B-881ECD783420","36980854-9807-4e1b-AFC8-AF96C6928287"],"group_id":"","hdr_settings":null,"id":"BEF5F16E-4F97-4b01-A2BD-EA0A1BDDDBBB","intensifies_audio":false,"is_placeholder":false,"is_tone_modify":false,"keyframe_refs":[],"last_nonzero_volume":1.0,"material_id":"FEE3C82E-9D1A-4086-8466-3CFCD7FCBFEE","render_index":0,"responsive_layout":{"enable":false,"horizontal_pos_layout":0,"size_layout":0,"target_follow":"","vertical_pos_layout":0},"reverse":false,"source_timerange":{"duration":4800000,"start":2933333},"speed":1.0,"target_timerange":{"duration":4800000,"start":28566666},"template_id":"","template_scene":"default","track_attribute":0,"track_render_index":0,"uniform_scale":null,"visible":true,"volume":1.5135612487792969},{"caption_info":null,"cartoon":false,"clip":null,"common_keyframes":[],"enable_adjust":false,"enable_color_curves":true,"enable_color_match_adjust":false,"enable_color_wheels":true,"enable_lut":false,"enable_smart_color_adjust":false,"extra_material_refs":["BF494C39-3CF4-4dfa-AE71-3588B8CC972F","648E1976-F99F-4d89-B74A-168EB48531F7","25582E4C-4FCD-4a95-B033-4B5C51903CF7","316803F7-B5D0-411c-9BCE-4EBC9859A3F9"],"group_id":"","hdr_settings":null,"id":"4F16D6B7-786D-433d-ACAF-EC007C657CA5","intensifies_audio":false,"is_placeholder":false,"is_tone_modify":false,"keyframe_refs":[],"last_nonzero_volume":1.0,"material_id":"D63266A8-0889-4f32-9E1F-E668C3A97448","render_index":0,"responsive_layout":{"enable":false,"horizontal_pos_layout":0,"size_layout":0,"target_follow":"","vertical_pos_layout":0},"reverse":false,"source_timerange":{"duration":6733333,"start":0},"speed":1.0,"target_timerange":{"duration":6733333,"start":33633333},"template_id":"","template_scene":"default","track_attribute":0,"track_render_index":0,"uniform_scale":null,"visible":true,"volume":1.0},{"caption_info":null,"cartoon":false,"clip":null,"common_keyframes":[],"enable_adjust":false,"enable_color_curves":true,"enable_color_match_adjust":false,"enable_color_wheels":true,"enable_lut":false,"enable_smart_color_adjust":false,"extra_material_refs":["15B9691E-98F3-4dab-B313-CF5EB60CFF36","3AC32900-64D8-43f0-910F-44057ED9AF86","EC423F27-93E3-4c54-A9D1-7DEAFF89C92C","B3151CAE-0E9F-4870-8C1E-F9E36DE6B962"],"group_id":"","hdr_settings":null,"id":"F4CDEC91-9905-4828-9C53-048DD7D15975","intensifies_audio":false,"is_placeholder":false,"is_tone_modify":false,"keyframe_refs":[],"last_nonzero_volume":1.0,"material_id":"FFCACDCA-2E24-4349-88EA-CE7F420D0EBB","render_index":0,"responsive_layout":{"enable":false,"horizontal_pos_layout":0,"size_layout":0,"target_follow":"","vertical_pos_layout":0},"reverse":false,"source_timerange":{"duration":4866666,"start":0},"speed":1.0,"target_timerange":{"duration":4866667,"start":40466666},"template_id":"","template_scene":"default","track_attribute":0,"track_render_index":0,"uniform_scale":null,"visible":true,"volume":1.0},{"caption_info":null,"cartoon":false,"clip":null,"common_keyframes":[],"enable_adjust":false,"enable_color_curves":true,"enable_color_match_adjust":false,"enable_color_wheels":true,"enable_lut":false,"enable_smart_color_adjust":false,"extra_material_refs":["82D5FB4C-B36E-46e4-9D53-4398C71E0C0F","DCE003A8-8BC2-46ff-B643-F9DD28EC24F6","C37E88D6-2AC2-43a0-B4C7-F82B5A238EB3","5106F410-C030-4def-B648-11DF45EEBFCB"],"group_id":"","hdr_settings":null,"id":"AF5B56CB-D78A-482a-9FDB-BC87956F7387","intensifies_audio":false,"is_placeholder":false,"is_tone_modify":false,"keyframe_refs":[],"last_nonzero_volume":1.0,"material_id":"71953997-3EE4-4932-AE63-B410D1EBC925","render_index":0,"responsive_layout":{"enable":false,"horizontal_pos_layout":0,"size_layout":0,"target_follow":"","vertical_pos_layout":0},"reverse":false,"source_timerange":{"duration":1866667,"start":166666},"speed":1.0,"target_timerange":{"duration":1866667,"start":45333333},"template_id":"","template_scene":"default","track_attribute":0,"track_render_index":0,"uniform_scale":null,"visible":true,"volume":1.0},{"caption_info":null,"cartoon":false,"clip":null,"common_keyframes":[],"enable_adjust":false,"enable_color_curves":true,"enable_color_match_adjust":false,"enable_color_wheels":true,"enable_lut":false,"enable_smart_color_adjust":false,"extra_material_refs":["A5303B53-3077-44d7-9DB3-34FCD484ED28","575D39DF-2804-46b6-A8F1-F6072611384F","8DCC0AE9-BA9B-498c-8AA1-BCE30D439C2B","FA17673D-0B54-4c1a-AE93-0493125F5521"],"group_id":"","hdr_settings":null,"id":"46237DE1-5154-42ac-9917-E0774381F985","intensifies_audio":false,"is_placeholder":false,"is_tone_modify":false,"keyframe_refs":[],"last_nonzero_volume":1.0,"material_id":"77C2363D-6A85-4543-A80D-0474A92189C0","render_index":0,"responsive_layout":{"enable":false,"horizontal_pos_layout":0,"size_layout":0,"target_follow":"","vertical_pos_layout":0},"reverse":false,"source_timerange":{"duration":3533333,"start":2333333},"speed":1.0,"target_timerange":{"duration":3533333,"start":47200000},"template_id":"","template_scene":"default","track_attribute":0,"track_render_index":0,"uniform_scale":null,"visible":true,"volume":1.0},{"caption_info":null,"cartoon":false,"clip":null,"common_keyframes":[],"enable_adjust":false,"enable_color_curves":true,"enable_color_match_adjust":false,"enable_color_wheels":true,"enable_lut":false,"enable_smart_color_adjust":false,"extra_material_refs":["2A2D0B20-8502-4719-A1C0-80F30686B51A","F3D66099-871E-45f5-8B5B-CA14F49370C9","B47443F7-409E-4f59-A8C0-772F7E678E14","9C6B203B-3DD0-43f8-969E-C6016CD150D6"],"group_id":"","hdr_settings":null,"id":"873381D8-4048-4029-816B-9B322D71C19D","intensifies_audio":false,"is_placeholder":false,"is_tone_modify":false,"keyframe_refs":[],"last_nonzero_volume":1.0,"material_id":"B02B3911-EEB7-4a9e-9D78-B68621BF959B","render_index":0,"responsive_layout":{"enable":false,"horizontal_pos_layout":0,"size_layout":0,"target_follow":"","vertical_pos_layout":0},"reverse":false,"source_timerange":{"duration":6000000,"start":0},"speed":1.0,"target_timerange":{"duration":6000000,"start":50733333},"template_id":"","template_scene":"default","track_attribute":0,"track_render_index":0,"uniform_scale":null,"visible":true,"volume":1.0},{"caption_info":null,"cartoon":false,"clip":null,"common_keyframes":[],"enable_adjust":false,"enable_color_curves":true,"enable_color_match_adjust":false,"enable_color_wheels":true,"enable_lut":false,"enable_smart_color_adjust":false,"extra_material_refs":["A159A5A3-2F86-42f4-8607-E54CD4F7CFFD","AA68AEF7-303E-4195-9E0E-6E9422D7A04E","04203EC5-9519-481e-A567-D2CBF9E3B7BF","CF41C66C-5424-47dc-B96A-9550D9D33705"],"group_id":"","hdr_settings":null,"id":"604685AC-1E2D-4033-BDFB-91C0257F5FC5","intensifies_audio":false,"is_placeholder":false,"is_tone_modify":false,"keyframe_refs":[],"last_nonzero_volume":1.0,"material_id":"11E2DA89-357F-4be3-A17D-45A8F69882F3","render_index":0,"responsive_layout":{"enable":false,"horizontal_pos_layout":0,"size_layout":0,"target_follow":"","vertical_pos_layout":0},"reverse":false,"source_timerange":{"duration":4033333,"start":100000},"speed":1.0,"target_timerange":{"duration":4033333,"start":56733333},"template_id":"","template_scene":"default","track_attribute":0,"track_render_index":0,"uniform_scale":null,"visible":true,"volume":1.0},{"caption_info":null,"cartoon":false,"clip":null,"common_keyframes":[],"enable_adjust":false,"enable_color_curves":true,"enable_color_match_adjust":false,"enable_color_wheels":true,"enable_lut":false,"enable_smart_color_adjust":false,"extra_material_refs":["5152F349-214A-411e-ADA2-5F205B545AD3","580FF622-8CBC-4baf-97EB-159DFD6DC9D8","42007A04-67F8-4615-9C13-F36F87DEA0D0","DB181EDE-8CA3-4606-8B7F-1E51D78C254E","6B3D79C1-0B19-4432-B1F6-71BE5F2DE920"],"group_id":"","hdr_settings":null,"id":"87F345CC-EFD8-4e66-A122-45CA8564EAB8","intensifies_audio":false,"is_placeholder":false,"is_tone_modify":false,"keyframe_refs":[],"last_nonzero_volume":1.0,"material_id":"B331FAA0-C2F6-4224-B95B-997D2829B84F","render_index":0,"responsive_layout":{"enable":false,"horizontal_pos_layout":0,"size_layout":0,"target_follow":"","vertical_pos_layout":0},"reverse":false,"source_timerange":{"duration":766667,"start":4466666},"speed":1.0,"target_timerange":{"duration":766667,"start":60766666},"template_id":"","template_scene":"default","track_attribute":0,"track_render_index":0,"uniform_scale":null,"visible":true,"volume":1.0},{"caption_info":null,"cartoon":false,"clip":null,"common_keyframes":[],"enable_adjust":false,"enable_color_curves":true,"enable_color_match_adjust":false,"enable_color_wheels":true,"enable_lut":false,"enable_smart_color_adjust":false,"extra_material_refs":["7D892AD3-A758-46de-96F0-54A4488C21CF","1097266C-7FA5-43e6-8465-55320BDB49E3","B6100B71-2A54-4ddf-BD78-2B813DB1DA19","661E26DA-E3D1-4b89-A638-EBEE69E0E383"],"group_id":"","hdr_settings":null,"id":"12FD93D5-8127-4889-9CDF-C7753731FDA3","intensifies_audio":false,"is_placeholder":false,"is_tone_modify":false,"keyframe_refs":[],"last_nonzero_volume":1.0,"material_id":"8657B718-5D90-4d51-AC3D-1B6B5501FF87","render_index":0,"responsive_layout":{"enable":false,"horizontal_pos_layout":0,"size_layout":0,"target_follow":"","vertical_pos_layout":0},"reverse":false,"source_timerange":{"duration":1800000,"start":5466666},"speed":1.0,"target_timerange":{"duration":1800000,"start":61533333},"template_id":"","template_scene":"default","track_attribute":0,"track_render_index":0,"uniform_scale":null,"visible":true,"volume":1.0},{"caption_info":null,"cartoon":false,"clip":null,"common_keyframes":[],"enable_adjust":false,"enable_color_curves":true,"enable_color_match_adjust":false,"enable_color_wheels":true,"enable_lut":false,"enable_smart_color_adjust":false,"extra_material_refs":["EDC78294-88DC-4e84-9831-FCA68BDEC834","0ADFAE94-C2C3-4c6a-A294-652671AC45AD","8BA730D0-E846-4c90-A62B-C9F1A1FAF7AF","C0E491B1-954D-4d7a-B534-42BCA38F9BFD"],"group_id":"","hdr_settings":null,"id":"7C55926E-D789-434a-A547-D1F55674DEB7","intensifies_audio":false,"is_placeholder":false,"is_tone_modify":false,"keyframe_refs":[],"last_nonzero_volume":1.0,"material_id":"5815BDDE-C6AE-447c-8E4E-4231EADBB82B","render_index":0,"responsive_layout":{"enable":false,"horizontal_pos_layout":0,"size_layout":0,"target_follow":"","vertical_pos_layout":0},"reverse":false,"source_timerange":{"duration":1800000,"start":7600000},"speed":1.0,"target_timerange":{"duration":1800000,"start":63333333},"template_id":"","template_scene":"default","track_attribute":0,"track_render_index":0,"uniform_scale":null,"visible":true,"volume":1.0},{"caption_info":null,"cartoon":false,"clip":null,"common_keyframes":[],"enable_adjust":false,"enable_color_curves":true,"enable_color_match_adjust":false,"enable_color_wheels":true,"enable_lut":false,"enable_smart_color_adjust":false,"extra_material_refs":["259F1DD6-F7CD-4724-86BB-A317A5AF752C","0147191B-A1F7-4bc9-ACC5-06BD24E441E7","27FC4E3E-B021-4c2e-9316-3BE912990E86","2D6F0FEA-DF6E-4434-83D4-FB3BCCD227A5"],"group_id":"","hdr_settings":null,"id":"3A6240C4-9453-4028-9955-6613BC794681","intensifies_audio":false,"is_placeholder":false,"is_tone_modify":false,"keyframe_refs":[],"last_nonzero_volume":1.0,"material_id":"375606E8-8F44-432d-BE69-871236A68C09","render_index":0,"responsive_layout":{"enable":false,"horizontal_pos_layout":0,"size_layout":0,"target_follow":"","vertical_pos_layout":0},"reverse":false,"source_timerange":{"duration":2800000,"start":0},"speed":1.0,"target_timerange":{"duration":2800000,"start":65133333},"template_id":"","template_scene":"default","track_attribute":0,"track_render_index":0,"uniform_scale":null,"visible":true,"volume":1.0},{"caption_info":null,"cartoon":false,"clip":null,"common_keyframes":[],"enable_adjust":false,"enable_color_curves":true,"enable_color_match_adjust":false,"enable_color_wheels":true,"enable_lut":false,"enable_smart_color_adjust":false,"extra_material_refs":["13056618-3F2D-4e08-B7F7-294F3781D564","ECAD9AA5-7269-4506-967A-5177BCEE6A53","F959C137-30A3-4308-8B4B-B41D794BBC39","8F5F61E0-B1E8-4e4c-BC16-91F89340ABBD","382B5F03-B574-4300-AC73-AC6401AC3FF4"],"group_id":"","hdr_settings":null,"id":"07CC9DB4-C0DC-44c5-96DF-F4E40124CB79","intensifies_audio":false,"is_placeholder":false,"is_tone_modify":false,"keyframe_refs":[],"last_nonzero_volume":1.0,"material_id":"9FDC9BB0-6E3D-4ad6-BB9D-AE1887C7EDF0","render_index":0,"responsive_layout":{"enable":false,"horizontal_pos_layout":0,"size_layout":0,"target_follow":"","vertical_pos_layout":0},"reverse":false,"source_timerange":{"duration":8866666,"start":2900000},"speed":1.0,"target_timerange":{"duration":8866667,"start":67933333},"template_id":"","template_scene":"default","track_attribute":0,"track_render_index":0,"uniform_scale":null,"visible":true,"volume":1.0},{"caption_info":null,"cartoon":false,"clip":null,"common_keyframes":[],"enable_adjust":false,"enable_color_curves":true,"enable_color_match_adjust":false,"enable_color_wheels":true,"enable_lut":false,"enable_smart_color_adjust":false,"extra_material_refs":["8065F8FD-185F-42fb-A8A0-982AA9989FEA","B57CF21A-BA84-4a8d-8D26-6573098FA25D","93514297-DB04-44a7-921A-30DBC91FA99B","6B256C1F-1BB2-4c99-8126-3FDC20C189DC"],"group_id":"","hdr_settings":null,"id":"2F37E1F5-A42B-497a-B599-C54F206983A5","intensifies_audio":false,"is_placeholder":false,"is_tone_modify":false,"keyframe_refs":[],"last_nonzero_volume":1.0,"material_id":"AC1F1246-A78F-457e-A88B-094D91F2EB5C","render_index":0,"responsive_layout":{"enable":false,"horizontal_pos_layout":0,"size_layout":0,"target_follow":"","vertical_pos_layout":0},"reverse":false,"source_timerange":{"duration":4233333,"start":11933333},"speed":1.0,"target_timerange":{"duration":4233333,"start":76800000},"template_id":"","template_scene":"default","track_attribute":0,"track_render_index":0,"uniform_scale":null,"visible":true,"volume":1.0},{"caption_info":null,"cartoon":false,"clip":null,"common_keyframes":[],"enable_adjust":false,"enable_color_curves":true,"enable_color_match_adjust":false,"enable_color_wheels":true,"enable_lut":false,"enable_smart_color_adjust":false,"extra_material_refs":["CC72E6A3-AAF2-4ee9-A023-FF1615B2C560","93805494-3157-4ffc-AB8F-4E5681BB99F0","DA15D998-BEA8-47e0-866A-F80775BD1A40","F38849FB-B08D-4b16-A6AE-F62456C50093"],"group_id":"","hdr_settings":null,"id":"945B46A0-D744-46cc-8EA4-940343FFD3C7","intensifies_audio":false,"is_placeholder":false,"is_tone_modify":false,"keyframe_refs":[],"last_nonzero_volume":1.0,"material_id":"941E8698-1CB4-4d48-883C-51A29648CE98","render_index":0,"responsive_layout":{"enable":false,"horizontal_pos_layout":0,"size_layout":0,"target_follow":"","vertical_pos_layout":0},"reverse":false,"source_timerange":{"duration":4566666,"start":0},"speed":1.0,"target_timerange":{"duration":4566666,"start":81500000},"template_id":"","template_scene":"default","track_attribute":0,"track_render_index":0,"uniform_scale":null,"visible":true,"volume":1.0},{"caption_info":null,"cartoon":false,"clip":null,"common_keyframes":[],"enable_adjust":false,"enable_color_curves":true,"enable_color_match_adjust":false,"enable_color_wheels":true,"enable_lut":false,"enable_smart_color_adjust":false,"extra_material_refs":["58EB778F-19B5-4491-B7B5-18C6B63C312C","0CDE6419-22C5-49c8-8B06-CB792526BEE6","4ED7F24B-9C1B-421b-A8E8-6B8A11F12AB3","9785BE09-9DC1-4b25-9065-509092AF735D"],"group_id":"","hdr_settings":null,"id":"88D50B24-38B5-4bef-A29F-2A3ABDE589E9","intensifies_audio":false,"is_placeholder":false,"is_tone_modify":false,"keyframe_refs":[],"last_nonzero_volume":1.0,"material_id":"E6137712-678F-46be-A19D-6E8E5379E5B0","render_index":0,"responsive_layout":{"enable":false,"horizontal_pos_layout":0,"size_layout":0,"target_follow":"","vertical_pos_layout":0},"reverse":false,"source_timerange":{"duration":4433334,"start":4966666},"speed":1.0,"target_timerange":{"duration":4433334,"start":86066666},"template_id":"","template_scene":"default","track_attribute":0,"track_render_index":0,"uniform_scale":null,"visible":true,"volume":1.0},{"caption_info":null,"cartoon":false,"clip":null,"common_keyframes":[],"enable_adjust":false,"enable_color_curves":true,"enable_color_match_adjust":false,"enable_color_wheels":true,"enable_lut":false,"enable_smart_color_adjust":false,"extra_material_refs":["13865C74-B858-4bee-853F-F52CB0B74CFD","BE8EC09F-7EC1-4a1e-B14C-52FC97704980","C19E4D35-C74D-46e6-9FF8-1897BAD7A381","783E3441-A5B8-4444-8546-1D3485C7C7F5"],"group_id":"","hdr_settings":null,"id":"60224F07-5538-43cb-937D-BDBDDFCB42ED","intensifies_audio":false,"is_placeholder":false,"is_tone_modify":false,"keyframe_refs":[],"last_nonzero_volume":1.0,"material_id":"2339A407-1273-46b2-A19D-F2256AAD7ECC","render_index":0,"responsive_layout":{"enable":false,"horizontal_pos_layout":0,"size_layout":0,"target_follow":"","vertical_pos_layout":0},"reverse":false,"source_timerange":{"duration":2733334,"start":9666666},"speed":1.0,"target_timerange":{"duration":2733333,"start":90500000},"template_id":"","template_scene":"default","track_attribute":0,"track_render_index":0,"uniform_scale":null,"visible":true,"volume":1.0},{"caption_info":null,"cartoon":false,"clip":null,"common_keyframes":[],"enable_adjust":false,"enable_color_curves":true,"enable_color_match_adjust":false,"enable_color_wheels":true,"enable_lut":false,"enable_smart_color_adjust":false,"extra_material_refs":["BAEAF2DE-4070-4d94-886D-CA34D6997BE5","0607305D-86B1-4549-B37E-5F84F3003809","1E736691-B193-4659-9BC5-E70F8DFB1B33","BA9D60D4-8EB3-4788-A4C7-14B60C2809F5"],"group_id":"","hdr_settings":null,"id":"51743264-1399-486b-991B-574949DCC970","intensifies_audio":false,"is_placeholder":false,"is_tone_modify":false,"keyframe_refs":[],"last_nonzero_volume":1.0,"material_id":"1F829E4B-0C8C-425a-96A1-CF7CA05AE56D","render_index":0,"responsive_layout":{"enable":false,"horizontal_pos_layout":0,"size_layout":0,"target_follow":"","vertical_pos_layout":0},"reverse":false,"source_timerange":{"duration":2300000,"start":12566666},"speed":1.0,"target_timerange":{"duration":2300000,"start":93233333},"template_id":"","template_scene":"default","track_attribute":0,"track_render_index":0,"uniform_scale":null,"visible":true,"volume":1.0},{"caption_info":null,"cartoon":false,"clip":null,"common_keyframes":[],"enable_adjust":false,"enable_color_curves":true,"enable_color_match_adjust":false,"enable_color_wheels":true,"enable_lut":false,"enable_smart_color_adjust":false,"extra_material_refs":["5E2988E8-28C2-414e-AC42-1D10DBBF9618","B74CCDC1-26FA-4acc-8C80-973537924E7E","F4550463-D60E-4e85-93DF-098FD72AD3D0","7E066EB0-DE7F-46dd-A7C1-94D50E9BF013"],"group_id":"","hdr_settings":null,"id":"64483491-7AB3-4ba9-833C-56E4753F453C","intensifies_audio":false,"is_placeholder":false,"is_tone_modify":false,"keyframe_refs":[],"last_nonzero_volume":1.0,"material_id":"4BDF84ED-AB4F-46ac-80B1-A80E2872A5BA","render_index":0,"responsive_layout":{"enable":false,"horizontal_pos_layout":0,"size_layout":0,"target_follow":"","vertical_pos_layout":0},"reverse":false,"source_timerange":{"duration":1600000,"start":15233333},"speed":1.0,"target_timerange":{"duration":1600000,"start":95533333},"template_id":"","template_scene":"default","track_attribute":0,"track_render_index":0,"uniform_scale":null,"visible":true,"volume":1.0},{"caption_info":null,"cartoon":false,"clip":null,"common_keyframes":[],"enable_adjust":false,"enable_color_curves":true,"enable_color_match_adjust":false,"enable_color_wheels":true,"enable_lut":false,"enable_smart_color_adjust":false,"extra_material_refs":["76E63436-C6D4-4f61-90C8-FB7D5E77A20B","B4227D61-6179-4e84-B593-2FEF991792EA","ED065F1D-5371-475b-8CCD-C5578694DE9E","A640CF5F-3300-4ea6-8AED-164241A3871E","3280B522-FA57-4333-807E-3A4B883E50B8"],"group_id":"","hdr_settings":null,"id":"5160757F-80EC-4786-8035-27B0E4B8199C","intensifies_audio":false,"is_placeholder":false,"is_tone_modify":false,"keyframe_refs":[],"last_nonzero_volume":1.0,"material_id":"C189EC1B-18A1-407c-AB41-2E0B2FDF9A81","render_index":0,"responsive_layout":{"enable":false,"horizontal_pos_layout":0,"size_layout":0,"target_follow":"","vertical_pos_layout":0},"reverse":false,"source_timerange":{"duration":1200000,"start":18033333},"speed":1.0,"target_timerange":{"duration":1200000,"start":97133333},"template_id":"","template_scene":"default","track_attribute":0,"track_render_index":0,"uniform_scale":null,"visible":true,"volume":1.0},{"caption_info":null,"cartoon":false,"clip":null,"common_keyframes":[],"enable_adjust":false,"enable_color_curves":true,"enable_color_match_adjust":false,"enable_color_wheels":true,"enable_lut":false,"enable_smart_color_adjust":false,"extra_material_refs":["62595752-4781-42d4-9840-F814115C2925","E999BDBE-43E2-4826-A118-923E8DC1C8D3","ADD078F3-8C26-45cd-ACD8-065DA64D7C35","D467E772-DC38-4302-B28E-C4E0D5AD27FD","5DA372D1-0E8B-4c9b-A484-0E31DF31440B"],"group_id":"","hdr_settings":null,"id":"43B4FC5D-A351-460b-861E-52E5BFE8DE19","intensifies_audio":false,"is_placeholder":false,"is_tone_modify":false,"keyframe_refs":[],"last_nonzero_volume":1.0,"material_id":"F27AEC6C-CA74-467d-AC6D-5387D30F2950","render_index":0,"responsive_layout":{"enable":false,"horizontal_pos_layout":0,"size_layout":0,"target_follow":"","vertical_pos_layout":0},"reverse":false,"source_timerange":{"duration":1900000,"start":19566666},"speed":1.0,"target_timerange":{"duration":1900000,"start":98333333},"template_id":"","template_scene":"default","track_attribute":0,"track_render_index":0,"uniform_scale":null,"visible":true,"volume":1.0},{"caption_info":null,"cartoon":false,"clip":null,"common_keyframes":[],"enable_adjust":false,"enable_color_curves":true,"enable_color_match_adjust":false,"enable_color_wheels":true,"enable_lut":false,"enable_smart_color_adjust":false,"extra_material_refs":["1F2C3057-3F62-4662-A28A-BEFAFA9BD319","18B96FF2-2C3D-470b-AC55-7A4406AEEC39","DE38E340-F110-4f9e-B34D-AA6403A0AFB2","01FABAE9-3F00-441d-A5CF-9DF9D5EECD14"],"group_id":"","hdr_settings":null,"id":"99FA824A-A7BF-4b1d-BF4E-0230315E29DE","intensifies_audio":false,"is_placeholder":false,"is_tone_modify":false,"keyframe_refs":[],"last_nonzero_volume":1.0,"material_id":"23F3A53E-EF98-45bc-A78D-CD34429CFBA2","render_index":0,"responsive_layout":{"enable":false,"horizontal_pos_layout":0,"size_layout":0,"target_follow":"","vertical_pos_layout":0},"reverse":false,"source_timerange":{"duration":16133333,"start":0},"speed":1.0,"target_timerange":{"duration":16133333,"start":100233333},"template_id":"","template_scene":"default","track_attribute":0,"track_render_index":0,"uniform_scale":null,"visible":true,"volume":1.0},{"caption_info":null,"cartoon":false,"clip":null,"common_keyframes":[],"enable_adjust":false,"enable_color_curves":true,"enable_color_match_adjust":false,"enable_color_wheels":true,"enable_lut":false,"enable_smart_color_adjust":false,"extra_material_refs":["5FBE50CA-8920-49f8-8860-2A29B7F545DE","F9AD64B5-F8B2-419e-8B37-0AB754649470","D6BA64F8-F898-469f-AC7B-CAE48154FA25","2081D95C-E99B-400c-9D2D-E3CB293DB677"],"group_id":"","hdr_settings":null,"id":"3383BE5A-8879-4446-AA29-4A78A367DBAC","intensifies_audio":false,"is_placeholder":false,"is_tone_modify":false,"keyframe_refs":[],"last_nonzero_volume":1.0,"material_id":"9A392D64-8B61-4838-8C4F-2E428F175124","render_index":0,"responsive_layout":{"enable":false,"horizontal_pos_layout":0,"size_layout":0,"target_follow":"","vertical_pos_layout":0},"reverse":false,"source_timerange":{"duration":11666666,"start":0},"speed":1.0,"target_timerange":{"duration":11666667,"start":116366666},"template_id":"","template_scene":"default","track_attribute":0,"track_render_index":0,"uniform_scale":null,"visible":true,"volume":1.0},{"caption_info":null,"cartoon":false,"clip":null,"common_keyframes":[],"enable_adjust":false,"enable_color_curves":true,"enable_color_match_adjust":false,"enable_color_wheels":true,"enable_lut":false,"enable_smart_color_adjust":false,"extra_material_refs":["A0AA95E5-7C9B-4f36-B8C9-F410F7B12035","C402D2EF-F860-4fae-9A5B-84B24FA72276","AB407E5D-77AB-416c-9AB4-F16ACAEDC522","386312A0-7724-40ed-AA7F-A8196F73794A"],"group_id":"","hdr_settings":null,"id":"CF0722FD-B574-4b37-BDAC-727097A56E88","intensifies_audio":false,"is_placeholder":false,"is_tone_modify":false,"keyframe_refs":[],"last_nonzero_volume":1.0,"material_id":"EB5614EC-0C38-4450-90AB-40E6678E65A6","render_index":0,"responsive_layout":{"enable":false,"horizontal_pos_layout":0,"size_layout":0,"target_follow":"","vertical_pos_layout":0},"reverse":false,"source_timerange":{"duration":14366666,"start":0},"speed":1.0,"target_timerange":{"duration":14366667,"start":128166666},"template_id":"","template_scene":"default","track_attribute":0,"track_render_index":0,"uniform_scale":null,"visible":true,"volume":1.0},{"caption_info":null,"cartoon":false,"clip":null,"common_keyframes":[],"enable_adjust":false,"enable_color_curves":true,"enable_color_match_adjust":false,"enable_color_wheels":true,"enable_lut":false,"enable_smart_color_adjust":false,"extra_material_refs":["EE81FFF0-B272-4ce8-8563-1B84F0716480","C1549479-C473-4760-A17E-9276E3C3DD60","2372030E-AA13-4601-B74F-B7DBEB702176","2CB4418F-94EB-4e96-ADF0-121C2D88357D"],"group_id":"","hdr_settings":null,"id":"1A3DAD7E-7686-46ab-A11D-79B19A450571","intensifies_audio":false,"is_placeholder":false,"is_tone_modify":false,"keyframe_refs":[],"last_nonzero_volume":1.0,"material_id":"92539381-CA37-47ba-AA45-7EC6D77C53F1","render_index":0,"responsive_layout":{"enable":false,"horizontal_pos_layout":0,"size_layout":0,"target_follow":"","vertical_pos_layout":0},"reverse":false,"source_timerange":{"duration":6766666,"start":0},"speed":1.0,"target_timerange":{"duration":6766667,"start":142533333},"template_id":"","template_scene":"default","track_attribute":0,"track_render_index":0,"uniform_scale":null,"visible":true,"volume":1.0},{"caption_info":null,"cartoon":false,"clip":null,"common_keyframes":[],"enable_adjust":false,"enable_color_curves":true,"enable_color_match_adjust":false,"enable_color_wheels":true,"enable_lut":false,"enable_smart_color_adjust":false,"extra_material_refs":["0487762C-AE8A-4d84-937B-237671296AB9","3F53CB47-787E-4dd8-B895-4D18DB6F0E03","A5AA6AFD-6153-4a99-A0EB-07601F8959CC","5A89C087-6535-4b17-8648-8F2AFBBA99E6"],"group_id":"","hdr_settings":null,"id":"8B48D351-9902-478c-A751-1C9FEF5C038C","intensifies_audio":false,"is_placeholder":false,"is_tone_modify":false,"keyframe_refs":[],"last_nonzero_volume":1.0,"material_id":"7772B960-7CE8-44b9-B2C4-4A593FB95FB3","render_index":0,"responsive_layout":{"enable":false,"horizontal_pos_layout":0,"size_layout":0,"target_follow":"","vertical_pos_layout":0},"reverse":false,"source_timerange":{"duration":8233333,"start":0},"speed":1.0,"target_timerange":{"duration":8233333,"start":149300000},"template_id":"","template_scene":"default","track_attribute":0,"track_render_index":0,"uniform_scale":null,"visible":true,"volume":1.0},{"caption_info":null,"cartoon":false,"clip":null,"common_keyframes":[],"enable_adjust":false,"enable_color_curves":true,"enable_color_match_adjust":false,"enable_color_wheels":true,"enable_lut":false,"enable_smart_color_adjust":false,"extra_material_refs":["0B1D73D1-FE0F-426e-AAA3-3B9F31530D3B","2CA2D613-0350-4fe6-B3E3-CD1AADDC758B","15AC477E-DAE8-46be-9894-8991D0E39EEA","B0947B06-770B-401a-A08B-45C6C97B5826"],"group_id":"","hdr_settings":null,"id":"BF057481-7D1C-43d6-BCE4-620E37CCFC96","intensifies_audio":false,"is_placeholder":false,"is_tone_modify":false,"keyframe_refs":[],"last_nonzero_volume":1.0,"material_id":"4A851502-4424-496b-A233-C5EA68BEEED0","render_index":0,"responsive_layout":{"enable":false,"horizontal_pos_layout":0,"size_layout":0,"target_follow":"","vertical_pos_layout":0},"reverse":false,"source_timerange":{"duration":6966666,"start":0},"speed":1.0,"target_timerange":{"duration":6966667,"start":157533333},"template_id":"","template_scene":"default","track_attribute":0,"track_render_index":0,"uniform_scale":null,"visible":true,"volume":1.0},{"caption_info":null,"cartoon":false,"clip":null,"common_keyframes":[],"enable_adjust":false,"enable_color_curves":true,"enable_color_match_adjust":false,"enable_color_wheels":true,"enable_lut":false,"enable_smart_color_adjust":false,"extra_material_refs":["FAE727A5-4DF5-4146-8E9D-CB835AAAE738","E7C8F229-F3A8-4274-9C61-FCB5A73BFAF7","0EF34BA5-8B29-44c6-8736-82A808DA26E6","66A721C5-18B1-48e7-B137-B4AF1E813B19"],"group_id":"","hdr_settings":null,"id":"C755424C-86E3-4186-971C-CF74683AA4C9","intensifies_audio":false,"is_placeholder":false,"is_tone_modify":false,"keyframe_refs":[],"last_nonzero_volume":1.0,"material_id":"AD1B9046-083D-40a3-99B2-85D54A8C8E73","render_index":0,"responsive_layout":{"enable":false,"horizontal_pos_layout":0,"size_layout":0,"target_follow":"","vertical_pos_layout":0},"reverse":false,"source_timerange":{"duration":8600000,"start":0},"speed":1.0,"target_timerange":{"duration":8600000,"start":164500000},"template_id":"","template_scene":"default","track_attribute":0,"track_render_index":0,"uniform_scale":null,"visible":true,"volume":1.0},{"caption_info":null,"cartoon":false,"clip":null,"common_keyframes":[],"enable_adjust":false,"enable_color_curves":true,"enable_color_match_adjust":false,"enable_color_wheels":true,"enable_lut":false,"enable_smart_color_adjust":false,"extra_material_refs":["F6758FD7-DBEE-4544-B0A2-568CC5A5E9AF","845A39C8-0E90-4940-8DBA-96D9D4F5DA24","F1601620-3372-4dde-AE88-5653F987FB23","493CC583-F3AA-4877-B3CC-98CD5FAA5724"],"group_id":"","hdr_settings":null,"id":"B8B58439-1632-4a9b-B50C-C88D7DA0D8AC","intensifies_audio":false,"is_placeholder":false,"is_tone_modify":false,"keyframe_refs":[],"last_nonzero_volume":1.0,"material_id":"4568F8DB-AE3B-4687-AD2C-41B9A0FF3E14","render_index":0,"responsive_layout":{"enable":false,"horizontal_pos_layout":0,"size_layout":0,"target_follow":"","vertical_pos_layout":0},"reverse":false,"source_timerange":{"duration":8933333,"start":0},"speed":1.0,"target_timerange":{"duration":8933333,"start":173100000},"template_id":"","template_scene":"default","track_attribute":0,"track_render_index":0,"uniform_scale":null,"visible":true,"volume":1.0},{"caption_info":null,"cartoon":false,"clip":null,"common_keyframes":[],"enable_adjust":false,"enable_color_curves":true,"enable_color_match_adjust":false,"enable_color_wheels":true,"enable_lut":false,"enable_smart_color_adjust":false,"extra_material_refs":["AA3C6DB0-80F1-4729-A286-4BDA30DAC806","3B764E51-CD80-4a19-B257-1D0E378261D6","7D906BD8-0DD9-468b-9B31-800EFCF436D8","CF2E8AA8-ADE2-4593-990C-8EE2DBE78917"],"group_id":"","hdr_settings":null,"id":"B7E13EE4-0A7E-4fc3-90F2-BA4DB9E41449","intensifies_audio":false,"is_placeholder":false,"is_tone_modify":false,"keyframe_refs":[],"last_nonzero_volume":1.0,"material_id":"8228280A-7082-4f0f-B28F-49C08F114205","render_index":0,"responsive_layout":{"enable":false,"horizontal_pos_layout":0,"size_layout":0,"target_follow":"","vertical_pos_layout":0},"reverse":false,"source_timerange":{"duration":11233333,"start":0},"speed":1.0,"target_timerange":{"duration":11233333,"start":182033333},"template_id":"","template_scene":"default","track_attribute":0,"track_render_index":0,"uniform_scale":null,"visible":true,"volume":1.0},{"caption_info":null,"cartoon":false,"clip":null,"common_keyframes":[],"enable_adjust":false,"enable_color_curves":true,"enable_color_match_adjust":false,"enable_color_wheels":true,"enable_lut":false,"enable_smart_color_adjust":false,"extra_material_refs":["A7716471-3DF7-440f-886C-C16BD8393545","0A545190-9CCB-4988-8A2E-07490F7274F5","D9B18C09-F34B-47cc-848A-6602C740D25D","36203E55-543E-47a7-B522-15BFB92C4734"],"group_id":"","hdr_settings":null,"id":"61BAAC58-8A22-466d-87AE-67CE362F141D","intensifies_audio":false,"is_placeholder":false,"is_tone_modify":false,"keyframe_refs":[],"last_nonzero_volume":1.0,"material_id":"4E97D9E0-50E0-4ede-9101-F0EA4915D589","render_index":0,"responsive_layout":{"enable":false,"horizontal_pos_layout":0,"size_layout":0,"target_follow":"","vertical_pos_layout":0},"reverse":false,"source_timerange":{"duration":6300000,"start":0},"speed":1.0,"target_timerange":{"duration":6300000,"start":193266666},"template_id":"","template_scene":"default","track_attribute":0,"track_render_index":0,"uniform_scale":null,"visible":true,"volume":1.0},{"caption_info":null,"cartoon":false,"clip":null,"common_keyframes":[],"enable_adjust":false,"enable_color_curves":true,"enable_color_match_adjust":false,"enable_color_wheels":true,"enable_lut":false,"enable_smart_color_adjust":false,"extra_material_refs":["0DD26641-77F2-4822-B507-8632DE8570A5","AC51F1E4-7D26-467d-BFAA-1E2501A5AEAD","9D04B218-E9CA-4142-BA46-77B30599ACD3","DAF039BF-1750-43ac-A429-DC9F996A4FA2"],"group_id":"","hdr_settings":null,"id":"7FEFF8AB-5D9D-4762-9AFC-1B44FDF97C8A","intensifies_audio":false,"is_placeholder":false,"is_tone_modify":false,"keyframe_refs":[],"last_nonzero_volume":1.0,"material_id":"A5B8FC67-4257-4dc8-A3F2-ABE412DE2BE6","render_index":0,"responsive_layout":{"enable":false,"horizontal_pos_layout":0,"size_layout":0,"target_follow":"","vertical_pos_layout":0},"reverse":false,"source_timerange":{"duration":21233333,"start":0},"speed":1.0,"target_timerange":{"duration":21233334,"start":199566666},"template_id":"","template_scene":"default","track_attribute":0,"track_render_index":0,"uniform_scale":null,"visible":true,"volume":1.0},{"caption_info":null,"cartoon":false,"clip":null,"common_keyframes":[],"enable_adjust":false,"enable_color_curves":true,"enable_color_match_adjust":false,"enable_color_wheels":true,"enable_lut":false,"enable_smart_color_adjust":false,"extra_material_refs":["887BCB51-040D-4d8e-9874-6B25B49BE508","388E5D47-DE85-4818-9623-F845C3D72526","4FCD1B6C-5DFA-497d-B698-8EE39F8557A9","45756498-0B1B-4719-97E0-384FC5EB3081"],"group_id":"","hdr_settings":null,"id":"F072EDE3-F530-4fc5-8B54-5FFE90E9F428","intensifies_audio":false,"is_placeholder":false,"is_tone_modify":false,"keyframe_refs":[],"last_nonzero_volume":1.0,"material_id":"FDA3C57D-DCD1-4d7d-B711-708E7F2F60AA","render_index":0,"responsive_layout":{"enable":false,"horizontal_pos_layout":0,"size_layout":0,"target_follow":"","vertical_pos_layout":0},"reverse":false,"source_timerange":{"duration":3200000,"start":0},"speed":1.0,"target_timerange":{"duration":3200000,"start":220800000},"template_id":"","template_scene":"default","track_attribute":0,"track_render_index":0,"uniform_scale":null,"visible":true,"volume":1.0},{"caption_info":null,"cartoon":false,"clip":null,"common_keyframes":[],"enable_adjust":false,"enable_color_curves":true,"enable_color_match_adjust":false,"enable_color_wheels":true,"enable_lut":false,"enable_smart_color_adjust":false,"extra_material_refs":["B7DA79E7-2EC1-4aa4-8337-3CA9A1B0BA9F","0D12ED04-4CC8-4a9f-8E41-D6D70CC34196","526EF3FD-F277-4e2e-A9DC-7018C56BDF40","AD6B4D9C-ACB4-4350-8275-FD5710C8CEBD"],"group_id":"","hdr_settings":null,"id":"CF72C0BC-285C-4976-A6AB-FFAD552C6BEC","intensifies_audio":false,"is_placeholder":false,"is_tone_modify":false,"keyframe_refs":[],"last_nonzero_volume":1.0,"material_id":"1138D097-6F3F-402b-931D-CF66AC8D57AA","render_index":0,"responsive_layout":{"enable":false,"horizontal_pos_layout":0,"size_layout":0,"target_follow":"","vertical_pos_layout":0},"reverse":false,"source_timerange":{"duration":17166666,"start":0},"speed":1.0,"target_timerange":{"duration":17166666,"start":224000000},"template_id":"","template_scene":"default","track_attribute":0,"track_render_index":0,"uniform_scale":null,"visible":true,"volume":1.0},{"caption_info":null,"cartoon":false,"clip":null,"common_keyframes":[],"enable_adjust":false,"enable_color_curves":true,"enable_color_match_adjust":false,"enable_color_wheels":true,"enable_lut":false,"enable_smart_color_adjust":false,"extra_material_refs":["9F9AF128-137B-44b8-A543-4DFFD7D9A520","294B88FC-29B9-46cb-BF9A-69F69A27F13D","DBDD07B5-79A0-4d95-A0F9-6FFEFA666D8D","E8D45B20-2475-4669-9F5C-22A9DCCD83B6"],"group_id":"","hdr_settings":null,"id":"61E4784A-38E6-4c6d-A0DD-E6EC01254256","intensifies_audio":false,"is_placeholder":false,"is_tone_modify":false,"keyframe_refs":[],"last_nonzero_volume":1.0,"material_id":"703CBDF4-10E0-438e-BF97-31F93117EA40","render_index":0,"responsive_layout":{"enable":false,"horizontal_pos_layout":0,"size_layout":0,"target_follow":"","vertical_pos_layout":0},"reverse":false,"source_timerange":{"duration":5333333,"start":0},"speed":1.0,"target_timerange":{"duration":5333334,"start":241166666},"template_id":"","template_scene":"default","track_attribute":0,"track_render_index":0,"uniform_scale":null,"visible":true,"volume":1.0},{"caption_info":null,"cartoon":false,"clip":null,"common_keyframes":[],"enable_adjust":false,"enable_color_curves":true,"enable_color_match_adjust":false,"enable_color_wheels":true,"enable_lut":false,"enable_smart_color_adjust":false,"extra_material_refs":["6CBB9C9F-2A5C-4674-9AA5-CF5F6B31ED5B","ADDF1664-0201-4f3e-833D-6A2BF19CC091","068368E1-F161-4365-A8D5-A281FADC9090","E2EEB55A-215D-42c5-A9A1-577325C99FEA"],"group_id":"","hdr_settings":null,"id":"50057FE8-3580-4778-AFDF-AFE7EFA1C5EE","intensifies_audio":false,"is_placeholder":false,"is_tone_modify":false,"keyframe_refs":[],"last_nonzero_volume":1.0,"material_id":"78090A6E-CED1-45ae-8215-344D52E9C1D9","render_index":0,"responsive_layout":{"enable":false,"horizontal_pos_layout":0,"size_layout":0,"target_follow":"","vertical_pos_layout":0},"reverse":false,"source_timerange":{"duration":16800000,"start":0},"speed":1.0,"target_timerange":{"duration":16800000,"start":246500000},"template_id":"","template_scene":"default","track_attribute":0,"track_render_index":0,"uniform_scale":null,"visible":true,"volume":1.0},{"caption_info":null,"cartoon":false,"clip":null,"common_keyframes":[],"enable_adjust":false,"enable_color_curves":true,"enable_color_match_adjust":false,"enable_color_wheels":true,"enable_lut":false,"enable_smart_color_adjust":false,"extra_material_refs":["729CA237-40D4-402b-A158-AD8D221ED769","2477ECA4-8E49-4be2-8339-966221A8D3A5","BA3F0722-B11F-41bd-A615-ED0186FC8D2C","5AFFDD35-7212-4c63-BAFC-F950068663EF"],"group_id":"","hdr_settings":null,"id":"DE06A8D6-EFDB-45df-9EFD-5A9DBA9C5CF9","intensifies_audio":false,"is_placeholder":false,"is_tone_modify":false,"keyframe_refs":[],"last_nonzero_volume":1.0,"material_id":"BEFE7B2B-CEA0-4b49-A18C-56B1A274B27C","render_index":0,"responsive_layout":{"enable":false,"horizontal_pos_layout":0,"size_layout":0,"target_follow":"","vertical_pos_layout":0},"reverse":false,"source_timerange":{"duration":16433333,"start":0},"speed":1.0,"target_timerange":{"duration":16433333,"start":263300000},"template_id":"","template_scene":"default","track_attribute":0,"track_render_index":0,"uniform_scale":null,"visible":true,"volume":1.0},{"caption_info":null,"cartoon":false,"clip":null,"common_keyframes":[],"enable_adjust":false,"enable_color_curves":true,"enable_color_match_adjust":false,"enable_color_wheels":true,"enable_lut":false,"enable_smart_color_adjust":false,"extra_material_refs":["42E22F9E-4D6A-4ab8-8E22-FDE95E25A2D2","D2CA481B-1E8B-435c-929C-B653719030CB","C3AEB460-6E58-412e-81D4-D9585C574D42","A5A5222D-46B0-4fb6-A216-1C1F775B0641"],"group_id":"","hdr_settings":null,"id":"A6D3326A-AF88-4862-887E-4760C222B944","intensifies_audio":false,"is_placeholder":false,"is_tone_modify":false,"keyframe_refs":[],"last_nonzero_volume":1.0,"material_id":"057E6FC0-3CD3-4d15-9FA8-B4B74E4E5064","render_index":0,"responsive_layout":{"enable":false,"horizontal_pos_layout":0,"size_layout":0,"target_follow":"","vertical_pos_layout":0},"reverse":false,"source_timerange":{"duration":10500000,"start":0},"speed":1.0,"target_timerange":{"duration":10500000,"start":279733333},"template_id":"","template_scene":"default","track_attribute":0,"track_render_index":0,"uniform_scale":null,"visible":true,"volume":1.0}],"type":"audio"}],"update_time":0,"version":360000}